{
.appVersion = "3087";
DisplayStrings = (
abcdefghijklmnopqrstuvwxyz,
"/Yusbig-cy/yusbig-cy/Qa-cy/qa-cy/KaiSymbol/kaiSymbol",
"i/idotless/idotless_ogonek í/ibreve/icaron îï/idotaccent/idotbelow ì/ij/imacron/iogonek/iota-latin/istroke/itilde \012+/minus ×÷=/notequal ></greaterequal/lessequal ±/approxequal ~¬^",
"/ldot ll",
"¬",
"+¬"
);
classes = (
{
automatic = 1;

glyphs = (
{
glyphname = A;
lastChange = "2023-09-05 19:31:07 +0000";
layers = (
{
anchors = (
{
name = Bottom;
position = "{363, 0}";
},
{
name = Greek;
position = "{204, 558}";
},
{
name = Ogonek;
position = "{683, 0}";
},
{
name = Top;
position = "{413, 714}";
}
);
layerId = "FD4D3FDD-DE85-408F-A52A-FF600B1C6101";
paths = (
{
closed = 1;
nodes = (
"2 0 LINE",
"55 0 LINE",
"189 250 LINE",
"572 250 LINE",
"671 0 LINE",
"722 0 LINE",
"439 714 LINE",
"386 714 LINE"
);
},
{
closed = 1;
nodes = (
"409 658 LINE",
"552 298 LINE",
"215 298 LINE"
);
}
);
width = 760;
},
{
anchors = (
{
name = Bottom;
position = "{459, 0}";
},
{
name = Greek;
position = "{154, 558}";
},
{
name = Ogonek;
position = "{803, 0}";
},
{
name = Top;
position = "{509, 714}";
}
);
layerId = m002;
paths = (
{
closed = 1;
nodes = (
"2 0 LINE",
"215 0 LINE",
"272 108 LINE",
"621 108 LINE",
"663 0 LINE",
"874 0 LINE",
"595 714 LINE",
"382 714 LINE"
);
},
{
closed = 1;
nodes = (
"473 485 LINE",
"562 258 LINE",
"352 258 LINE"
);
}
);
width = 912;
}
);
leftKerningGroup = A;
rightKerningGroup = A;
unicode = 0041;
},
{
color = 10;
glyphname = Astroke;
lastChange = "2023-09-01 16:57:58 +0000";
layers = (
{
layerId = "FD4D3FDD-DE85-408F-A52A-FF600B1C6101";
paths = (
{
closed = 1;
nodes = (
"2 0 LINE",
"55 0 LINE",
"189 250 LINE",
"307 250 LINE",
"146 -53 LINE",
"196 -53 LINE",
"357 250 LINE",
"573 250 LINE",
"672 0 LINE",
"723 0 LINE",
"510 536 LINE",
"635 772 LINE",
"584 772 LINE",
"488 591 LINE",
"439 714 LINE",
"386 714 LINE"
);
},
{
closed = 1;
nodes = (
"410 659 LINE",
"459 536 LINE",
"332 298 LINE",
"215 298 LINE"
);
},
{
closed = 1;
nodes = (
"480 482 LINE",
"553 298 LINE",
"383 298 LINE"
);
}
);
width = 761;
},
{
layerId = m002;
paths = (
{
closed = 1;
nodes = (
"2 0 LINE",
"215 0 LINE",
"272 108 LINE",
"337 108 LINE",
"252 -53 LINE",
"304 -53 LINE",
"389 108 LINE",
"622 108 LINE",
"664 0 LINE",
"875 0 LINE",
"643 592 LINE",
"737 772 LINE",
"686 772 LINE",
"621 648 LINE",
"595 714 LINE",
"382 714 LINE"
);
},
{
closed = 1;
nodes = (
"474 486 LINE",
"500 418 LINE",
"416 258 LINE",
"352 258 LINE"
);
},
{
closed = 1;
nodes = (
"522 362 LINE",
"563 258 LINE",
"467 258 LINE"
);
}
);
width = 913;
}
);
leftKerningGroup = A;
leftMetricsKey = A;
rightKerningGroup = A;
rightMetricsKey = A;
unicode = 023A;
},
{
color = 10;
glyphname = AE;
lastChange = "2023-09-01 16:23:37 +0000";
layers = (
{
anchors = (
{
name = Top;
position = "{673, 714}";
}
);
layerId = "FD4D3FDD-DE85-408F-A52A-FF600B1C6101";
paths = (
{
closed = 1;
nodes = (
"2 0 LINE",
"60 0 LINE",
"236 250 LINE",
"480 250 LINE",
"462 0 LINE",
"1003 0 LINE",
"1006 48 LINE",
"515 48 LINE",
"536 344 LINE",
"1006 344 LINE",
"1009 392 LINE",
"539 392 LINE",
"559 666 LINE",
"1049 666 LINE",
"1053 714 LINE",
"506 714 LINE"
);
},
{
closed = 1;
nodes = (
"506 632 LINE",
"483 298 LINE",
"270 298 LINE"
);
}
);
width = 1061;
},
{
anchors = (
{
name = Top;
position = "{733, 714}";
}
);
layerId = m002;
paths = (
{
closed = 1;
nodes = (
"2 0 LINE",
"226 0 LINE",
"330 138 LINE",
"593 138 LINE",
"583 0 LINE",
"1239 0 LINE",
"1250 168 LINE",
"805 168 LINE",
"813 284 LINE",
"1237 284 LINE",
"1249 452 LINE",
"825 452 LINE",
"831 546 LINE",
"1277 546 LINE",
"1289 714 LINE",
"542 714 LINE"
);
},
{
closed = 1;
nodes = (
"620 521 LINE",
"603 288 LINE",
"443 288 LINE"
);
}
);
width = 1277;
}
);
leftKerningGroup = A;
leftMetricsKey = A;
rightKerningGroup = E;
rightMetricsKey = E;
unicode = 00C6;
},
{
glyphname = B;
lastChange = "2023-09-01 16:06:12 +0000";
layers = (
{
layerId = "FD4D3FDD-DE85-408F-A52A-FF600B1C6101";
paths = (
{
closed = 1;
nodes = (
"432 0 LINE SMOOTH",
"559 0 OFFCURVE",
"649 78 OFFCURVE",
"657 197 CURVE SMOOTH",
"664 292 OFFCURVE",
"609 364 OFFCURVE",
"518 374 CURVE",
"520 376 LINE",
"599 388 OFFCURVE",
"655 446 OFFCURVE",
"660 524 CURVE SMOOTH",
"668 637 OFFCURVE",
"587 714 OFFCURVE",
"458 714 CURVE SMOOTH",
"72 714 LINE",
"22 0 LINE"
);
},
{
closed = 1;
nodes = (
"97 351 LINE",
"445 351 LINE SMOOTH",
"549 351 OFFCURVE",
"614 290 OFFCURVE",
"607 197 CURVE SMOOTH",
"601 108 OFFCURVE",
"530 48 OFFCURVE",
"432 48 CURVE SMOOTH",
"75 48 LINE"
);
},
{
closed = 1;
nodes = (
"119 666 LINE",
"456 666 LINE SMOOTH",
"555 666 OFFCURVE",
"616 611 OFFCURVE",
"611 528 CURVE SMOOTH",
"605 451 OFFCURVE",
"539 398 OFFCURVE",
"447 398 CURVE SMOOTH",
"100 398 LINE"
);
}
);
width = 691;
},
{
layerId = m002;
paths = (
{
closed = 1;
nodes = (
"484 0 LINE SMOOTH",
"655 0 OFFCURVE",
"759 77 OFFCURVE",
"768 207 CURVE SMOOTH",
"774 293 OFFCURVE",
"731 354 OFFCURVE",
"657 373 CURVE",
"662 375 LINE SMOOTH",
"725 394 OFFCURVE",
"765 448 OFFCURVE",
"770 519 CURVE SMOOTH",
"778 641 OFFCURVE",
"681 714 OFFCURVE",
"511 714 CURVE SMOOTH",
"52 714 LINE",
"2 0 LINE"
);
},
{
closed = 1;
nodes = (
"233 294 LINE",
"482 294 LINE SMOOTH",
"529 294 OFFCURVE",
"553 271 OFFCURVE",
"550 233 CURVE SMOOTH",
"547 187 OFFCURVE",
"519 160 OFFCURVE",
"479 160 CURVE SMOOTH",
"223 160 LINE"
);
},
{
closed = 1;
nodes = (
"251 554 LINE",
"495 554 LINE SMOOTH",
"533 554 OFFCURVE",
"551 537 OFFCURVE",
"549 509 CURVE SMOOTH",
"547 475 OFFCURVE",
"523 454 OFFCURVE",
"489 454 CURVE SMOOTH",
"244 454 LINE"
);
}
);
width = 792;
}
);
leftKerningGroup = H;
leftMetricsKey = N;
rightKerningGroup = B;
unicode = 0042;
},
{
glyphname = C;
lastChange = "2023-09-01 16:06:12 +0000";
layers = (
{
anchors = (
{
name = Bottom;
position = "{397, 0}";
},
{
name = Top;
position = "{437, 726}";
}
);
layerId = "FD4D3FDD-DE85-408F-A52A-FF600B1C6101";
paths = (
{
closed = 1;
nodes = (
"689 217 LINE",
"669 108 OFFCURVE",
"551 35 OFFCURVE",
"394 35 CURVE SMOOTH",
"196 35 OFFCURVE",
"73 163 OFFCURVE",
"87 356 CURVE SMOOTH",
"100 549 OFFCURVE",
"239 678 OFFCURVE",
"435 678 CURVE SMOOTH",
"598 678 OFFCURVE",
"710 606 OFFCURVE",
"716 497 CURVE",
"766 495 LINE",
"762 634 OFFCURVE",
"630 726 OFFCURVE",
"436 726 CURVE SMOOTH",
"212 726 OFFCURVE",
"52 579 OFFCURVE",
"37 358 CURVE SMOOTH",
"21 135 OFFCURVE",
"163 -13 OFFCURVE",
"393 -13 CURVE SMOOTH",
"579 -13 OFFCURVE",
"717 78 OFFCURVE",
"739 215 CURVE"
);
}
);
width = 780;
},
{
anchors = (
{
name = Bottom;
position = "{422, 0}";
},
{
name = Top;
position = "{452, 726}";
}
);
layerId = m002;
paths = (
{
closed = 1;
nodes = (
"604 288 LINE",
"589 208 OFFCURVE",
"514 155 OFFCURVE",
"418 155 CURVE SMOOTH",
"301 155 OFFCURVE",
"228 234 OFFCURVE",
"236 352 CURVE SMOOTH",
"245 476 OFFCURVE",
"333 558 OFFCURVE",
"455 558 CURVE SMOOTH",
"549 558 OFFCURVE",
"616 506 OFFCURVE",
"622 428 CURVE",
"841 424 LINE",
"835 605 OFFCURVE",
"678 726 OFFCURVE",
"448 726 CURVE SMOOTH",
"204 726 OFFCURVE",
"32 580 OFFCURVE",
"17 362 CURVE SMOOTH",
"1 137 OFFCURVE",
"160 -13 OFFCURVE",
"415 -13 CURVE SMOOTH",
"631 -13 OFFCURVE",
"794 106 OFFCURVE",
"824 284 CURVE"
);
}
);
width = 840;
}
);
leftKerningGroup = O;
leftMetricsKey = O;
rightKerningGroup = O;
rightMetricsKey = O;
unicode = 0043;
},
{
color = 10;
glyphname = Cstroke;
lastChange = "2023-09-01 16:58:11 +0000";
layers = (
{
layerId = "FD4D3FDD-DE85-408F-A52A-FF600B1C6101";
paths = (
{
closed = 1;
nodes = (
"689 218 LINE",
"669 108 OFFCURVE",
"550 35 OFFCURVE",
"391 35 CURVE SMOOTH",
"344 35 OFFCURVE",
"300 43 OFFCURVE",
"262 57 CURVE",
"580 656 LINE",
"661 626 OFFCURVE",
"712 570 OFFCURVE",
"717 498 CURVE",
"766 494 LINE",
"763 588 OFFCURVE",
"702 660 OFFCURVE",
"603 698 CURVE",
"642 772 LINE",
"591 772 LINE",
"559 711 LINE",
"521 721 OFFCURVE",
"479 726 OFFCURVE",
"433 726 CURVE SMOOTH",
"195 726 OFFCURVE",
"36 567 OFFCURVE",
"36 328 CURVE SMOOTH",
"36 195 OFFCURVE",
"97 91 OFFCURVE",
"198 34 CURVE",
"152 -53 LINE",
"204 -53 LINE",
"240 15 LINE",
"286 -3 OFFCURVE",
"338 -13 OFFCURVE",
"396 -13 CURVE SMOOTH",
"580 -13 OFFCURVE",
"717 78 OFFCURVE",
"739 214 CURVE"
);
},
{
closed = 1;
nodes = (
"85 537 OFFCURVE",
"227 678 OFFCURVE",
"439 678 CURVE SMOOTH",
"474 678 OFFCURVE",
"506 675 OFFCURVE",
"536 668 CURVE",
"221 76 LINE",
"136 125 OFFCURVE",
"85 213 OFFCURVE",
"85 325 CURVE SMOOTH"
);
}
);
width = 780;
},
{
layerId = m002;
paths = (
{
closed = 1;
nodes = (
"604 288 LINE",
"589 208 OFFCURVE",
"514 155 OFFCURVE",
"418 155 CURVE SMOOTH",
"394 155 OFFCURVE",
"371 159 OFFCURVE",
"351 165 CURVE",
"546 538 LINE",
"590 516 OFFCURVE",
"618 477 OFFCURVE",
"622 428 CURVE",
"841 424 LINE",
"837 552 OFFCURVE",
"757 650 OFFCURVE",
"629 696 CURVE",
"669 772 LINE",
"618 772 LINE",
"585 710 LINE",
"543 720 OFFCURVE",
"497 726 OFFCURVE",
"448 726 CURVE SMOOTH",
"189 726 OFFCURVE",
"16 568 OFFCURVE",
"16 331 CURVE SMOOTH",
"16 187 OFFCURVE",
"94 76 OFFCURVE",
"224 22 CURVE",
"184 -53 LINE",
"236 -53 LINE",
"267 7 LINE",
"312 -6 OFFCURVE",
"362 -13 OFFCURVE",
"415 -13 CURVE SMOOTH",
"631 -13 OFFCURVE",
"794 106 OFFCURVE",
"824 284 CURVE"
);
},
{
closed = 1;
nodes = (
"235 468 OFFCURVE",
"323 558 OFFCURVE",
"455 558 CURVE SMOOTH",
"472 558 OFFCURVE",
"488 556 OFFCURVE",
"503 553 CURVE",
"309 185 LINE",
"263 216 OFFCURVE",
"235 268 OFFCURVE",
"235 334 CURVE SMOOTH"
);
}
);
width = 840;
}
);
leftKerningGroup = O;
leftMetricsKey = C;
rightKerningGroup = O;
rightMetricsKey = C;
unicode = 023B;
},
{
glyphname = D;
lastChange = "2023-09-01 16:06:12 +0000";
layers = (
{
anchors = (
{
name = Bottom;
position = "{300, 0}";
},
{
name = Top;
position = "{346, 714}";
}
);
layerId = "FD4D3FDD-DE85-408F-A52A-FF600B1C6101";
paths = (
{
closed = 1;
nodes = (
"346 0 LINE SMOOTH",
"550 0 OFFCURVE",
"696 142 OFFCURVE",
"711 356 CURVE SMOOTH",
"726 570 OFFCURVE",
"599 714 OFFCURVE",
"395 714 CURVE SMOOTH",
"72 714 LINE",
"22 0 LINE"
);
},
{
closed = 1;
nodes = (
"119 666 LINE",
"393 666 LINE SMOOTH",
"567 666 OFFCURVE",
"674 543 OFFCURVE",
"661 357 CURVE SMOOTH",
"648 172 OFFCURVE",
"522 48 OFFCURVE",
"348 48 CURVE SMOOTH",
"75 48 LINE"
);
}
);
width = 734;
},
{
anchors = (
{
name = Bottom;
position = "{340, 0}";
},
{
name = Top;
position = "{386, 714}";
}
);
layerId = m002;
paths = (
{
closed = 1;
nodes = (
"418 0 LINE SMOOTH",
"652 0 OFFCURVE",
"815 141 OFFCURVE",
"830 352 CURVE SMOOTH",
"845 569 OFFCURVE",
"697 714 OFFCURVE",
"463 714 CURVE SMOOTH",
"52 714 LINE",
"2 0 LINE"
);
},
{
closed = 1;
nodes = (
"250 546 LINE",
"456 546 LINE SMOOTH",
"558 546 OFFCURVE",
"619 472 OFFCURVE",
"611 361 CURVE SMOOTH",
"603 245 OFFCURVE",
"527 168 OFFCURVE",
"425 168 CURVE SMOOTH",
"224 168 LINE"
);
}
);
width = 834;
}
);
leftKerningGroup = H;
leftMetricsKey = N;
rightKerningGroup = O;
rightMetricsKey = O;
unicode = 0044;
},
{
color = 10;
glyphname = Eth;
lastChange = "2023-09-01 16:24:03 +0000";
layers = (
{
layerId = "FD4D3FDD-DE85-408F-A52A-FF600B1C6101";
paths = (
{
closed = 1;
nodes = (
"397 0 LINE SMOOTH",
"617 0 OFFCURVE",
"763 156 OFFCURVE",
"763 390 CURVE SMOOTH",
"763 584 OFFCURVE",
"636 714 OFFCURVE",
"446 714 CURVE SMOOTH",
"123 714 LINE",
"100 381 LINE",
"50 386 LINE",
"46 341 LINE",
"97 341 LINE",
"73 0 LINE"
);
},
{
closed = 1;
nodes = (
"147 341 LINE",
"247 341 LINE",
"250 383 LINE",
"150 383 LINE",
"170 666 LINE",
"444 666 LINE SMOOTH",
"605 666 OFFCURVE",
"713 554 OFFCURVE",
"713 387 CURVE SMOOTH",
"713 184 OFFCURVE",
"587 48 OFFCURVE",
"399 48 CURVE SMOOTH",
"126 48 LINE"
);
}
);
width = 785;
},
{
layerId = m002;
paths = (
{
closed = 1;
nodes = (
"465 0 LINE SMOOTH",
"713 0 OFFCURVE",
"878 153 OFFCURVE",
"878 382 CURVE SMOOTH",
"878 581 OFFCURVE",
"731 714 OFFCURVE",
"510 714 CURVE SMOOTH",
"99 714 LINE",
"78 417 LINE",
"31 422 LINE",
"23 299 LINE",
"70 299 LINE",
"49 0 LINE"
);
},
{
closed = 1;
nodes = (
"280 299 LINE",
"387 299 LINE",
"395 419 LINE",
"288 419 LINE",
"297 546 LINE",
"503 546 LINE SMOOTH",
"597 546 OFFCURVE",
"659 480 OFFCURVE",
"659 380 CURVE SMOOTH",
"659 253 OFFCURVE",
"584 168 OFFCURVE",
"472 168 CURVE SMOOTH",
"271 168 LINE"
);
}
);
width = 881;
}
);
leftKerningGroup = H;
leftMetricsKey = D;
rightKerningGroup = O;
rightMetricsKey = D;
unicode = 00D0;
},
{
glyphname = E;
lastChange = "2023-09-01 22:05:59 +0000";
layers = (
{
anchors = (
{
name = Bottom;
position = "{527, 0}";
},
{
name = Dot;
position = "{291, 0}";
},
{
name = Greek;
position = "{-87, 558}";
},
{
name = Top;
position = "{345, 714}";
}
);
layerId = "FD4D3FDD-DE85-408F-A52A-FF600B1C6101";
paths = (
{
closed = 1;
nodes = (
"99 392 LINE",
"119 666 LINE",
"609 666 LINE",
"613 714 LINE",
"72 714 LINE",
"22 0 LINE",
"563 0 LINE",
"566 48 LINE",
"75 48 LINE",
"96 344 LINE",
"566 344 LINE",
"569 392 LINE"
);
}
);
width = 621;
},
{
anchors = (
{
name = Bottom;
position = "{586, 0}";
},
{
name = Dot;
position = "{376, 0}";
},
{
name = Greek;
position = "{-152, 558}";
},
{
name = Top;
position = "{405, 714}";
}
);
layerId = m002;
paths = (
{
closed = 1;
nodes = (
"244 452 LINE",
"250 546 LINE",
"696 546 LINE",
"708 714 LINE",
"52 714 LINE",
"2 0 LINE",
"658 0 LINE",
"669 168 LINE",
"224 168 LINE",
"232 284 LINE",
"656 284 LINE",
"668 452 LINE"
);
}
);
width = 696;
}
);
leftKerningGroup = H;
leftMetricsKey = N;
rightKerningGroup = E;
unicode = 0045;
},
{
color = 10;
glyphname = Eopen;
lastChange = "2023-09-01 16:49:27 +0000";
layers = (
{
layerId = "FD4D3FDD-DE85-408F-A52A-FF600B1C6101";
paths = (
{
closed = 1;
nodes = (
"85 281 OFFCURVE",
"186 348 OFFCURVE",
"338 348 CURVE SMOOTH",
"424 348 LINE",
"427 396 LINE",
"340 396 LINE SMOOTH",
"215 396 OFFCURVE",
"132 450 OFFCURVE",
"132 530 CURVE SMOOTH",
"132 620 OFFCURVE",
"233 680 OFFCURVE",
"385 680 CURVE SMOOTH",
"460 680 OFFCURVE",
"526 672 OFFCURVE",
"549 659 CURVE",
"551 704 LINE",
"524 717 OFFCURVE",
"455 726 OFFCURVE",
"379 726 CURVE SMOOTH",
"201 726 OFFCURVE",
"82 648 OFFCURVE",
"82 531 CURVE SMOOTH",
"82 463 OFFCURVE",
"130 400 OFFCURVE",
"203 373 CURVE",
"203 371 LINE",
"102 353 OFFCURVE",
"35 276 OFFCURVE",
"35 178 CURVE SMOOTH",
"35 63 OFFCURVE",
"152 -13 OFFCURVE",
"327 -13 CURVE SMOOTH",
"409 -13 OFFCURVE",
"479 -4 OFFCURVE",
"501 9 CURVE",
"503 54 LINE",
"480 41 OFFCURVE",
"413 33 OFFCURVE",
"335 33 CURVE SMOOTH",
"185 33 OFFCURVE",
"85 92 OFFCURVE",
"85 180 CURVE SMOOTH"
);
}
);
width = 561;
},
{
layerId = m002;
paths = (
{
closed = 1;
nodes = (
"218 277 OFFCURVE",
"276 307 OFFCURVE",
"374 307 CURVE SMOOTH",
"452 307 LINE",
"461 437 LINE",
"376 437 LINE SMOOTH",
"302 437 OFFCURVE",
"259 454 OFFCURVE",
"259 482 CURVE SMOOTH",
"259 532 OFFCURVE",
"322 561 OFFCURVE",
"429 561 CURVE SMOOTH",
"476 561 OFFCURVE",
"522 550 OFFCURVE",
"553 532 CURVE",
"560 693 LINE",
"520 714 OFFCURVE",
"460 726 OFFCURVE",
"399 726 CURVE SMOOTH",
"186 726 OFFCURVE",
"60 645 OFFCURVE",
"60 508 CURVE SMOOTH",
"60 448 OFFCURVE",
"89 398 OFFCURVE",
"139 374 CURVE",
"139 372 LINE",
"62 344 OFFCURVE",
"16 281 OFFCURVE",
"16 203 CURVE SMOOTH",
"16 67 OFFCURVE",
"151 -13 OFFCURVE",
"379 -13 CURVE SMOOTH",
"432 -13 OFFCURVE",
"486 -5 OFFCURVE",
"526 8 CURVE",
"534 178 LINE",
"501 164 OFFCURVE",
"446 155 OFFCURVE",
"387 155 CURVE SMOOTH",
"281 155 OFFCURVE",
"218 181 OFFCURVE",
"218 226 CURVE SMOOTH"
);
}
);
width = 564;
}
);
leftKerningGroup = O;
leftMetricsKey = E;
rightKerningGroup = E;
rightMetricsKey = E;
unicode = 0190;
},
{
color = 10;
glyphname = Ezh;
lastChange = "2023-09-01 16:49:24 +0000";
layers = (
{
anchors = (
{
name = Top;
position = "{345, 714}";
}
);
layerId = "FD4D3FDD-DE85-408F-A52A-FF600B1C6101";
paths = (
{
closed = 1;
nodes = (
"80 666 LINE",
"559 666 LINE",
"319 469 LINE",
"316 421 LINE",
"352 421 LINE SMOOTH",
"493 421 OFFCURVE",
"582 345 OFFCURVE",
"574 230 CURVE SMOOTH",
"566 113 OFFCURVE",
"462 35 OFFCURVE",
"315 35 CURVE SMOOTH",
"165 35 OFFCURVE",
"69 103 OFFCURVE",
"76 205 CURVE",
"26 207 LINE",
"17 75 OFFCURVE",
"132 -13 OFFCURVE",
"313 -13 CURVE SMOOTH",
"489 -13 OFFCURVE",
"613 83 OFFCURVE",
"624 228 CURVE SMOOTH",
"633 365 OFFCURVE",
"537 458 OFFCURVE",
"382 468 CURVE",
"627 666 LINE",
"631 714 LINE",
"84 714 LINE"
);
}
);
width = 656;
},
{
anchors = (
{
name = Top;
position = "{385, 714}";
}
);
layerId = m002;
paths = (
{
closed = 1;
nodes = (
"53 564 LINE",
"502 564 LINE",
"340 479 LINE",
"330 329 LINE",
"379 329 LINE SMOOTH",
"465 329 OFFCURVE",
"520 293 OFFCURVE",
"516 240 CURVE SMOOTH",
"513 185 OFFCURVE",
"451 149 OFFCURVE",
"362 149 CURVE SMOOTH",
"271 149 OFFCURVE",
"212 179 OFFCURVE",
"215 224 CURVE",
"8 228 LINE",
"-2 83 OFFCURVE",
"137 -13 OFFCURVE",
"355 -13 CURVE SMOOTH",
"565 -13 OFFCURVE",
"713 84 OFFCURVE",
"724 230 CURVE SMOOTH",
"731 334 OFFCURVE",
"666 415 OFFCURVE",
"553 454 CURVE",
"720 564 LINE",
"731 714 LINE",
"64 714 LINE"
);
}
);
width = 736;
}
);
leftKerningGroup = three;
leftMetricsKey = O;
rightKerningGroup = O;
rightMetricsKey = O;
unicode = 01B7;
},
{
glyphname = F;
lastChange = "2023-09-01 16:06:12 +0000";
layers = (
{
anchors = (
{
name = Bottom;
position = "{245, 0}";
},
{
name = Top;
position = "{337, 726}";
}
);
layerId = "FD4D3FDD-DE85-408F-A52A-FF600B1C6101";
paths = (
{
closed = 1;
nodes = (
"99 392 LINE",
"119 666 LINE",
"609 666 LINE",
"613 714 LINE",
"72 714 LINE",
"22 0 LINE",
"72 0 LINE",
"96 344 LINE",
"566 344 LINE",
"569 392 LINE"
);
}
);
width = 611;
},
{
anchors = (
{
name = Bottom;
position = "{345, 0}";
},
{
name = Top;
position = "{337, 714}";
}
);
layerId = m002;
paths = (
{
closed = 1;
nodes = (
"244 452 LINE",
"250 546 LINE",
"696 546 LINE",
"708 714 LINE",
"52 714 LINE",
"2 0 LINE",
"212 0 LINE",
"232 284 LINE",
"656 284 LINE",
"668 452 LINE"
);
}
);
width = 696;
}
);
leftKerningGroup = H;
leftMetricsKey = N;
rightKerningGroup = F;
unicode = 0046;
},
{
glyphname = G;
lastChange = "2023-09-01 16:06:12 +0000";
layers = (
{
anchors = (
{
name = Bottom;
position = "{402, 0}";
},
{
name = Top;
position = "{459, 726}";
}
);
layerId = "FD4D3FDD-DE85-408F-A52A-FF600B1C6101";
paths = (
{
closed = 1;
nodes = (
"427 327 LINE",
"423 279 LINE",
"698 279 LINE",
"687 136 LINE",
"643 75 OFFCURVE",
"533 35 OFFCURVE",
"403 35 CURVE SMOOTH",
"199 35 OFFCURVE",
"73 163 OFFCURVE",
"87 356 CURVE SMOOTH",
"100 549 OFFCURVE",
"248 678 OFFCURVE",
"457 678 CURVE SMOOTH",
"618 678 OFFCURVE",
"730 606 OFFCURVE",
"736 497 CURVE",
"786 495 LINE",
"782 634 OFFCURVE",
"651 726 OFFCURVE",
"458 726 CURVE SMOOTH",
"220 726 OFFCURVE",
"52 579 OFFCURVE",
"37 358 CURVE SMOOTH",
"21 135 OFFCURVE",
"167 -13 OFFCURVE",
"402 -13 CURVE SMOOTH",
"519 -13 OFFCURVE",
"630 13 OFFCURVE",
"680 52 CURVE",
"681 52 LINE",
"662 0 LINE",
"728 0 LINE",
"751 327 LINE"
);
}
);
width = 810;
},
{
anchors = (
{
name = Bottom;
position = "{421, 0}";
},
{
name = Top;
position = "{471, 726}";
}
);
layerId = m002;
paths = (
{
closed = 1;
nodes = (
"462 389 LINE",
"453 259 LINE",
"630 259 LINE",
"626 203 LINE",
"599 167 OFFCURVE",
"527 145 OFFCURVE",
"433 145 CURVE SMOOTH",
"309 145 OFFCURVE",
"235 214 OFFCURVE",
"235 331 CURVE SMOOTH",
"235 474 OFFCURVE",
"319 558 OFFCURVE",
"461 558 CURVE SMOOTH",
"559 558 OFFCURVE",
"618 525 OFFCURVE",
"621 468 CURVE",
"840 464 LINE",
"834 629 OFFCURVE",
"688 726 OFFCURVE",
"448 726 CURVE SMOOTH",
"176 726 OFFCURVE",
"16 578 OFFCURVE",
"16 327 CURVE SMOOTH",
"16 113 OFFCURVE",
"167 -13 OFFCURVE",
"423 -13 CURVE SMOOTH",
"503 -13 OFFCURVE",
"574 10 OFFCURVE",
"614 50 CURVE",
"617 50 LINE",
"585 0 LINE",
"794 0 LINE",
"821 389 LINE"
);
}
);
width = 846;
}
);
leftKerningGroup = O;
leftMetricsKey = O;
rightKerningGroup = G;
rightMetricsKey = N;
unicode = 0047;
},
{
color = 10;
glyphname = Glottalstop;
lastChange = "2023-09-01 17:00:06 +0000";
layers = (
{
layerId = "FD4D3FDD-DE85-408F-A52A-FF600B1C6101";
paths = (
{
closed = 1;
nodes = (
"307 313 OFFCURVE",
"577 283 OFFCURVE",
"594 519 CURVE SMOOTH",
"603 643 OFFCURVE",
"502 726 OFFCURVE",
"341 726 CURVE SMOOTH",
"174 726 OFFCURVE",
"57 643 OFFCURVE",
"48 518 CURVE",
"98 522 LINE",
"105 616 OFFCURVE",
"200 678 OFFCURVE",
"337 678 CURVE SMOOTH",
"468 678 OFFCURVE",
"551 616 OFFCURVE",
"544 523 CURVE SMOOTH",
"530 317 OFFCURVE",
"259 342 OFFCURVE",
"235 2 CURVE",
"284 -2 LINE"
);
}
);
width = 606;
},
{
layerId = m002;
paths = (
{
closed = 1;
nodes = (
"392 256 OFFCURVE",
"684 214 OFFCURVE",
"702 473 CURVE SMOOTH",
"713 632 OFFCURVE",
"594 726 OFFCURVE",
"381 726 CURVE SMOOTH",
"168 726 OFFCURVE",
"35 628 OFFCURVE",
"24 463 CURVE",
"244 467 LINE",
"248 524 OFFCURVE",
"294 558 OFFCURVE",
"369 558 CURVE SMOOTH",
"443 558 OFFCURVE",
"485 528 OFFCURVE",
"481 477 CURVE SMOOTH",
"469 305 OFFCURVE",
"186 323 OFFCURVE",
"164 2 CURVE",
"373 -2 LINE"
);
}
);
width = 697;
}
);
leftKerningGroup = O;
leftMetricsKey = O;
rightKerningGroup = P;
rightMetricsKey = P;
unicode = 0241;
},
{
color = 10;
glyphname = Gstroke;
lastChange = "2023-09-01 16:53:25 +0000";
layers = (
{
layerId = "FD4D3FDD-DE85-408F-A52A-FF600B1C6101";
paths = (
{
closed = 1;
nodes = (
"427 327 LINE",
"423 279 LINE",
"697 279 LINE",
"693 222 LINE",
"594 227 LINE",
"590 182 LINE",
"690 182 LINE",
"686 128 LINE",
"636 72 OFFCURVE",
"524 35 OFFCURVE",
"400 35 CURVE SMOOTH",
"211 35 OFFCURVE",
"85 151 OFFCURVE",
"85 325 CURVE SMOOTH",
"85 537 OFFCURVE",
"235 678 OFFCURVE",
"461 678 CURVE SMOOTH",
"620 678 OFFCURVE",
"730 606 OFFCURVE",
"737 498 CURVE",
"786 494 LINE",
"782 633 OFFCURVE",
"650 726 OFFCURVE",
"455 726 CURVE SMOOTH",
"204 726 OFFCURVE",
"36 567 OFFCURVE",
"36 329 CURVE SMOOTH",
"36 124 OFFCURVE",
"184 -13 OFFCURVE",
"405 -13 CURVE SMOOTH",
"517 -13 OFFCURVE",
"626 16 OFFCURVE",
"678 55 CURVE",
"680 54 LINE",
"662 0 LINE",
"728 0 LINE",
"741 182 LINE",
"790 182 LINE",
"793 224 LINE",
"744 224 LINE",
"751 327 LINE"
);
}
);
width = 836;
},
{
layerId = m002;
paths = (
{
closed = 1;
nodes = (
"462 389 LINE",
"453 259 LINE",
"630 259 LINE",
"629 244 LINE",
"530 249 LINE",
"525 176 LINE",
"593 176 LINE",
"593 174 LINE",
"558 156 OFFCURVE",
"499 145 OFFCURVE",
"433 145 CURVE SMOOTH",
"309 145 OFFCURVE",
"235 214 OFFCURVE",
"235 331 CURVE SMOOTH",
"235 474 OFFCURVE",
"319 558 OFFCURVE",
"461 558 CURVE SMOOTH",
"559 558 OFFCURVE",
"618 525 OFFCURVE",
"621 468 CURVE",
"840 464 LINE",
"834 629 OFFCURVE",
"688 726 OFFCURVE",
"448 726 CURVE SMOOTH",
"176 726 OFFCURVE",
"16 578 OFFCURVE",
"16 327 CURVE SMOOTH",
"16 113 OFFCURVE",
"166 -13 OFFCURVE",
"421 -13 CURVE SMOOTH",
"503 -13 OFFCURVE",
"575 11 OFFCURVE",
"615 51 CURVE",
"617 50 LINE",
"585 0 LINE",
"794 0 LINE",
"806 176 LINE",
"856 176 LINE",
"861 246 LINE",
"811 246 LINE",
"821 389 LINE"
);
}
);
width = 882;
}
);
leftKerningGroup = O;
leftMetricsKey = G;
rightKerningGroup = G;
rightMetricsKey = G;
unicode = 01E4;
},
{
glyphname = H;
lastChange = "2023-09-01 22:09:40 +0000";
layers = (
{
anchors = (
{
name = Bottom;
position = "{334, 0}";
},
{
name = Greek;
position = "{-87, 558}";
},
{
name = Top;
position = "{384, 714}";
}
);
layerId = "FD4D3FDD-DE85-408F-A52A-FF600B1C6101";
paths = (
{
closed = 1;
nodes = (
"624 397 LINE",
"100 397 LINE",
"122 714 LINE",
"72 714 LINE",
"22 0 LINE",
"72 0 LINE",
"96 349 LINE",
"620 349 LINE",
"596 0 LINE",
"646 0 LINE",
"696 714 LINE",
"646 714 LINE"
);
}
);
width = 704;
},
{
anchors = (
{
name = Bottom;
position = "{387, 0}";
},
{
name = Greek;
position = "{-152, 558}";
},
{
name = Top;
position = "{437, 714}";
}
);
layerId = m002;
paths = (
{
closed = 1;
nodes = (
"587 448 LINE",
"243 448 LINE",
"262 714 LINE",
"52 714 LINE",
"2 0 LINE",
"212 0 LINE",
"232 280 LINE",
"576 280 LINE",
"556 0 LINE",
"766 0 LINE",
"816 714 LINE",
"606 714 LINE"
);
}
);
width = 804;
}
);
leftKerningGroup = H;
leftMetricsKey = N;
rightKerningGroup = H;
rightMetricsKey = N;
unicode = 0048;
},
{
color = 10;
glyphname = Hbar;
lastChange = "2023-09-01 16:44:51 +0000";
layers = (
{
layerId = "FD4D3FDD-DE85-408F-A52A-FF600B1C6101";
paths = (
{
closed = 1;
nodes = (
"738 602 LINE",
"214 600 LINE",
"222 714 LINE",
"172 714 LINE",
"164 601 LINE",
"64 605 LINE",
"61 560 LINE",
"161 560 LINE",
"122 0 LINE",
"172 0 LINE",
"196 349 LINE",
"720 349 LINE",
"696 0 LINE",
"746 0 LINE",
"785 560 LINE",
"885 560 LINE",
"888 602 LINE",
"788 602 LINE",
"796 714 LINE",
"746 714 LINE"
);
},
{
closed = 1;
nodes = (
"211 560 LINE",
"735 560 LINE",
"724 397 LINE",
"200 397 LINE"
);
}
);
width = 904;
},
{
layerId = m002;
paths = (
{
closed = 1;
nodes = (
"692 638 LINE",
"348 637 LINE",
"353 714 LINE",
"143 714 LINE",
"138 638 LINE",
"47 641 LINE",
"39 518 LINE",
"129 518 LINE",
"93 0 LINE",
"303 0 LINE",
"323 280 LINE",
"667 280 LINE",
"647 0 LINE",
"857 0 LINE",
"893 518 LINE",
"993 518 LINE",
"1001 638 LINE",
"902 638 LINE",
"907 714 LINE",
"697 714 LINE"
);
},
{
closed = 1;
nodes = (
"339 518 LINE",
"683 518 LINE",
"678 448 LINE",
"334 448 LINE"
);
}
);
width = 995;
}
);
leftKerningGroup = H;
leftMetricsKey = N;
rightKerningGroup = H;
rightMetricsKey = N;
unicode = 0126;
},
{
glyphname = I;
lastChange = "2023-09-01 22:09:51 +0000";
layers = (
{
anchors = (
{
name = Bottom;
position = "{47, 0}";
},
{
name = Greek;
position = "{-87, 558}";
},
{
name = Top;
position = "{97, 714}";
}
);
layerId = "FD4D3FDD-DE85-408F-A52A-FF600B1C6101";
paths = (
{
closed = 1;
nodes = (
"22 0 LINE",
"72 0 LINE",
"122 714 LINE",
"72 714 LINE"
);
}
);
width = 130;
},
{
anchors = (
{
name = Bottom;
position = "{107, 0}";
},
{
name = Greek;
position = "{-152, 558}";
},
{
name = Top;
position = "{157, 714}";
}
);
layerId = m002;
paths = (
{
closed = 1;
nodes = (
"2 0 LINE",
"212 0 LINE",
"262 714 LINE",
"52 714 LINE"
);
}
);
width = 250;
}
);
leftKerningGroup = H;
leftMetricsKey = N;
rightKerningGroup = H;
rightMetricsKey = N;
unicode = 0049;
},
{
color = 10;
glyphname = IJ;
lastChange = "2023-09-01 16:24:45 +0000";
layers = (
{
layerId = "FD4D3FDD-DE85-408F-A52A-FF600B1C6101";
paths = (
{
closed = 1;
nodes = (
"33 160 LINE",
"83 160 LINE",
"122 714 LINE",
"72 714 LINE"
);
},
{
closed = 1;
nodes = (
"60 -8 OFFCURVE",
"84 -13 OFFCURVE",
"108 -13 CURVE SMOOTH",
"224 -13 OFFCURVE",
"297 47 OFFCURVE",
"304 151 CURVE SMOOTH",
"344 714 LINE",
"294 714 LINE",
"254 153 LINE SMOOTH",
"249 79 OFFCURVE",
"195 34 OFFCURVE",
"110 34 CURVE SMOOTH",
"83 34 OFFCURVE",
"59 39 OFFCURVE",
"44 48 CURVE",
"42 0 LINE"
);
}
);
width = 352;
},
{
layerId = m002;
paths = (
{
closed = 1;
nodes = (
"19 240 LINE",
"189 240 LINE",
"223 714 LINE",
"53 714 LINE"
);
},
{
closed = 1;
nodes = (
"152 -7 OFFCURVE",
"175 -13 OFFCURVE",
"197 -13 CURVE SMOOTH",
"353 -13 OFFCURVE",
"449 65 OFFCURVE",
"459 200 CURVE SMOOTH",
"495 714 LINE",
"325 714 LINE",
"291 234 LINE SMOOTH",
"288 184 OFFCURVE",
"253 153 OFFCURVE",
"201 153 CURVE SMOOTH",
"180 153 OFFCURVE",
"158 158 OFFCURVE",
"142 167 CURVE",
"135 1 LINE"
);
}
);
width = 483;
}
);
leftKerningGroup = I;
leftMetricsKey = N;
rightKerningGroup = U;
rightMetricsKey = N;
unicode = 0132;
},
{
color = 10;
glyphname = Istroke;
lastChange = "2023-09-01 16:48:08 +0000";
layers = (
{
layerId = "FD4D3FDD-DE85-408F-A52A-FF600B1C6101";
paths = (
{
closed = 1;
nodes = (
"120 381 LINE",
"50 386 LINE",
"46 341 LINE",
"117 341 LINE",
"93 0 LINE",
"143 0 LINE",
"167 341 LINE",
"236 341 LINE",
"239 383 LINE",
"170 383 LINE",
"193 714 LINE",
"143 714 LINE"
);
}
);
width = 270;
},
{
layerId = m002;
paths = (
{
closed = 1;
nodes = (
"108 417 LINE",
"31 422 LINE",
"23 299 LINE",
"100 299 LINE",
"79 0 LINE",
"289 0 LINE",
"310 299 LINE",
"385 299 LINE",
"393 419 LINE",
"318 419 LINE",
"339 714 LINE",
"129 714 LINE"
);
}
);
width = 402;
}
);
leftKerningGroup = Istroke;
leftMetricsKey = N;
rightKerningGroup = Istroke;
rightMetricsKey = N;
unicode = 0197;
},
{
glyphname = J;
lastChange = "2023-09-01 16:06:12 +0000";
layers = (
{
anchors = (
{
name = Bottom;
position = "{147, 0}";
},
{
name = Top;
position = "{375, 714}";
}
);
layerId = "FD4D3FDD-DE85-408F-A52A-FF600B1C6101";
paths = (
{
closed = 1;
nodes = (
"400 714 LINE",
"350 714 LINE",
"315 213 LINE SMOOTH",
"307 101 OFFCURVE",
"225 34 OFFCURVE",
"96 34 CURVE SMOOTH",
"61 34 OFFCURVE",
"32 39 OFFCURVE",
"15 48 CURVE",
"13 0 LINE",
"31 -8 OFFCURVE",
"60 -13 OFFCURVE",
"94 -13 CURVE SMOOTH",
"254 -13 OFFCURVE",
"355 70 OFFCURVE",
"364 211 CURVE SMOOTH"
);
}
);
width = 408;
},
{
anchors = (
{
name = Bottom;
position = "{88, 0}";
},
{
name = Top;
position = "{370, 714}";
}
);
layerId = m002;
paths = (
{
closed = 1;
nodes = (
"481 714 LINE",
"271 714 LINE",
"242 299 LINE SMOOTH",
"236 219 OFFCURVE",
"172 163 OFFCURVE",
"83 163 CURVE SMOOTH",
"62 163 OFFCURVE",
"33 168 OFFCURVE",
"14 177 CURVE",
"6 1 LINE",
"23 -7 OFFCURVE",
"57 -13 OFFCURVE",
"94 -13 CURVE SMOOTH",
"296 -13 OFFCURVE",
"437 87 OFFCURVE",
"447 240 CURVE SMOOTH"
);
}
);
width = 469;
}
);
leftKerningGroup = J;
rightKerningGroup = U;
rightMetricsKey = N;
unicode = 004A;
},
{
glyphname = K;
lastChange = "2023-09-01 16:06:12 +0000";
layers = (
{
anchors = (
{
name = Bottom;
position = "{281, 0}";
},
{
name = Top;
position = "{335, 714}";
}
);
layerId = "FD4D3FDD-DE85-408F-A52A-FF600B1C6101";
paths = (
{
closed = 1;
nodes = (
"22 0 LINE",
"72 0 LINE",
"90 260 LINE",
"254 381 LINE",
"573 0 LINE",
"644 0 LINE",
"295 412 LINE",
"703 714 LINE",
"628 714 LINE",
"97 321 LINE",
"95 322 LINE",
"122 714 LINE",
"72 714 LINE"
);
}
);
width = 691;
},
{
anchors = (
{
name = Bottom;
position = "{368, 0}";
},
{
name = Top;
position = "{402, 714}";
}
);
layerId = m002;
paths = (
{
closed = 1;
nodes = (
"2 0 LINE",
"212 0 LINE",
"225 191 LINE",
"344 285 LINE",
"563 0 LINE",
"818 0 LINE",
"501 411 LINE",
"883 714 LINE",
"595 714 LINE",
"244 434 LINE",
"242 435 LINE",
"262 714 LINE",
"52 714 LINE"
);
}
);
width = 871;
}
);
leftKerningGroup = H;
leftMetricsKey = N;
rightKerningGroup = K;
rightMetricsKey = A;
unicode = 004B;
},
{
glyphname = L;
lastChange = "2023-09-01 16:06:12 +0000";
layers = (
{
anchors = (
{
name = Bottom;
position = "{309, 0}";
},
{
name = Caron;
position = "{255, 548}";
},
{
name = Top;
position = "{98, 714}";
}
);
layerId = "FD4D3FDD-DE85-408F-A52A-FF600B1C6101";
paths = (
{
closed = 1;
nodes = (
"75 48 LINE",
"122 714 LINE",
"72 714 LINE",
"22 0 LINE",
"550 0 LINE",
"553 48 LINE"
);
}
);
width = 588;
},
{
anchors = (
{
name = Bottom;
position = "{329, 0}";
},
{
name = Caron;
position = "{365, 548}";
},
{
name = Top;
position = "{158, 714}";
}
);
layerId = m002;
paths = (
{
closed = 1;
nodes = (
"223 168 LINE",
"262 714 LINE",
"52 714 LINE",
"2 0 LINE",
"640 0 LINE",
"651 168 LINE"
);
}
);
width = 678;
}
);
leftKerningGroup = H;
leftMetricsKey = N;
rightKerningGroup = L;
rightMetricsKey = A;
unicode = 004C;
},
{
color = 10;
glyphname = Lbar;
lastChange = "2023-09-01 16:58:49 +0000";
layers = (
{
layerId = "FD4D3FDD-DE85-408F-A52A-FF600B1C6101";
paths = (
{
closed = 1;
nodes = (
"126 48 LINE",
"147 341 LINE",
"247 341 LINE",
"250 383 LINE",
"150 383 LINE",
"173 714 LINE",
"123 714 LINE",
"100 381 LINE",
"50 386 LINE",
"46 341 LINE",
"97 341 LINE",
"73 0 LINE",
"601 0 LINE",
"604 48 LINE"
);
}
);
width = 639;
},
{
layerId = m002;
paths = (
{
closed = 1;
nodes = (
"270 168 LINE",
"279 299 LINE",
"385 299 LINE",
"393 419 LINE",
"288 419 LINE",
"309 714 LINE",
"99 714 LINE",
"78 417 LINE",
"31 422 LINE",
"23 299 LINE",
"70 299 LINE",
"49 0 LINE",
"687 0 LINE",
"698 168 LINE"
);
}
);
width = 725;
}
);
leftKerningGroup = H;
leftMetricsKey = H;
rightKerningGroup = L;
rightMetricsKey = L;
unicode = 023D;
},
{
color = 10;
glyphname = Lmiddletilde;
lastChange = "2023-09-01 16:58:49 +0000";
layers = (
{
layerId = "FD4D3FDD-DE85-408F-A52A-FF600B1C6101";
paths = (
{
closed = 1;
nodes = (
"199 48 LINE",
"220 339 LINE",
"231 336 OFFCURVE",
"244 333 OFFCURVE",
"258 333 CURVE SMOOTH",
"307 333 OFFCURVE",
"341 364 OFFCURVE",
"345 413 CURVE",
"297 415 LINE",
"295 392 OFFCURVE",
"279 376 OFFCURVE",
"259 376 CURVE SMOOTH",
"246 376 OFFCURVE",
"234 379 OFFCURVE",
"223 383 CURVE",
"246 714 LINE",
"196 714 LINE",
"174 404 LINE",
"161 409 OFFCURVE",
"147 413 OFFCURVE",
"131 413 CURVE SMOOTH",
"83 413 OFFCURVE",
"48 382 OFFCURVE",
"45 333 CURVE",
"93 331 LINE",
"94 354 OFFCURVE",
"110 370 OFFCURVE",
"131 370 CURVE SMOOTH",
"145 370 OFFCURVE",
"158 366 OFFCURVE",
"171 360 CURVE",
"146 0 LINE",
"674 0 LINE",
"677 48 LINE"
);
}
);
width = 712;
},
{
layerId = m002;
paths = (
{
closed = 1;
nodes = (
"358 168 LINE",
"368 309 LINE",
"381 308 OFFCURVE",
"390 308 OFFCURVE",
"399 308 CURVE SMOOTH",
"462 308 OFFCURVE",
"507 353 OFFCURVE",
"512 424 CURVE",
"408 428 LINE",
"407 416 OFFCURVE",
"395 406 OFFCURVE",
"379 406 CURVE SMOOTH",
"378 406 OFFCURVE",
"376 406 OFFCURVE",
"375 406 CURVE",
"397 714 LINE",
"187 714 LINE",
"167 429 LINE",
"154 430 OFFCURVE",
"150 430 OFFCURVE",
"139 430 CURVE SMOOTH",
"74 430 OFFCURVE",
"29 385 OFFCURVE",
"24 314 CURVE",
"128 310 LINE",
"129 323 OFFCURVE",
"140 333 OFFCURVE",
"156 333 CURVE SMOOTH",
"157 333 OFFCURVE",
"159 333 OFFCURVE",
"160 333 CURVE",
"137 0 LINE",
"775 0 LINE",
"786 168 LINE"
);
}
);
width = 813;
}
);
leftKerningGroup = H;
leftMetricsKey = H;
rightKerningGroup = L;
rightMetricsKey = L;
unicode = 2C62;
},
{
color = 10;
glyphname = Lslash;
lastChange = "2023-09-01 16:39:28 +0000";
layers = (
{
layerId = "FD4D3FDD-DE85-408F-A52A-FF600B1C6101";
paths = (
{
closed = 1;
nodes = (
"146 48 LINE",
"171 404 LINE",
"303 479 LINE",
"307 537 LINE",
"175 462 LINE",
"193 714 LINE",
"143 714 LINE",
"123 432 LINE",
"49 390 LINE",
"45 332 LINE",
"119 374 LINE",
"93 0 LINE",
"621 0 LINE",
"624 48 LINE"
);
}
);
width = 659;
},
{
layerId = m002;
paths = (
{
closed = 1;
nodes = (
"296 168 LINE",
"314 418 LINE",
"403 476 LINE",
"412 612 LINE",
"324 555 LINE",
"335 714 LINE",
"125 714 LINE",
"104 414 LINE",
"27 365 LINE",
"18 227 LINE",
"94 276 LINE",
"75 0 LINE",
"713 0 LINE",
"724 168 LINE"
);
}
);
width = 751;
}
);
leftKerningGroup = H;
leftMetricsKey = N;
rightKerningGroup = L;
rightMetricsKey = A;
unicode = 0141;
},
{
glyphname = M;
lastChange = "2023-09-01 16:06:12 +0000";
layers = (
{
anchors = (
{
name = Bottom;
position = "{412, 0}";
}
);
layerId = "FD4D3FDD-DE85-408F-A52A-FF600B1C6101";
paths = (
{
closed = 1;
nodes = (
"22 0 LINE",
"72 0 LINE",
"115 613 LINE",
"117 613 LINE",
"388 0 LINE",
"436 0 LINE",
"793 613 LINE",
"795 613 LINE",
"752 0 LINE",
"802 0 LINE",
"852 714 LINE",
"794 714 LINE",
"417 69 LINE",
"415 69 LINE",
"128 714 LINE",
"72 714 LINE"
);
}
);
width = 860;
},
{
anchors = (
{
name = Bottom;
position = "{456, 0}";
}
);
layerId = m002;
paths = (
{
closed = 1;
nodes = (
"2 0 LINE",
"212 0 LINE",
"235 323 LINE",
"237 323 LINE",
"392 0 LINE",
"520 0 LINE",
"721 323 LINE",
"723 323 LINE",
"700 0 LINE",
"910 0 LINE",
"960 714 LINE",
"742 714 LINE",
"474 259 LINE",
"472 259 LINE",
"268 714 LINE",
"52 714 LINE"
);
}
);
width = 948;
}
);
leftKerningGroup = H;
leftMetricsKey = N;
rightKerningGroup = H;
rightMetricsKey = N;
unicode = 004D;
},
{
glyphname = N;
lastChange = "2023-09-01 16:06:12 +0000";
layers = (
{
anchors = (
{
name = Bottom;
position = "{334, 0}";
},
{
name = Top;
position = "{384, 714}";
}
);
layerId = "FD4D3FDD-DE85-408F-A52A-FF600B1C6101";
paths = (
{
closed = 1;
nodes = (
"72 714 LINE",
"22 0 LINE",
"72 0 LINE",
"116 631 LINE",
"118 631 LINE",
"596 0 LINE",
"646 0 LINE",
"696 714 LINE",
"646 714 LINE",
"602 83 LINE",
"600 83 LINE",
"122 713 LINE",
"122 714 LINE"
);
}
);
width = 704;
},
{
anchors = (
{
name = Bottom;
position = "{363, 0}";
},
{
name = Top;
position = "{418, 714}";
}
);
layerId = m002;
paths = (
{
closed = 1;
nodes = (
"52 714 LINE",
"2 0 LINE",
"212 0 LINE",
"240 404 LINE",
"243 404 LINE",
"556 0 LINE",
"766 0 LINE",
"816 714 LINE",
"606 714 LINE",
"578 310 LINE",
"575 310 LINE",
"262 713 LINE",
"262 714 LINE"
);
}
);
width = 804;
}
);
leftKerningGroup = H;
rightKerningGroup = H;
unicode = 004E;
},
{
color = 10;
glyphname = Eng;
lastChange = "2023-09-01 16:47:41 +0000";
layers = (
{
layerId = "FD4D3FDD-DE85-408F-A52A-FF600B1C6101";
paths = (
{
closed = 1;
nodes = (
"72 714 LINE",
"22 0 LINE",
"72 0 LINE",
"116 631 LINE",
"118 631 LINE",
"596 0 LINE",
"595 -7 LINE SMOOTH",
"587 -119 OFFCURVE",
"506 -186 OFFCURVE",
"376 -186 CURVE SMOOTH",
"342 -186 OFFCURVE",
"312 -181 OFFCURVE",
"296 -172 CURVE",
"294 -220 LINE",
"311 -228 OFFCURVE",
"341 -233 OFFCURVE",
"375 -233 CURVE SMOOTH",
"535 -233 OFFCURVE",
"635 -150 OFFCURVE",
"645 -9 CURVE SMOOTH",
"696 714 LINE",
"646 714 LINE",
"601 83 LINE",
"599 83 LINE",
"121 714 LINE"
);
}
);
width = 704;
},
{
layerId = m002;
paths = (
{
closed = 1;
nodes = (
"52 714 LINE",
"2 0 LINE",
"212 0 LINE",
"240 404 LINE",
"243 404 LINE",
"544 18 LINE",
"544 16 LINE SMOOTH",
"542 -28 OFFCURVE",
"465 -57 OFFCURVE",
"402 -57 CURVE SMOOTH",
"381 -57 OFFCURVE",
"353 -52 OFFCURVE",
"334 -43 CURVE",
"325 -219 LINE",
"343 -227 OFFCURVE",
"377 -233 OFFCURVE",
"414 -233 CURVE SMOOTH",
"606 -233 OFFCURVE",
"743 -143 OFFCURVE",
"765 -2 CURVE",
"816 714 LINE",
"606 714 LINE",
"577 300 LINE",
"574 300 LINE",
"261 714 LINE"
);
}
);
width = 804;
}
);
leftKerningGroup = H;
leftMetricsKey = N;
rightKerningGroup = N;
rightMetricsKey = N;
unicode = 014A;
},
{
glyphname = O;
lastChange = "2023-09-01 22:10:14 +0000";
layers = (
{
anchors = (
{
name = Bottom;
position = "{399, 0}";
},
{
name = Greek;
position = "{-4, 558}";
},
{
name = Top;
position = "{448, 726}";
}
);
layerId = "FD4D3FDD-DE85-408F-A52A-FF600B1C6101";
paths = (
{
closed = 1;
nodes = (
"630 -13 OFFCURVE",
"794 134 OFFCURVE",
"809 355 CURVE SMOOTH",
"825 578 OFFCURVE",
"680 726 OFFCURVE",
"447 726 CURVE SMOOTH",
"216 726 OFFCURVE",
"52 578 OFFCURVE",
"37 357 CURVE SMOOTH",
"21 135 OFFCURVE",
"165 -13 OFFCURVE",
"398 -13 CURVE SMOOTH"
);
},
{
closed = 1;
nodes = (
"100 548 OFFCURVE",
"244 677 OFFCURVE",
"446 677 CURVE SMOOTH",
"647 677 OFFCURVE",
"773 549 OFFCURVE",
"760 357 CURVE SMOOTH",
"746 164 OFFCURVE",
"602 35 OFFCURVE",
"399 35 CURVE SMOOTH",
"198 35 OFFCURVE",
"73 163 OFFCURVE",
"86 355 CURVE SMOOTH"
);
}
);
width = 832;
},
{
anchors = (
{
name = Bottom;
position = "{411, 0}";
},
{
name = Greek;
position = "{-34, 558}";
},
{
name = Top;
position = "{461, 726}";
}
);
layerId = m002;
paths = (
{
closed = 1;
nodes = (
"674 -13 OFFCURVE",
"837 122 OFFCURVE",
"853 351 CURVE SMOOTH",
"870 587 OFFCURVE",
"723 726 OFFCURVE",
"456 726 CURVE SMOOTH",
"196 726 OFFCURVE",
"33 590 OFFCURVE",
"17 361 CURVE SMOOTH",
"0 126 OFFCURVE",
"147 -13 OFFCURVE",
"413 -13 CURVE SMOOTH"
);
},
{
closed = 1;
nodes = (
"245 481 OFFCURVE",
"326 558 OFFCURVE",
"453 558 CURVE SMOOTH",
"576 558 OFFCURVE",
"643 485 OFFCURVE",
"634 361 CURVE SMOOTH",
"625 232 OFFCURVE",
"544 155 OFFCURVE",
"416 155 CURVE SMOOTH",
"295 155 OFFCURVE",
"228 228 OFFCURVE",
"236 351 CURVE SMOOTH"
);
}
);
width = 857;
}
);
leftKerningGroup = O;
rightKerningGroup = O;
unicode = 004F;
},
{
color = 10;
glyphname = Oopen;
lastChange = "2023-09-01 16:48:40 +0000";
layers = (
{
layerId = "FD4D3FDD-DE85-408F-A52A-FF600B1C6101";
paths = (
{
closed = 1;
nodes = (
"54 607 LINE",
"107 650 OFFCURVE",
"206 678 OFFCURVE",
"301 678 CURVE SMOOTH",
"462 678 OFFCURVE",
"569 562 OFFCURVE",
"569 389 CURVE SMOOTH",
"569 177 OFFCURVE",
"441 35 OFFCURVE",
"248 35 CURVE SMOOTH",
"153 35 OFFCURVE",
"61 63 OFFCURVE",
"19 105 CURVE",
"16 49 LINE",
"55 12 OFFCURVE",
"148 -13 OFFCURVE",
"247 -13 CURVE SMOOTH",
"470 -13 OFFCURVE",
"619 148 OFFCURVE",
"619 390 CURVE SMOOTH",
"619 592 OFFCURVE",
"488 726 OFFCURVE",
"292 726 CURVE SMOOTH",
"204 726 OFFCURVE",
"110 702 OFFCURVE",
"58 666 CURVE"
);
}
);
width = 641;
},
{
layerId = m002;
paths = (
{
closed = 1;
nodes = (
"31 505 LINE",
"91 538 OFFCURVE",
"165 558 OFFCURVE",
"231 558 CURVE SMOOTH",
"347 558 OFFCURVE",
"415 493 OFFCURVE",
"415 383 CURVE SMOOTH",
"415 240 OFFCURVE",
"336 155 OFFCURVE",
"201 155 CURVE SMOOTH",
"124 155 OFFCURVE",
"51 174 OFFCURVE",
"6 205 CURVE",
"-4 9 LINE",
"49 -5 OFFCURVE",
"124 -13 OFFCURVE",
"197 -13 CURVE SMOOTH",
"472 -13 OFFCURVE",
"634 136 OFFCURVE",
"634 388 CURVE SMOOTH",
"634 600 OFFCURVE",
"487 726 OFFCURVE",
"239 726 CURVE SMOOTH",
"175 726 OFFCURVE",
"101 718 OFFCURVE",
"41 704 CURVE"
);
}
);
width = 636;
}
);
leftKerningGroup = O;
leftMetricsKey = O;
rightKerningGroup = O;
rightMetricsKey = O;
unicode = 0186;
},
{
color = 10;
glyphname = Oslash;
lastChange = "2023-09-01 16:25:25 +0000";
layers = (
{
anchors = (
{
name = Top;
position = "{424, 726}";
}
);
layerId = "FD4D3FDD-DE85-408F-A52A-FF600B1C6101";
paths = (
{
closed = 1;
nodes = (
"656 -13 OFFCURVE",
"811 135 OFFCURVE",
"811 356 CURVE SMOOTH",
"811 524 OFFCURVE",
"722 649 OFFCURVE",
"579 701 CURVE",
"607 778 LINE",
"549 778 LINE",
"526 716 LINE",
"494 722 OFFCURVE",
"460 726 OFFCURVE",
"424 726 CURVE SMOOTH",
"192 726 OFFCURVE",
"38 578 OFFCURVE",
"38 356 CURVE SMOOTH",
"38 188 OFFCURVE",
"127 63 OFFCURVE",
"271 12 CURVE",
"243 -64 LINE",
"301 -64 LINE",
"323 -3 LINE",
"355 -10 OFFCURVE",
"388 -13 OFFCURVE",
"424 -13 CURVE SMOOTH"
);
},
{
closed = 1;
nodes = (
"88 549 OFFCURVE",
"222 677 OFFCURVE",
"424 677 CURVE SMOOTH",
"454 677 OFFCURVE",
"482 674 OFFCURVE",
"509 669 CURVE",
"287 58 LINE",
"164 103 OFFCURVE",
"88 211 OFFCURVE",
"88 356 CURVE SMOOTH"
);
},
{
closed = 1;
nodes = (
"562 654 LINE",
"685 609 OFFCURVE",
"761 501 OFFCURVE",
"761 356 CURVE SMOOTH",
"761 163 OFFCURVE",
"626 35 OFFCURVE",
"424 35 CURVE SMOOTH",
"394 35 OFFCURVE",
"366 38 OFFCURVE",
"340 43 CURVE"
);
}
);
width = 835;
},
{
anchors = (
{
name = Top;
position = "{435, 726}";
}
);
layerId = m002;
paths = (
{
closed = 1;
nodes = (
"699 -13 OFFCURVE",
"855 124 OFFCURVE",
"855 356 CURVE SMOOTH",
"855 518 OFFCURVE",
"780 633 OFFCURVE",
"646 689 CURVE",
"678 778 LINE",
"502 778 LINE",
"483 725 LINE",
"467 725 OFFCURVE",
"452 726 OFFCURVE",
"436 726 CURVE SMOOTH",
"173 726 OFFCURVE",
"18 589 OFFCURVE",
"18 356 CURVE SMOOTH",
"18 194 OFFCURVE",
"93 79 OFFCURVE",
"228 24 CURVE",
"196 -64 LINE",
"372 -64 LINE",
"391 -12 LINE",
"406 -13 OFFCURVE",
"421 -13 OFFCURVE",
"436 -13 CURVE SMOOTH"
);
},
{
closed = 1;
nodes = (
"238 477 OFFCURVE",
"319 558 OFFCURVE",
"419 558 CURVE SMOOTH",
"420 558 OFFCURVE",
"421 558 OFFCURVE",
"422 558 CURVE",
"294 205 LINE",
"258 240 OFFCURVE",
"238 291.009 OFFCURVE",
"238 356 CURVE SMOOTH"
);
},
{
closed = 1;
nodes = (
"580 507 LINE",
"616 473 OFFCURVE",
"635 421 OFFCURVE",
"635 356 CURVE SMOOTH",
"635 236 OFFCURVE",
"550 155 OFFCURVE",
"454 155 CURVE SMOOTH",
"453 155 OFFCURVE",
"453 155 OFFCURVE",
"452 155 CURVE"
);
}
);
width = 860;
}
);
leftKerningGroup = O;
leftMetricsKey = O;
rightKerningGroup = O;
rightMetricsKey = O;
unicode = 00D8;
},
{
color = 10;
glyphname = OE;
lastChange = "2023-09-01 16:25:25 +0000";
layers = (
{
layerId = "FD4D3FDD-DE85-408F-A52A-FF600B1C6101";
paths = (
{
closed = 1;
nodes = (
"623 392 LINE",
"643 666 LINE",
"1133 666 LINE",
"1137 714 LINE",
"401 714 LINE SMOOTH",
"182 714 OFFCURVE",
"36 558 OFFCURVE",
"36 324 CURVE SMOOTH",
"36 130 OFFCURVE",
"162 0 OFFCURVE",
"352 0 CURVE SMOOTH",
"1087 0 LINE",
"1090 48 LINE",
"599 48 LINE",
"620 344 LINE",
"1090 344 LINE",
"1093 392 LINE"
);
},
{
closed = 1;
nodes = (
"85 530 OFFCURVE",
"211 666 OFFCURVE",
"399 666 CURVE SMOOTH",
"593 666 LINE",
"549 48 LINE",
"354 48 LINE SMOOTH",
"193 48 OFFCURVE",
"85 160 OFFCURVE",
"85 327 CURVE SMOOTH"
);
}
);
width = 1145;
},
{
layerId = m002;
paths = (
{
closed = 1;
nodes = (
"748 452 LINE",
"754 546 LINE",
"1200 546 LINE",
"1212 714 LINE",
"434 714 LINE SMOOTH",
"183 714 OFFCURVE",
"16 562 OFFCURVE",
"16 333 CURVE SMOOTH",
"16 133 OFFCURVE",
"165 0 OFFCURVE",
"389 0 CURVE SMOOTH",
"1162 0 LINE",
"1173 168 LINE",
"728 168 LINE",
"736 284 LINE",
"1160 284 LINE",
"1172 452 LINE"
);
},
{
closed = 1;
nodes = (
"244 468 OFFCURVE",
"320 546 OFFCURVE",
"427 546 CURVE SMOOTH",
"544 546 LINE",
"518 168 LINE",
"396 168 LINE SMOOTH",
"293 168 OFFCURVE",
"229 242 OFFCURVE",
"236 352 CURVE SMOOTH"
);
}
);
width = 1200;
}
);
leftKerningGroup = O;
leftMetricsKey = O;
rightKerningGroup = E;
rightMetricsKey = E;
unicode = 0152;
},
{
glyphname = P;
lastChange = "2023-09-01 16:06:12 +0000";
layers = (
{
anchors = (
{
name = Bottom;
position = "{216, 0}";
},
{
name = Top;
position = "{292, 714}";
}
);
layerId = "FD4D3FDD-DE85-408F-A52A-FF600B1C6101";
paths = (
{
closed = 1;
nodes = (
"92 291 LINE",
"441 291 LINE SMOOTH",
"569 291 OFFCURVE",
"660 375 OFFCURVE",
"669 502 CURVE SMOOTH",
"678 629 OFFCURVE",
"593 714 OFFCURVE",
"458 714 CURVE SMOOTH",
"72 714 LINE",
"22 0 LINE",
"72 0 LINE"
);
},
{
closed = 1;
nodes = (
"119 666 LINE",
"456 666 LINE SMOOTH",
"561 666 OFFCURVE",
"626 602 OFFCURVE",
"619 504 CURVE SMOOTH",
"612 405 OFFCURVE",
"541 338 OFFCURVE",
"443 338 CURVE SMOOTH",
"96 338 LINE"
);
}
);
width = 682;
},
{
anchors = (
{
name = Bottom;
position = "{256, 0}";
},
{
name = Top;
position = "{342, 714}";
}
);
layerId = m002;
paths = (
{
closed = 1;
nodes = (
"227 221 LINE",
"457 221 LINE SMOOTH",
"633 221 OFFCURVE",
"756 318 OFFCURVE",
"766 463 CURVE SMOOTH",
"777 614 OFFCURVE",
"659 714 OFFCURVE",
"476 714 CURVE SMOOTH",
"52 714 LINE",
"2 0 LINE",
"212 0 LINE"
);
},
{
closed = 1;
nodes = (
"250 546 LINE",
"469 546 LINE SMOOTH",
"526 546 OFFCURVE",
"560 517 OFFCURVE",
"557 473 CURVE SMOOTH",
"553 423 OFFCURVE",
"515 389 OFFCURVE",
"465 389 CURVE SMOOTH",
"239 389 LINE"
);
}
);
width = 762;
}
);
leftKerningGroup = H;
leftMetricsKey = N;
rightKerningGroup = P;
unicode = 0050;
},
{
color = 10;
glyphname = Thorn;
lastChange = "2023-09-01 16:25:34 +0000";
layers = (
{
layerId = "FD4D3FDD-DE85-408F-A52A-FF600B1C6101";
paths = (
{
closed = 1;
nodes = (
"83 151 LINE",
"431 151 LINE SMOOTH",
"568 151 OFFCURVE",
"659 241 OFFCURVE",
"659 375 CURVE SMOOTH",
"659 494 OFFCURVE",
"575 574 OFFCURVE",
"448 574 CURVE SMOOTH",
"112 574 LINE",
"122 714 LINE",
"72 714 LINE",
"22 0 LINE",
"72 0 LINE"
);
},
{
closed = 1;
nodes = (
"109 526 LINE",
"446 526 LINE SMOOTH",
"544 526 OFFCURVE",
"610 465 OFFCURVE",
"610 373 CURVE SMOOTH",
"610 268 OFFCURVE",
"539 198 OFFCURVE",
"433 198 CURVE SMOOTH",
"86 198 LINE"
);
}
);
width = 682;
},
{
layerId = m002;
paths = (
{
closed = 1;
nodes = (
"220 111 LINE",
"450 111 LINE SMOOTH",
"635 111 OFFCURVE",
"759 215 OFFCURVE",
"759 372 CURVE SMOOTH",
"759 511 OFFCURVE",
"643 604 OFFCURVE",
"469 604 CURVE SMOOTH",
"254 604 LINE",
"262 714 LINE",
"52 714 LINE",
"2 0 LINE",
"212 0 LINE"
);
},
{
closed = 1;
nodes = (
"243 436 LINE",
"461 436 LINE SMOOTH",
"514 436 OFFCURVE",
"549 409 OFFCURVE",
"549 368 CURVE SMOOTH",
"549 315 OFFCURVE",
"512 279 OFFCURVE",
"457 279 CURVE SMOOTH",
"232 279 LINE"
);
}
);
width = 762;
}
);
leftKerningGroup = H;
leftMetricsKey = P;
rightKerningGroup = P;
rightMetricsKey = P;
unicode = 00DE;
},
{
glyphname = Q;
lastChange = "2023-09-01 16:06:12 +0000";
layers = (
{
layerId = "FD4D3FDD-DE85-408F-A52A-FF600B1C6101";
paths = (
{
closed = 1;
nodes = (
"455 -13 OFFCURVE",
"508 -4 OFFCURVE",
"556 13 CURVE",
"590 -54 LINE",
"635 -29 LINE",
"603 33 LINE",
"722 93 OFFCURVE",
"799 207 OFFCURVE",
"809 355 CURVE SMOOTH",
"825 578 OFFCURVE",
"680 726 OFFCURVE",
"447 726 CURVE SMOOTH",
"216 726 OFFCURVE",
"52 578 OFFCURVE",
"37 357 CURVE SMOOTH",
"21 135 OFFCURVE",
"165 -13 OFFCURVE",
"398 -13 CURVE SMOOTH"
);
},
{
closed = 1;
nodes = (
"100 548 OFFCURVE",
"244 677 OFFCURVE",
"446 677 CURVE SMOOTH",
"647 677 OFFCURVE",
"773 549 OFFCURVE",
"760 357 CURVE SMOOTH",
"751 229 OFFCURVE",
"684 129 OFFCURVE",
"581 76 CURVE",
"511 213 LINE",
"467 188 LINE",
"534 56 LINE",
"493 42 OFFCURVE",
"448 35 OFFCURVE",
"399 35 CURVE SMOOTH",
"198 35 OFFCURVE",
"73 163 OFFCURVE",
"86 355 CURVE SMOOTH"
);
}
);
width = 832;
},
{
layerId = m002;
paths = (
{
closed = 1;
nodes = (
"449 -13 OFFCURVE",
"484 -10 OFFCURVE",
"516 -5 CURVE",
"556 -84 LINE",
"690 -9 LINE",
"664 42 LINE",
"776 102 OFFCURVE",
"843 208 OFFCURVE",
"853 351 CURVE SMOOTH",
"870 587 OFFCURVE",
"723 726 OFFCURVE",
"456 726 CURVE SMOOTH",
"196 726 OFFCURVE",
"33 590 OFFCURVE",
"17 361 CURVE SMOOTH",
"0 126 OFFCURVE",
"147 -13 OFFCURVE",
"413 -13 CURVE SMOOTH"
);
},
{
closed = 1;
nodes = (
"245 481 OFFCURVE",
"326 558 OFFCURVE",
"453 558 CURVE SMOOTH",
"576 558 OFFCURVE",
"643 485 OFFCURVE",
"634 361 CURVE SMOOTH",
"630 300 OFFCURVE",
"609 250 OFFCURVE",
"575 215 CURVE",
"539 285 LINE",
"406 210 LINE",
"434 156 LINE",
"426 155 OFFCURVE",
"418 155 OFFCURVE",
"416 155 CURVE SMOOTH",
"295 155 OFFCURVE",
"228 228 OFFCURVE",
"236 351 CURVE SMOOTH"
);
}
);
width = 857;
}
);
leftKerningGroup = O;
leftMetricsKey = O;
rightKerningGroup = O;
rightMetricsKey = O;
unicode = 0051;
},
{
glyphname = R;
lastChange = "2023-09-01 16:06:12 +0000";
layers = (
{
anchors = (
{
name = Bottom;
position = "{317, 0}";
},
{
name = Top;
position = "{330, 714}";
}
);
layerId = "FD4D3FDD-DE85-408F-A52A-FF600B1C6101";
paths = (
{
closed = 1;
nodes = (
"92 291 LINE",
"458 291 LINE",
"607 0 LINE",
"663 0 LINE",
"512 298 LINE",
"607 319 OFFCURVE",
"671 393 OFFCURVE",
"678 494 CURVE SMOOTH",
"687 625 OFFCURVE",
"603 714 OFFCURVE",
"468 714 CURVE SMOOTH",
"72 714 LINE",
"22 0 LINE",
"72 0 LINE"
);
},
{
closed = 1;
nodes = (
"119 666 LINE",
"466 666 LINE SMOOTH",
"571 666 OFFCURVE",
"636 599 OFFCURVE",
"628 498 CURVE SMOOTH",
"622 403 OFFCURVE",
"551 338 OFFCURVE",
"453 338 CURVE SMOOTH",
"96 338 LINE"
);
}
);
width = 701;
},
{
anchors = (
{
name = Bottom;
position = "{357, 0}";
},
{
name = Top;
position = "{390, 714}";
}
);
layerId = m002;
paths = (
{
closed = 1;
nodes = (
"229 240 LINE",
"417 240 LINE",
"539 0 LINE",
"754 0 LINE",
"619 265 LINE",
"711 301 OFFCURVE",
"770 376 OFFCURVE",
"777 472 CURVE SMOOTH",
"787 617 OFFCURVE",
"673 714 OFFCURVE",
"496 714 CURVE SMOOTH",
"52 714 LINE",
"2 0 LINE",
"212 0 LINE"
);
},
{
closed = 1;
nodes = (
"250 546 LINE",
"489 546 LINE SMOOTH",
"540 546 OFFCURVE",
"570 520 OFFCURVE",
"567 482 CURVE SMOOTH",
"564 438 OFFCURVE",
"530 408 OFFCURVE",
"486 408 CURVE SMOOTH",
"241 408 LINE"
);
}
);
width = 792;
}
);
leftKerningGroup = H;
leftMetricsKey = N;
rightKerningGroup = R;
unicode = 0052;
},
{
glyphname = S;
lastChange = "2023-09-01 21:39:38 +0000";
layers = (
{
anchors = (
{
name = Bottom;
position = "{392, 0}";
},
{
name = Top;
position = "{380, 726}";
}
);
layerId = "FD4D3FDD-DE85-408F-A52A-FF600B1C6101";
paths = (
{
closed = 1;
nodes = (
"207 726 OFFCURVE",
"77 647 OFFCURVE",
"69 528 CURVE SMOOTH",
"50 263 OFFCURVE",
"651 405 OFFCURVE",
"636 190 CURVE SMOOTH",
"629 97 OFFCURVE",
"519 35 OFFCURVE",
"361 35 CURVE SMOOTH",
"176 35 OFFCURVE",
"59 113 OFFCURVE",
"68 230 CURVE",
"18 232 LINE",
"8 85 OFFCURVE",
"143 -13 OFFCURVE",
"356 -13 CURVE SMOOTH",
"545 -13 OFFCURVE",
"677 70 OFFCURVE",
"686 194 CURVE SMOOTH",
"704 453 OFFCURVE",
"104 322 OFFCURVE",
"119 530 CURVE SMOOTH",
"125 619 OFFCURVE",
"234 678 OFFCURVE",
"392 678 CURVE SMOOTH",
"552 678 OFFCURVE",
"654 609 OFFCURVE",
"647 505 CURVE",
"697 503 LINE",
"706 637 OFFCURVE",
"584 726 OFFCURVE",
"393 726 CURVE SMOOTH"
);
}
);
width = 711;
},
{
anchors = (
{
name = Bottom;
position = "{400, 0}";
},
{
name = Top;
position = "{439, 726}";
}
);
layerId = m002;
paths = (
{
closed = 1;
nodes = (
"214 726 OFFCURVE",
"77 646 OFFCURVE",
"67 511 CURVE SMOOTH",
"45 190 OFFCURVE",
"576 338 OFFCURVE",
"568 220 CURVE SMOOTH",
"565 176 OFFCURVE",
"505 150 OFFCURVE",
"407 150 CURVE SMOOTH",
"291 150 OFFCURVE",
"225 189 OFFCURVE",
"229 254 CURVE",
"20 258 LINE",
"8 88 OFFCURVE",
"151 -13 OFFCURVE",
"404 -13 CURVE SMOOTH",
"629 -13 OFFCURVE",
"768 70 OFFCURVE",
"777 210 CURVE SMOOTH",
"799 517 OFFCURVE",
"270 404 OFFCURVE",
"277 501 CURVE SMOOTH",
"279 540 OFFCURVE",
"337 563 OFFCURVE",
"432 563 CURVE SMOOTH",
"526 563 OFFCURVE",
"579 533 OFFCURVE",
"575 481 CURVE",
"785 477 LINE",
"796 634 OFFCURVE",
"666 726 OFFCURVE",
"435 726 CURVE SMOOTH"
);
}
);
width = 800;
}
);
leftKerningGroup = S;
rightKerningGroup = S;
unicode = 0053;
},
{
color = 10;
glyphname = Saltillo;
lastChange = "2023-09-01 16:45:14 +0000";
layers = (
{
layerId = "FD4D3FDD-DE85-408F-A52A-FF600B1C6101";
paths = (
{
closed = 1;
nodes = (
"50 409 LINE",
"40 196 LINE",
"80 196 LINE",
"100 409 LINE",
"123 731 LINE",
"73 731 LINE"
);
}
);
width = 130;
},
{
layerId = m002;
paths = (
{
closed = 1;
nodes = (
"30 409 LINE",
"20 196 LINE",
"180 196 LINE",
"200 409 LINE",
"223 731 LINE",
"53 731 LINE"
);
}
);
width = 210;
}
);
leftKerningGroup = H;
leftMetricsKey = N;
rightKerningGroup = H;
rightMetricsKey = N;
unicode = A78B;
},
{
color = 10;
glyphname = Germandbls;
lastChange = "2023-09-01 16:24:03 +0000";
layers = (
{
layerId = "FD4D3FDD-DE85-408F-A52A-FF600B1C6101";
paths = (
{
closed = 1;
nodes = (
"540 -13 OFFCURVE",
"638 78 OFFCURVE",
"648 216 CURVE SMOOTH",
"657 345 OFFCURVE",
"554 432 OFFCURVE",
"389 438 CURVE",
"613 666 LINE",
"617 714 LINE",
"72 714 LINE",
"22 0 LINE",
"72 0 LINE",
"119 666 LINE",
"549 666 LINE",
"333 446 LINE",
"329 398 LINE",
"350 398 LINE SMOOTH",
"507 398 OFFCURVE",
"605 327 OFFCURVE",
"598 218 CURVE SMOOTH",
"590 109 OFFCURVE",
"512 35 OFFCURVE",
"403 35 CURVE",
"401 -13 LINE"
);
}
);
width = 681;
},
{
layerId = m002;
paths = (
{
closed = 1;
nodes = (
"614 -13 OFFCURVE",
"748 84 OFFCURVE",
"748 229 CURVE SMOOTH",
"748 319 OFFCURVE",
"695 388 OFFCURVE",
"608 423 CURVE",
"715 546 LINE",
"727 714 LINE",
"52 714 LINE",
"2 0 LINE",
"212 0 LINE",
"250 546 LINE",
"506 546 LINE",
"390 416 LINE",
"381 278 LINE",
"433 278 LINE SMOOTH",
"490 278 OFFCURVE",
"528 257 OFFCURVE",
"528 226 CURVE SMOOTH",
"528 183 OFFCURVE",
"485 155 OFFCURVE",
"420 155 CURVE",
"413 -13 LINE"
);
}
);
width = 761;
}
);
leftKerningGroup = H;
leftMetricsKey = B;
rightKerningGroup = B;
rightMetricsKey = O;
unicode = 1E9E;
},
{
color = 10;
glyphname = Schwa;
lastChange = "2023-09-01 16:44:42 +0000";
layers = (
{
layerId = "FD4D3FDD-DE85-408F-A52A-FF600B1C6101";
paths = (
{
closed = 1;
nodes = (
"104 491 LINE",
"135 603 OFFCURVE",
"270 678 OFFCURVE",
"441 678 CURVE SMOOTH",
"626 678 OFFCURVE",
"750 564 OFFCURVE",
"750 392 CURVE SMOOTH",
"750 380 OFFCURVE",
"750 368 OFFCURVE",
"749 356 CURVE",
"38 356 LINE",
"36 339 LINE SMOOTH",
"11 129 OFFCURVE",
"160 -13 OFFCURVE",
"381 -13 CURVE SMOOTH",
"632 -13 OFFCURVE",
"800 150 OFFCURVE",
"800 394 CURVE SMOOTH",
"800 593 OFFCURVE",
"658 726 OFFCURVE",
"445 726 CURVE SMOOTH",
"246 726 OFFCURVE",
"90 633 OFFCURVE",
"54 493 CURVE"
);
},
{
closed = 1;
nodes = (
"742 308 LINE",
"709 141 OFFCURVE",
"576 35 OFFCURVE",
"390 35 CURVE SMOOTH",
"193 35 OFFCURVE",
"70 145 OFFCURVE",
"84 308 CURVE"
);
}
);
width = 822;
},
{
layerId = m002;
paths = (
{
closed = 1;
nodes = (
"245 450 LINE",
"262 514 OFFCURVE",
"357 558 OFFCURVE",
"460 558 CURVE SMOOTH",
"572 558 OFFCURVE",
"641 503 OFFCURVE",
"641 411 CURVE SMOOTH",
"641 410 OFFCURVE",
"641 410 OFFCURVE",
"641 409 CURVE",
"24 408 LINE",
"19 330 LINE SMOOTH",
"6 125 OFFCURVE",
"166 -13 OFFCURVE",
"422 -13 CURVE SMOOTH",
"665 -13 OFFCURVE",
"836 136 OFFCURVE",
"852 359 CURVE SMOOTH",
"867 579 OFFCURVE",
"707 726 OFFCURVE",
"456 726 CURVE SMOOTH",
"237 726 OFFCURVE",
"65 618 OFFCURVE",
"24 454 CURVE"
);
},
{
closed = 1;
nodes = (
"609 258 LINE",
"571 194 OFFCURVE",
"502 155 OFFCURVE",
"418 155 CURVE SMOOTH",
"312 155 OFFCURVE",
"242 194 OFFCURVE",
"235 258 CURVE"
);
}
);
width = 855;
}
);
leftKerningGroup = O;
leftMetricsKey = O;
rightKerningGroup = O;
rightMetricsKey = O;
unicode = 018F;
},
{
glyphname = T;
lastChange = "2023-09-05 19:25:57 +0000";
layers = (
{
anchors = (
{
name = Bottom;
position = "{332, 0}";
},
{
name = Top;
position = "{382, 714}";
}
);
layerId = "FD4D3FDD-DE85-408F-A52A-FF600B1C6101";
paths = (
{
closed = 1;
nodes = (
"52 714 LINE",
"48 666 LINE",
"353 666 LINE",
"307 0 LINE",
"357 0 LINE",
"403 666 LINE",
"707 666 LINE",
"711 714 LINE"
);
}
);
width = 699;
},
{
anchors = (
{
name = Bottom;
position = "{397, 0}";
},
{
name = Top;
position = "{447, 714}";
}
);
layerId = m002;
paths = (
{
closed = 1;
nodes = (
"52 714 LINE",
"40 546 LINE",
"330 546 LINE",
"292 0 LINE",
"502 0 LINE",
"540 546 LINE",
"829 546 LINE",
"841 714 LINE"
);
}
);
width = 829;
}
);
leftKerningGroup = T;
rightKerningGroup = T;
unicode = 0054;
},
{
color = 10;
glyphname = Tbar;
lastChange = "2023-09-01 16:53:33 +0000";
layers = (
{
layerId = "FD4D3FDD-DE85-408F-A52A-FF600B1C6101";
paths = (
{
closed = 1;
nodes = (
"52 714 LINE",
"48 666 LINE",
"353 666 LINE",
"335 412 LINE",
"141 417 LINE",
"138 372 LINE",
"333 372 LINE",
"307 0 LINE",
"357 0 LINE",
"383 372 LINE",
"577 372 LINE",
"580 414 LINE",
"386 414 LINE",
"403 666 LINE",
"707 666 LINE",
"711 714 LINE"
);
}
);
width = 699;
},
{
layerId = m002;
paths = (
{
closed = 1;
nodes = (
"52 714 LINE",
"40 546 LINE",
"330 546 LINE",
"320 402 LINE",
"161 407 LINE",
"152 284 LINE",
"312 284 LINE",
"292 0 LINE",
"502 0 LINE",
"522 284 LINE",
"680 284 LINE",
"689 404 LINE",
"530 404 LINE",
"540 546 LINE",
"829 546 LINE",
"841 714 LINE"
);
}
);
width = 829;
}
);
leftKerningGroup = T;
leftMetricsKey = T;
rightKerningGroup = T;
rightMetricsKey = T;
unicode = 0166;
},
{
color = 10;
glyphname = Tdiagonalstroke;
lastChange = "2023-09-01 16:59:09 +0000";
layers = (
{
layerId = "FD4D3FDD-DE85-408F-A52A-FF600B1C6101";
paths = (
{
closed = 1;
nodes = (
"593 714 LINE",
"624 772 LINE",
"573 772 LINE",
"542 714 LINE",
"52 714 LINE",
"48 666 LINE",
"353 666 LINE",
"329 311 LINE",
"135 -53 LINE",
"185 -53 LINE",
"321 203 LINE",
"307 0 LINE",
"357 0 LINE",
"378 311 LINE",
"568 666 LINE",
"707 666 LINE",
"711 714 LINE"
);
},
{
closed = 1;
nodes = (
"403 666 LINE",
"517 666 LINE",
"386 420 LINE"
);
}
);
width = 699;
},
{
layerId = m002;
paths = (
{
closed = 1;
nodes = (
"766 714 LINE",
"796 772 LINE",
"745 772 LINE",
"714 714 LINE",
"52 714 LINE",
"40 546 LINE",
"330 546 LINE",
"292 0 LINE",
"339 0 LINE",
"311 -53 LINE",
"363 -53 LINE",
"391 0 LINE",
"502 0 LINE",
"519 244 LINE",
"677 546 LINE",
"829 546 LINE",
"841 714 LINE"
);
},
{
closed = 1;
nodes = (
"540 546 LINE",
"626 546 LINE",
"527 357 LINE"
);
}
);
width = 829;
}
);
leftKerningGroup = T;
leftMetricsKey = T;
rightKerningGroup = T;
rightMetricsKey = T;
unicode = 023E;
},
{
glyphname = U;
lastChange = "2023-09-01 16:06:12 +0000";
layers = (
{
anchors = (
{
name = Bottom;
position = "{334, 0}";
},
{
name = Top;
position = "{384, 714}";
}
);
layerId = "FD4D3FDD-DE85-408F-A52A-FF600B1C6101";
paths = (
{
closed = 1;
nodes = (
"29 99 OFFCURVE",
"145 -13 OFFCURVE",
"333 -13 CURVE SMOOTH",
"520 -13 OFFCURVE",
"652 97 OFFCURVE",
"664 264 CURVE SMOOTH",
"696 714 LINE",
"646 714 LINE",
"615 276 LINE SMOOTH",
"605 132 OFFCURVE",
"492 35 OFFCURVE",
"334 35 CURVE SMOOTH",
"178 36 OFFCURVE",
"81 131 OFFCURVE",
"91 274 CURVE SMOOTH",
"122 714 LINE",
"72 714 LINE",
"40 266 LINE SMOOTH"
);
}
);
width = 704;
},
{
anchors = (
{
name = Bottom;
position = "{384, 0}";
},
{
name = Top;
position = "{434, 714}";
}
);
layerId = m002;
paths = (
{
closed = 1;
nodes = (
"10 116 OFFCURVE",
"155 -13 OFFCURVE",
"386 -13 CURVE SMOOTH",
"614 -13 OFFCURVE",
"773 112 OFFCURVE",
"787 303 CURVE SMOOTH",
"816 714 LINE",
"606 714 LINE",
"576 297 LINE SMOOTH",
"571 213 OFFCURVE",
"495 155 OFFCURVE",
"389 155 CURVE SMOOTH",
"288 156 OFFCURVE",
"226 210 OFFCURVE",
"232 293 CURVE SMOOTH",
"262 714 LINE",
"52 714 LINE",
"23 307 LINE SMOOTH"
);
}
);
width = 804;
}
);
leftKerningGroup = U;
rightKerningGroup = U;
unicode = 0055;
},
{
color = 10;
glyphname = "Upsilon-latin";
lastChange = "2023-09-01 16:48:44 +0000";
layers = (
{
layerId = "FD4D3FDD-DE85-408F-A52A-FF600B1C6101";
paths = (
{
closed = 1;
nodes = (
"595 -13 OFFCURVE",
"747 134 OFFCURVE",
"747 354 CURVE SMOOTH",
"747 497 OFFCURVE",
"663 616 OFFCURVE",
"532 666 CURVE",
"759 666 LINE",
"763 714 LINE",
"468 714 LINE",
"464 666 LINE",
"604 618 OFFCURVE",
"698 491 OFFCURVE",
"698 350 CURVE SMOOTH",
"698 161 OFFCURVE",
"566 35 OFFCURVE",
"369 35 CURVE SMOOTH",
"197 35 OFFCURVE",
"83 141 OFFCURVE",
"83 301 CURVE SMOOTH",
"83 464 OFFCURVE",
"195 610 OFFCURVE",
"364 666 CURVE",
"368 714 LINE",
"73 714 LINE",
"69 666 LINE",
"294 666 LINE",
"136 609 OFFCURVE",
"34 468 OFFCURVE",
"34 297 CURVE SMOOTH",
"34 111 OFFCURVE",
"167 -13 OFFCURVE",
"367 -13 CURVE SMOOTH"
);
}
);
width = 772;
},
{
layerId = m002;
paths = (
{
closed = 1;
nodes = (
"658 -13 OFFCURVE",
"815 97 OFFCURVE",
"829 284 CURVE SMOOTH",
"837 402 OFFCURVE",
"777 493 OFFCURVE",
"664 546 CURVE",
"856 546 LINE",
"868 714 LINE",
"505 714 LINE",
"493 546 LINE",
"570 517 OFFCURVE",
"615 456 OFFCURVE",
"615 382 CURVE SMOOTH",
"615 264 OFFCURVE",
"541 194 OFFCURVE",
"416 194 CURVE SMOOTH",
"309 194 OFFCURVE",
"245 248 OFFCURVE",
"245 340 CURVE SMOOTH",
"245 435 OFFCURVE",
"300 511 OFFCURVE",
"393 546 CURVE",
"405 714 LINE",
"42 714 LINE",
"30 546 LINE",
"211 546 LINE",
"89 491 OFFCURVE",
"20 394 OFFCURVE",
"20 270 CURVE SMOOTH",
"20 92 OFFCURVE",
"163 -13 OFFCURVE",
"406 -13 CURVE SMOOTH"
);
}
);
width = 846;
}
);
leftKerningGroup = O;
leftMetricsKey = O;
rightKerningGroup = O;
rightMetricsKey = O;
unicode = 01B1;
},
{
glyphname = V;
lastChange = "2023-09-05 19:32:39 +0000";
layers = (
{
anchors = (
{
name = Bottom;
position = "{359, 0}";
},
{
name = Top;
position = "{409, 714}";
}
);
layerId = "FD4D3FDD-DE85-408F-A52A-FF600B1C6101";
paths = (
{
closed = 1;
nodes = (
"365 98 LINE",
"363 98 LINE",
"104 714 LINE",
"52 714 LINE",
"341 0 LINE",
"375 0 LINE",
"765 714 LINE",
"711 714 LINE"
);
}
);
width = 753;
},
{
anchors = (
{
name = Bottom;
position = "{449, 0}";
},
{
name = Top;
position = "{499, 714}";
}
);
layerId = m002;
paths = (
{
closed = 1;
nodes = (
"465 250 LINE",
"463 250 LINE",
"264 714 LINE",
"52 714 LINE",
"361 0 LINE",
"535 0 LINE",
"945 714 LINE",
"731 714 LINE"
);
}
);
width = 933;
}
);
leftKerningGroup = V;
leftMetricsKey = A;
rightKerningGroup = V;
rightMetricsKey = A;
unicode = 0056;
},
{
color = 10;
glyphname = "Gamma-latin";
lastChange = "2023-09-01 16:48:49 +0000";
layers = (
{
layerId = "FD4D3FDD-DE85-408F-A52A-FF600B1C6101";
paths = (
{
closed = 1;
nodes = (
"372 -13 OFFCURVE",
"447 46 OFFCURVE",
"453 135 CURVE SMOOTH",
"457 184 OFFCURVE",
"442 236 OFFCURVE",
"400 297 CURVE SMOOTH",
"327 402 LINE",
"584 714 LINE",
"526 714 LINE",
"301 439 LINE",
"110 714 LINE",
"52 714 LINE",
"271 403 LINE",
"181 293 LINE SMOOTH",
"130 230 OFFCURVE",
"105 190 OFFCURVE",
"101 135 CURVE SMOOTH",
"95 46 OFFCURVE",
"160 -13 OFFCURVE",
"264 -13 CURVE SMOOTH"
);
},
{
closed = 1;
nodes = (
"155 179 OFFCURVE",
"183 229 OFFCURVE",
"237 294 CURVE SMOOTH",
"297 366 LINE",
"350 290 LINE SMOOTH",
"395 225 OFFCURVE",
"406 185 OFFCURVE",
"403 135 CURVE SMOOTH",
"399 75 OFFCURVE",
"347 35 OFFCURVE",
"272 35 CURVE SMOOTH",
"196 35 OFFCURVE",
"147 75 OFFCURVE",
"151 135 CURVE SMOOTH"
);
}
);
width = 572;
},
{
layerId = m002;
paths = (
{
closed = 1;
nodes = (
"496 -13 OFFCURVE",
"618 80 OFFCURVE",
"629 236 CURVE SMOOTH",
"632 277 OFFCURVE",
"615 326 OFFCURVE",
"583 366 CURVE SMOOTH",
"462 509 LINE",
"649 714 LINE",
"427 714 LINE",
"353 638 LINE",
"289 714 LINE",
"65 714 LINE",
"224 504 LINE",
"87 362 LINE SMOOTH",
"49 322 OFFCURVE",
"22 273 OFFCURVE",
"18 226 CURVE SMOOTH",
"8 76 OFFCURVE",
"112 -13 OFFCURVE",
"304 -13 CURVE SMOOTH"
);
},
{
closed = 1;
nodes = (
"229 240 OFFCURVE",
"243 267 OFFCURVE",
"267 294 CURVE SMOOTH",
"330 363 LINE",
"385 290 LINE SMOOTH",
"407 263 OFFCURVE",
"419 236 OFFCURVE",
"418 213 CURVE SMOOTH",
"415 176 OFFCURVE",
"381 155 OFFCURVE",
"321 155 CURVE SMOOTH",
"261 155 OFFCURVE",
"225 180 OFFCURVE",
"228 223 CURVE SMOOTH"
);
}
);
width = 651;
}
);
leftKerningGroup = V;
leftMetricsKey = V;
rightKerningGroup = V;
rightMetricsKey = V;
unicode = 0194;
},
{
glyphname = W;
lastChange = "2023-09-01 16:06:12 +0000";
layers = (
{
anchors = (
{
name = Bottom;
position = "{480, 0}";
},
{
name = Top;
position = "{531, 714}";
}
);
layerId = "FD4D3FDD-DE85-408F-A52A-FF600B1C6101";
paths = (
{
closed = 1;
nodes = (
"199 0 LINE",
"251 0 LINE",
"524 640 LINE",
"526 640 LINE",
"711 0 LINE",
"763 0 LINE",
"1009 714 LINE",
"955 714 LINE",
"739 84 LINE",
"737 84 LINE",
"556 713 LINE",
"557 714 LINE",
"503 714 LINE",
"234 84 LINE",
"232 84 LINE",
"104 714 LINE",
"52 714 LINE"
);
}
);
width = 997;
},
{
anchors = (
{
name = Bottom;
position = "{585, 0}";
},
{
name = Top;
position = "{636, 714}";
}
);
layerId = m002;
paths = (
{
closed = 1;
nodes = (
"198 0 LINE",
"428 0 LINE",
"616 450 LINE",
"618 450 LINE",
"744 0 LINE",
"974 0 LINE",
"1220 714 LINE",
"999 714 LINE",
"850 280 LINE",
"848 280 LINE",
"727 713 LINE",
"728 714 LINE",
"542 714 LINE",
"361 280 LINE",
"359 280 LINE",
"271 714 LINE",
"52 714 LINE"
);
}
);
width = 1208;
}
);
leftKerningGroup = V;
leftMetricsKey = A;
rightKerningGroup = V;
rightMetricsKey = A;
unicode = 0057;
},
{
glyphname = X;
lastChange = "2023-09-01 16:06:12 +0000";
layers = (
{
anchors = (
{
name = Bottom;
position = "{315, 0}";
},
{
name = Top;
position = "{365, 714}";
}
);
layerId = "FD4D3FDD-DE85-408F-A52A-FF600B1C6101";
paths = (
{
closed = 1;
nodes = (
"380 357 LINE",
"693 714 LINE",
"628 714 LINE",
"351 397 LINE",
"116 714 LINE",
"53 714 LINE",
"316 358 LINE",
"2 0 LINE",
"67 0 LINE",
"345 317 LINE",
"579 0 LINE",
"645 0 LINE"
);
}
);
width = 683;
},
{
anchors = (
{
name = Bottom;
position = "{412, 0}";
},
{
name = Top;
position = "{462, 714}";
}
);
layerId = m002;
paths = (
{
closed = 1;
nodes = (
"580 356 LINE",
"868 714 LINE",
"578 714 LINE",
"448 553 LINE",
"341 714 LINE",
"53 714 LINE",
"291 358 LINE",
"2 0 LINE",
"293 0 LINE",
"423 161 LINE",
"530 0 LINE",
"817 0 LINE"
);
}
);
width = 856;
}
);
leftKerningGroup = X;
leftMetricsKey = A;
rightKerningGroup = X;
rightMetricsKey = A;
unicode = 0058;
},
{
glyphname = Y;
lastChange = "2023-09-01 16:06:12 +0000";
layers = (
{
anchors = (
{
name = Bottom;
position = "{326, 0}";
},
{
name = Top;
position = "{376, 714}";
}
);
layerId = "FD4D3FDD-DE85-408F-A52A-FF600B1C6101";
paths = (
{
closed = 1;
nodes = (
"301 0 LINE",
"351 0 LINE",
"370 273 LINE",
"699 714 LINE",
"640 714 LINE",
"349 326 LINE",
"347 326 LINE",
"109 714 LINE",
"52 714 LINE",
"320 273 LINE"
);
}
);
width = 687;
},
{
anchors = (
{
name = Bottom;
position = "{416, 0}";
},
{
name = Top;
position = "{466, 714}";
}
);
layerId = m002;
paths = (
{
closed = 1;
nodes = (
"311 0 LINE",
"521 0 LINE",
"541 273 LINE",
"880 714 LINE",
"653 714 LINE",
"447 442 LINE",
"445 442 LINE",
"277 714 LINE",
"52 714 LINE",
"331 273 LINE"
);
}
);
width = 868;
}
);
leftKerningGroup = V;
leftMetricsKey = A;
rightKerningGroup = V;
rightMetricsKey = A;
unicode = 0059;
},
{
glyphname = Z;
lastChange = "2023-09-01 16:06:12 +0000";
layers = (
{
anchors = (
{
name = Bottom;
position = "{309, 0}";
},
{
name = Top;
position = "{382, 714}";
}
);
layerId = "FD4D3FDD-DE85-408F-A52A-FF600B1C6101";
paths = (
{
closed = 1;
nodes = (
"53 714 LINE",
"49 664 LINE",
"594 664 LINE",
"-5 50 LINE",
"-8 0 LINE",
"621 0 LINE",
"624 50 LINE",
"67 50 LINE",
"666 664 LINE",
"670 714 LINE"
);
}
);
width = 649;
},
{
anchors = (
{
name = Bottom;
position = "{379, 0}";
},
{
name = Top;
position = "{443, 714}";
}
);
layerId = m002;
paths = (
{
closed = 1;
nodes = (
"64 714 LINE",
"52 546 LINE",
"499 546 LINE",
"14 168 LINE",
"3 0 LINE",
"732 0 LINE",
"743 168 LINE",
"284 168 LINE",
"769 546 LINE",
"781 714 LINE"
);
}
);
width = 770;
}
);
leftKerningGroup = Z;
rightKerningGroup = Z;
unicode = 005A;
},
{
color = 10;
glyphname = Ismall;
lastChange = "2023-09-01 16:55:16 +0000";
layers = (
{
layerId = "FD4D3FDD-DE85-408F-A52A-FF600B1C6101";
paths = (
{
closed = 1;
nodes = (
"58 520 LINE",
"55 478 LINE",
"219 478 LINE",
"189 42 LINE",
"25 42 LINE",
"22 0 LINE",
"397 0 LINE",
"400 42 LINE",
"237 42 LINE",
"267 478 LINE",
"430 478 LINE",
"433 520 LINE"
);
}
);
width = 455;
},
{
layerId = m002;
paths = (
{
closed = 1;
nodes = (
"38 520 LINE",
"28 370 LINE",
"187 370 LINE",
"171 150 LINE",
"12 150 LINE",
"2 0 LINE",
"477 0 LINE",
"487 150 LINE",
"329 150 LINE",
"345 370 LINE",
"503 370 LINE",
"513 520 LINE"
);
}
);
width = 515;
}
);
leftKerningGroup = n;
leftMetricsKey = I;
rightKerningGroup = n;
rightMetricsKey = I;
unicode = 026A;
},
{
glyphname = a;
lastChange = "2023-09-06 00:09:26 +0000";
layers = (
{
anchors = (
{
name = Bottom;
position = "{213, 0}";
},
{
name = Ogonek;
position = "{444, 0}";
},
{
name = Top;
position = "{295, 532}";
}
);
background = {
paths = (
{
closed = 1;
nodes = (
"528 297 LINE",
"408 297 LINE SMOOTH",
"264 297 OFFCURVE",
"179 236 OFFCURVE",
"179 132 CURVE SMOOTH",
"179 45 OFFCURVE",
"247 -13 OFFCURVE",
"349 -13 CURVE SMOOTH",
"433 -13 OFFCURVE",
"500 25 OFFCURVE",
"528 88 CURVE",
"530 88 LINE",
"538 0 LINE",
"576 0 LINE",
"576 364 LINE SMOOTH",
"576 470 OFFCURVE",
"512 532 OFFCURVE",
"403 532 CURVE SMOOTH",
"282 532 OFFCURVE",
"210 476 OFFCURVE",
"210 382 CURVE",
"258 382 LINE",
"258 450 OFFCURVE",
"311 490 OFFCURVE",
"401 490 CURVE SMOOTH",
"481 490 OFFCURVE",
"528 446 OFFCURVE",
"528 372 CURVE SMOOTH"
);
},
{
closed = 1;
nodes = (
"231 214 OFFCURVE",
"293 257 OFFCURVE",
"413 257 CURVE SMOOTH",
"527 257 LINE",
"527 212 LINE SMOOTH",
"527 96 OFFCURVE",
"461 28 OFFCURVE",
"349 28 CURVE SMOOTH",
"278 28 OFFCURVE",
"231 69 OFFCURVE",
"231 131 CURVE SMOOTH"
);
},
{
closed = 1;
nodes = (
"508 90 LINE",
"508 45 OFFCURVE",
"521 25 QCURVE SMOOTH",
"537 0 OFFCURVE",
"582 0 QCURVE SMOOTH",
"604 0 OFFCURVE",
"623 4 QCURVE",
"623 57 LINE",
"613 53 OFFCURVE",
"603 53 QCURVE SMOOTH",
"566 53 OFFCURVE",
"566 91 QCURVE"
);
}
);
};
layerId = "FD4D3FDD-DE85-408F-A52A-FF600B1C6101";
paths = (
{
closed = 1;
nodes = (
"294 -13 OFFCURVE",
"389 22 OFFCURVE",
"434 90 CURVE",
"437 90 LINE",
"416 0 LINE",
"479 0 LINE",
"505 379 LINE SMOOTH",
"511 470 OFFCURVE",
"427 532 OFFCURVE",
"296 532 CURVE SMOOTH",
"149 532 OFFCURVE",
"51 472 OFFCURVE",
"51 383 CURVE",
"99 381 LINE",
"99 446 OFFCURVE",
"177 490 OFFCURVE",
"295 490 CURVE SMOOTH",
"394 490 OFFCURVE",
"458 451 OFFCURVE",
"458 391 CURVE SMOOTH",
"458 326 OFFCURVE",
"361 306 OFFCURVE",
"283 289 CURVE SMOOTH",
"142 259 OFFCURVE",
"21 239 OFFCURVE",
"21 119 CURVE SMOOTH",
"21 40 OFFCURVE",
"94 -13 OFFCURVE",
"211 -13 CURVE SMOOTH"
);
},
{
closed = 1;
nodes = (
"68 208 OFFCURVE",
"172 220 OFFCURVE",
"279 244 CURVE SMOOTH",
"339 257 OFFCURVE",
"424 277 OFFCURVE",
"451 305 CURVE",
"446 233 LINE SMOOTH",
"438 111 OFFCURVE",
"334 29 OFFCURVE",
"214 29 CURVE SMOOTH",
"124 29 OFFCURVE",
"68 65 OFFCURVE",
"68 119 CURVE SMOOTH"
);
}
);
width = 537;
},
{
anchors = (
{
name = Bottom;
position = "{235, 0}";
},
{
name = Ogonek;
position = "{527, 0}";
},
{
name = Top;
position = "{354, 532}";
}
);
background = {
paths = (
{
closed = 1;
nodes = (
"472 297 LINE",
"352 297 LINE SMOOTH",
"208 297 OFFCURVE",
"123 236 OFFCURVE",
"123 132 CURVE SMOOTH",
"123 45 OFFCURVE",
"191 -13 OFFCURVE",
"293 -13 CURVE SMOOTH",
"377 -13 OFFCURVE",
"444 25 OFFCURVE",
"472 88 CURVE",
"474 88 LINE",
"482 0 LINE",
"520 0 LINE",
"520 364 LINE SMOOTH",
"520 470 OFFCURVE",
"456 532 OFFCURVE",
"347 532 CURVE SMOOTH",
"226 532 OFFCURVE",
"154 476 OFFCURVE",
"154 382 CURVE",
"202 382 LINE",
"202 450 OFFCURVE",
"255 490 OFFCURVE",
"345 490 CURVE SMOOTH",
"425 490 OFFCURVE",
"472 446 OFFCURVE",
"472 372 CURVE SMOOTH"
);
},
{
closed = 1;
nodes = (
"175 214 OFFCURVE",
"237 257 OFFCURVE",
"357 257 CURVE SMOOTH",
"471 257 LINE",
"471 212 LINE SMOOTH",
"471 96 OFFCURVE",
"405 28 OFFCURVE",
"293 28 CURVE SMOOTH",
"222 28 OFFCURVE",
"175 69 OFFCURVE",
"175 131 CURVE SMOOTH"
);
},
{
closed = 1;
nodes = (
"452 90 LINE",
"452 45 OFFCURVE",
"465 25 QCURVE SMOOTH",
"481 0 OFFCURVE",
"526 0 QCURVE SMOOTH",
"548 0 OFFCURVE",
"567 4 QCURVE",
"567 57 LINE",
"557 53 OFFCURVE",
"547 53 QCURVE SMOOTH",
"510 53 OFFCURVE",
"510 91 QCURVE"
);
}
);
};
layerId = m002;
paths = (
{
closed = 1;
nodes = (
"303 -13 OFFCURVE",
"372 7 OFFCURVE",
"412 39 CURVE",
"415 39 LINE",
"392 0 LINE",
"599 0 LINE",
"623 352 LINE SMOOTH",
"631 464 OFFCURVE",
"526 532 OFFCURVE",
"349 532 CURVE SMOOTH",
"147 532 OFFCURVE",
"28 460 OFFCURVE",
"28 339 CURVE",
"226 335 LINE",
"226 373 OFFCURVE",
"272 395 OFFCURVE",
"351 395 CURVE SMOOTH",
"384 395 OFFCURVE",
"426 385 OFFCURVE",
"426 367 CURVE SMOOTH",
"426 328 OFFCURVE",
"304 314 OFFCURVE",
"218 305 CURVE SMOOTH",
"63 284 OFFCURVE",
"2 233 OFFCURVE",
"2 136 CURVE SMOOTH",
"2 47 OFFCURVE",
"92 -13 OFFCURVE",
"239 -13 CURVE SMOOTH"
);
},
{
closed = 1;
nodes = (
"201 174 OFFCURVE",
"204 195 OFFCURVE",
"294 205 CURVE SMOOTH",
"340 212 OFFCURVE",
"398 223 OFFCURVE",
"419 239 CURVE",
"415 211 LINE SMOOTH",
"408 161 OFFCURVE",
"348 125 OFFCURVE",
"266 125 CURVE SMOOTH",
"229 125 OFFCURVE",
"201 137 OFFCURVE",
"201 155 CURVE SMOOTH"
);
}
);
width = 637;
}
);
leftKerningGroup = a;
leftMetricsKey = o;
rightKerningGroup = a;
rightMetricsKey = n;
unicode = 0061;
},
{
color = 10;
glyphname = astroke;
lastChange = "2023-09-06 01:05:58 +0000";
layers = (
{
layerId = "FD4D3FDD-DE85-408F-A52A-FF600B1C6101";
paths = (
{
closed = 1;
nodes = (
"305 -13 OFFCURVE",
"393 28 OFFCURVE",
"434 90 CURVE",
"437 90 LINE",
"416 0 LINE",
"479 0 LINE",
"505 378 LINE SMOOTH",
"509 433 OFFCURVE",
"479 478 OFFCURVE",
"426 504 CURVE",
"449 558 LINE",
"407 558 LINE",
"390 519 LINE",
"361 527 OFFCURVE",
"329 532 OFFCURVE",
"292 532 CURVE SMOOTH",
"154 532 OFFCURVE",
"58 474 OFFCURVE",
"52 384 CURVE",
"99 380 LINE",
"104 445 OFFCURVE",
"184 490 OFFCURVE",
"298 490 CURVE SMOOTH",
"326 490 OFFCURVE",
"352 487 OFFCURVE",
"373 481 CURVE",
"291 292 LINE",
"285 291 OFFCURVE",
"280 290 OFFCURVE",
"275 289 CURVE SMOOTH",
"141 259 OFFCURVE",
"29 241 OFFCURVE",
"21 132 CURVE SMOOTH",
"16 59 OFFCURVE",
"69 6 OFFCURVE",
"160 -9 CURVE",
"142 -50 LINE",
"185 -50 LINE",
"201 -13 LINE",
"214 -13 LINE SMOOTH"
);
},
{
closed = 1;
nodes = (
"74 204 OFFCURVE",
"167 219 OFFCURVE",
"268 240 CURVE",
"177 31 LINE",
"106 39 OFFCURVE",
"65 73 OFFCURVE",
"68 121 CURVE SMOOTH"
);
},
{
closed = 1;
nodes = (
"316 251 LINE",
"369 263 OFFCURVE",
"430 280 OFFCURVE",
"452 303 CURVE",
"446 234 LINE SMOOTH",
"436 115 OFFCURVE",
"337 33 OFFCURVE",
"219 29 CURVE"
);
},
{
closed = 1;
nodes = (
"409 467 LINE",
"442 449 OFFCURVE",
"460 422 OFFCURVE",
"458 389 CURVE SMOOTH",
"454 341 OFFCURVE",
"399 318 OFFCURVE",
"338 303 CURVE"
);
}
);
width = 537;
},
{
layerId = m002;
paths = (
{
closed = 1;
nodes = (
"303 -13 OFFCURVE",
"377 8 OFFCURVE",
"412 40 CURVE",
"415 40 LINE",
"392 0 LINE",
"599 0 LINE",
"623 352 LINE SMOOTH",
"629 437 OFFCURVE",
"570 496 OFFCURVE",
"465 520 CURVE",
"481 558 LINE",
"429 558 LINE",
"416 528 LINE",
"395 531 OFFCURVE",
"373 532 OFFCURVE",
"349 532 CURVE SMOOTH",
"154 532 OFFCURVE",
"37 462 OFFCURVE",
"28 339 CURVE",
"226 335 LINE",
"229 371 OFFCURVE",
"258 394 OFFCURVE",
"354 395 CURVE SMOOTH",
"355 395 OFFCURVE",
"357 395 OFFCURVE",
"358 395 CURVE",
"325 319 LINE",
"290 313 OFFCURVE",
"251 309 OFFCURVE",
"218 305 CURVE SMOOTH",
"69 285 OFFCURVE",
"8 237 OFFCURVE",
"2 146 CURVE SMOOTH",
"-4 64 OFFCURVE",
"64 5 OFFCURVE",
"182 -10 CURVE",
"164 -50 LINE",
"217 -50 LINE",
"233.08 -12.967 LINE",
"239 -13 LINE SMOOTH"
);
},
{
closed = 1;
nodes = (
"202 174 OFFCURVE",
"206 192 OFFCURVE",
"274 202 CURVE",
"241 127 LINE",
"216 131 OFFCURVE",
"199 142 OFFCURVE",
"201 157 CURVE SMOOTH"
);
},
{
closed = 1;
nodes = (
"330 211 LINE",
"367 218 OFFCURVE",
"403 227 OFFCURVE",
"419 239 CURVE",
"415 211 LINE SMOOTH",
"409 167 OFFCURVE",
"362 133 OFFCURVE",
"294 126 CURVE"
);
},
{
closed = 1;
nodes = (
"407 387 LINE",
"419 382 OFFCURVE",
"427 374 OFFCURVE",
"426 365 CURVE SMOOTH",
"425 351 OFFCURVE",
"408 341 OFFCURVE",
"383 333 CURVE"
);
}
);
width = 637;
}
);
leftKerningGroup = a;
leftMetricsKey = a;
rightKerningGroup = a;
rightMetricsKey = a;
unicode = 2C65;
},
{
color = 10;
glyphname = ae;
lastChange = "2023-09-01 16:27:51 +0000";
layers = (
{
anchors = (
{
name = Top;
position = "{515, 532}";
}
);
layerId = "FD4D3FDD-DE85-408F-A52A-FF600B1C6101";
paths = (
{
closed = 1;
nodes = (
"294 -13 OFFCURVE",
"390 22 OFFCURVE",
"435 90 CURVE",
"437 91 LINE",
"416 0 LINE",
"479 0 LINE",
"488 126 LINE",
"528 39 OFFCURVE",
"617 -13 OFFCURVE",
"738 -13 CURVE SMOOTH",
"883 -13 OFFCURVE",
"998 55 OFFCURVE",
"1024 158 CURVE",
"976 160 LINE",
"954 82 OFFCURVE",
"860 29 OFFCURVE",
"741 29 CURVE SMOOTH",
"604 29 OFFCURVE",
"512 114 OFFCURVE",
"512 241 CURVE SMOOTH",
"512 256 LINE",
"1036 256 LINE",
"1038 297 LINE SMOOTH",
"1048 438 OFFCURVE",
"940 532 OFFCURVE",
"768 532 CURVE SMOOTH",
"650 532 OFFCURVE",
"556 481 OFFCURVE",
"505 396 CURVE",
"500 478 OFFCURVE",
"418 532 OFFCURVE",
"295 532 CURVE SMOOTH",
"155 532 OFFCURVE",
"58 473 OFFCURVE",
"51 383 CURVE",
"99 381 LINE",
"104 446 OFFCURVE",
"181 490 OFFCURVE",
"294 490 CURVE SMOOTH",
"393 490 OFFCURVE",
"458 451 OFFCURVE",
"458 390 CURVE SMOOTH",
"458 326 OFFCURVE",
"361 305 OFFCURVE",
"283 289 CURVE SMOOTH",
"142 259 OFFCURVE",
"21 239 OFFCURVE",
"21 119 CURVE SMOOTH",
"21 40 OFFCURVE",
"94 -13 OFFCURVE",
"211 -13 CURVE SMOOTH"
);
},
{
closed = 1;
nodes = (
"68 208 OFFCURVE",
"172 220 OFFCURVE",
"279 244 CURVE SMOOTH",
"339 257 OFFCURVE",
"424 277 OFFCURVE",
"451 305 CURVE",
"446 233 LINE SMOOTH",
"438 111 OFFCURVE",
"334 29 OFFCURVE",
"214 29 CURVE SMOOTH",
"124 29 OFFCURVE",
"68 65 OFFCURVE",
"68 119 CURVE SMOOTH"
);
},
{
closed = 1;
nodes = (
"540 415 OFFCURVE",
"635 490 OFFCURVE",
"768 490 CURVE SMOOTH",
"910 490 OFFCURVE",
"998 413 OFFCURVE",
"991 298 CURVE",
"517 298 LINE"
);
}
);
width = 1066;
},
{
anchors = (
{
name = Top;
position = "{585, 532}";
}
);
layerId = m002;
paths = (
{
closed = 1;
nodes = (
"303 -13 OFFCURVE",
"378 6 OFFCURVE",
"413 38 CURVE SMOOTH",
"415 40 LINE",
"392 0 LINE",
"599 0 LINE",
"604 78 LINE",
"661 19 OFFCURVE",
"755 -13 OFFCURVE",
"881 -13 CURVE SMOOTH",
"1066 -13 OFFCURVE",
"1193 55 OFFCURVE",
"1225 173 CURVE",
"1026 177 LINE",
"1016 145 OFFCURVE",
"964 124 OFFCURVE",
"889 124 CURVE SMOOTH",
"816 124 OFFCURVE",
"769 157 OFFCURVE",
"758 214 CURVE",
"1223 214 LINE",
"1225 260 LINE",
"1226 260 LINE",
"1238 431 OFFCURVE",
"1120 532 OFFCURVE",
"907 532 CURVE SMOOTH",
"774 532 OFFCURVE",
"671 494 OFFCURVE",
"610 425 CURVE",
"576 493 OFFCURVE",
"483 532 OFFCURVE",
"349 532 CURVE SMOOTH",
"154 532 OFFCURVE",
"37 462 OFFCURVE",
"28 339 CURVE",
"226 335 LINE",
"229 371 OFFCURVE",
"259 395 OFFCURVE",
"360 395 CURVE SMOOTH",
"393 395 OFFCURVE",
"426 385 OFFCURVE",
"426 367 CURVE SMOOTH",
"426 328 OFFCURVE",
"304 314 OFFCURVE",
"218 305 CURVE SMOOTH",
"63 284 OFFCURVE",
"2 233 OFFCURVE",
"2 136 CURVE SMOOTH",
"2 47 OFFCURVE",
"92 -13 OFFCURVE",
"239 -13 CURVE SMOOTH"
);
},
{
closed = 1;
nodes = (
"201 174 OFFCURVE",
"204 195 OFFCURVE",
"294 205 CURVE SMOOTH",
"340 212 OFFCURVE",
"398 223 OFFCURVE",
"419 239 CURVE",
"415 211 LINE SMOOTH",
"408 161 OFFCURVE",
"348 125 OFFCURVE",
"266 125 CURVE SMOOTH",
"229 125 OFFCURVE",
"201 137 OFFCURVE",
"201 155 CURVE SMOOTH"
);
},
{
closed = 1;
nodes = (
"793 366 OFFCURVE",
"841 395 OFFCURVE",
"907 395 CURVE SMOOTH",
"970 395 OFFCURVE",
"1010 366 OFFCURVE",
"1019 315 CURVE",
"770 314 LINE"
);
}
);
width = 1241;
}
);
leftKerningGroup = a;
leftMetricsKey = a;
rightKerningGroup = o;
rightMetricsKey = e;
unicode = 00E6;
},
{
glyphname = b;
lastChange = "2023-09-06 00:10:54 +0000";
layers = (
{
anchors = (
{
name = Top;
position = "{353, 532}";
}
);
layerId = "FD4D3FDD-DE85-408F-A52A-FF600B1C6101";
paths = (
{
closed = 1;
nodes = (
"493 -13 OFFCURVE",
"619 105 OFFCURVE",
"619 283 CURVE SMOOTH",
"619 432 OFFCURVE",
"514 532 OFFCURVE",
"356 532 CURVE SMOOTH",
"248 532 OFFCURVE",
"145 482 OFFCURVE",
"96 411 CURVE",
"93 411 LINE",
"106 520 LINE",
"121 736 LINE",
"73 736 LINE",
"22 0 LINE",
"85 0 LINE",
"74 98 LINE",
"77 98 LINE",
"118 28 OFFCURVE",
"203 -13 OFFCURVE",
"305 -13 CURVE SMOOTH"
);
},
{
closed = 1;
nodes = (
"87 390 OFFCURVE",
"192 490 OFFCURVE",
"349 490 CURVE SMOOTH",
"482 490 OFFCURVE",
"571 407 OFFCURVE",
"571 283 CURVE SMOOTH",
"571 131 OFFCURVE",
"465 29 OFFCURVE",
"305 29 CURVE SMOOTH",
"174 29 OFFCURVE",
"87 113 OFFCURVE",
"87 239 CURVE SMOOTH"
);
}
);
width = 648;
},
{
anchors = (
{
name = Top;
position = "{395, 532}";
}
);
layerId = m002;
paths = (
{
closed = 1;
nodes = (
"581 -13 OFFCURVE",
"703 96 OFFCURVE",
"703 281 CURVE SMOOTH",
"703 439 OFFCURVE",
"590 532 OFFCURVE",
"399 532 CURVE SMOOTH",
"332 532 OFFCURVE",
"270 517 OFFCURVE",
"232 497 CURVE",
"230 497 LINE",
"238 549 LINE",
"251 736 LINE",
"53 736 LINE",
"2 0 LINE",
"209 0 LINE",
"191 38 LINE",
"195 38 LINE",
"225 5 OFFCURVE",
"292 -13 OFFCURVE",
"374 -13 CURVE SMOOTH"
);
},
{
closed = 1;
nodes = (
"217 341 OFFCURVE",
"274 400 OFFCURVE",
"370 400 CURVE SMOOTH",
"449 400 OFFCURVE",
"495 356 OFFCURVE",
"495 281 CURVE SMOOTH",
"495 180 OFFCURVE",
"438 121 OFFCURVE",
"342 121 CURVE SMOOTH",
"263 121 OFFCURVE",
"217 166 OFFCURVE",
"217 241 CURVE SMOOTH"
);
}
);
width = 713;
}
);
leftKerningGroup = n;
leftMetricsKey = n;
rightKerningGroup = o;
rightMetricsKey = o;
unicode = 0062;
},
{
glyphname = c;
lastChange = "2023-09-01 16:16:05 +0000";
layers = (
{
anchors = (
{
name = Bottom;
position = "{298, 0}";
},
{
name = Top;
position = "{345, 532}";
}
);
layerId = "FD4D3FDD-DE85-408F-A52A-FF600B1C6101";
paths = (
{
closed = 1;
nodes = (
"518 156 LINE",
"503 80 OFFCURVE",
"415 29 OFFCURVE",
"298 29 CURVE SMOOTH",
"165 29 OFFCURVE",
"77 112 OFFCURVE",
"77 237 CURVE SMOOTH",
"77 389 OFFCURVE",
"179 490 OFFCURVE",
"333 490 CURVE SMOOTH",
"452 490 OFFCURVE",
"535 439 OFFCURVE",
"541 362 CURVE",
"589 360 LINE",
"585 463 OFFCURVE",
"483 532 OFFCURVE",
"334 532 CURVE SMOOTH",
"163 532 OFFCURVE",
"41 423 OFFCURVE",
"30 260 CURVE SMOOTH",
"18 96 OFFCURVE",
"125 -13 OFFCURVE",
"298 -13 CURVE SMOOTH",
"442 -13 OFFCURVE",
"549 54 OFFCURVE",
"566 154 CURVE"
);
}
);
width = 612;
},
{
anchors = (
{
name = Bottom;
position = "{332, 0}";
},
{
name = Top;
position = "{372, 532}";
}
);
layerId = m002;
paths = (
{
closed = 1;
nodes = (
"468 212 LINE",
"461 172 OFFCURVE",
"414 149 OFFCURVE",
"342 149 CURVE SMOOTH",
"259 149 OFFCURVE",
"213 188 OFFCURVE",
"217 254 CURVE SMOOTH",
"222 327 OFFCURVE",
"277 370 OFFCURVE",
"366 370 CURVE SMOOTH",
"438 370 OFFCURVE",
"481 347 OFFCURVE",
"483 308 CURVE",
"691 304 LINE",
"685 447 OFFCURVE",
"565 532 OFFCURVE",
"368 532 CURVE SMOOTH",
"155 532 OFFCURVE",
"22 432 OFFCURVE",
"10 264 CURVE SMOOTH",
"-2 90 OFFCURVE",
"118 -13 OFFCURVE",
"334 -13 CURVE SMOOTH",
"525 -13 OFFCURVE",
"652 69 OFFCURVE",
"676 208 CURVE"
);
}
);
width = 698;
}
);
leftKerningGroup = o;
leftMetricsKey = o;
rightKerningGroup = c;
rightMetricsKey = o;
unicode = 0063;
},
{
color = 10;
glyphname = "chi-latin";
lastChange = "2023-09-01 16:55:20 +0000";
layers = (
{
layerId = "FD4D3FDD-DE85-408F-A52A-FF600B1C6101";
paths = (
{
closed = 1;
nodes = (
"384 151 LINE",
"649 520 LINE",
"594 520 LINE",
"359 194 LINE",
"246 393 LINE SMOOTH",
"198 478 OFFCURVE",
"161 532 OFFCURVE",
"86 532 CURVE SMOOTH",
"70 532 OFFCURVE",
"52 529 OFFCURVE",
"38 524 CURVE",
"35 476 LINE",
"47 482 OFFCURVE",
"69 485 OFFCURVE",
"89 485 CURVE SMOOTH",
"136 485 OFFCURVE",
"160 449 OFFCURVE",
"192 395 CURVE SMOOTH",
"330 153 LINE",
"63 -217 LINE",
"119 -217 LINE",
"354 110 LINE",
"471 -94 LINE SMOOTH",
"518 -178 OFFCURVE",
"550 -233 OFFCURVE",
"626 -233 CURVE SMOOTH",
"641 -233 OFFCURVE",
"659 -230 OFFCURVE",
"673 -225 CURVE",
"676 -177 LINE",
"664 -183 OFFCURVE",
"642 -186 OFFCURVE",
"622 -186 CURVE SMOOTH",
"575 -186 OFFCURVE",
"556 -150 OFFCURVE",
"525 -96 CURVE SMOOTH"
);
}
);
width = 727;
},
{
layerId = m002;
paths = (
{
closed = 1;
nodes = (
"505 156 LINE",
"797 520 LINE",
"569 520 LINE",
"386 292 LINE",
"326 361 LINE SMOOTH",
"234 466 OFFCURVE",
"167 532 OFFCURVE",
"87 532 CURVE SMOOTH",
"67 532 OFFCURVE",
"47 531 OFFCURVE",
"28 522 CURVE",
"20 360 LINE",
"26 363 OFFCURVE",
"36 365 OFFCURVE",
"47 365 CURVE SMOOTH",
"72 365 OFFCURVE",
"97 345 OFFCURVE",
"131 307 CURVE SMOOTH",
"271 147 LINE",
"-21 -217 LINE",
"206 -217 LINE",
"389 11 LINE",
"453 -62 LINE SMOOTH",
"544 -167 OFFCURVE",
"632 -233 OFFCURVE",
"691 -233 CURVE SMOOTH",
"714 -233 OFFCURVE",
"736 -230 OFFCURVE",
"750 -223 CURVE",
"758 -61 LINE",
"753 -64 OFFCURVE",
"744 -66 OFFCURVE",
"730 -66 CURVE SMOOTH",
"706 -66 OFFCURVE",
"681 -46 OFFCURVE",
"648 -8 CURVE SMOOTH"
);
}
);
width = 794;
}
);
leftKerningGroup = x;
leftMetricsKey = x;
rightKerningGroup = x;
rightMetricsKey = x;
unicode = AB53;
},
{
color = 10;
glyphname = cstroke;
lastChange = "2023-09-01 17:00:26 +0000";
layers = (
{
layerId = "FD4D3FDD-DE85-408F-A52A-FF600B1C6101";
paths = (
{
closed = 1;
nodes = (
"518 156 LINE",
"503 80 OFFCURVE",
"415 29 OFFCURVE",
"298 29 CURVE SMOOTH",
"278 29 OFFCURVE",
"259 31 OFFCURVE",
"241 35 CURVE",
"433 476 LINE",
"497 455 OFFCURVE",
"537 415 OFFCURVE",
"541 362 CURVE",
"589 360 LINE",
"586 433 OFFCURVE",
"534 489 OFFCURVE",
"450 515 CURVE",
"469 558 LINE",
"427 558 LINE",
"413 525 LINE",
"388 530 OFFCURVE",
"362 532 OFFCURVE",
"334 532 CURVE SMOOTH",
"151 532 OFFCURVE",
"29 413 OFFCURVE",
"29 235 CURVE SMOOTH",
"29 124 OFFCURVE",
"89 40 OFFCURVE",
"187 5 CURVE",
"163 -50 LINE",
"204 -50 LINE",
"223 -5 LINE",
"247 -10 OFFCURVE",
"272 -13 OFFCURVE",
"298 -13 CURVE SMOOTH",
"442 -13 OFFCURVE",
"549 54 OFFCURVE",
"566 154 CURVE"
);
},
{
closed = 1;
nodes = (
"77 389 OFFCURVE",
"179 490 OFFCURVE",
"333 490 CURVE SMOOTH",
"355 490 OFFCURVE",
"376 488 OFFCURVE",
"395 485 CURVE",
"204 45 LINE",
"125 75 OFFCURVE",
"77 144 OFFCURVE",
"77 237 CURVE SMOOTH"
);
}
);
width = 612;
},
{
layerId = m002;
paths = (
{
closed = 1;
nodes = (
"469 212 LINE",
"460 168 OFFCURVE",
"409 139 OFFCURVE",
"342 139 CURVE",
"338 139 OFFCURVE",
"334 139 OFFCURVE",
"330 139 CURVE",
"430 370 LINE",
"463 358 OFFCURVE",
"483 336 OFFCURVE",
"485 308 CURVE",
"692 304 LINE",
"687 408 OFFCURVE",
"612 485 OFFCURVE",
"494 517 CURVE",
"512 558 LINE",
"460 558 LINE",
"446 526 LINE",
"422 530 OFFCURVE",
"396 532 OFFCURVE",
"369 532 CURVE SMOOTH",
"154 532 OFFCURVE",
"10 417 OFFCURVE",
"10 245 CURVE SMOOTH",
"10 124 OFFCURVE",
"89 34 OFFCURVE",
"217 1 CURVE",
"195 -50 LINE",
"248 -50 LINE",
"266 -8 LINE",
"288 -11 OFFCURVE",
"310.994 -13 OFFCURVE",
"335 -13 CURVE SMOOTH",
"517 -13 OFFCURVE",
"654 75 OFFCURVE",
"677 208 CURVE"
);
},
{
closed = 1;
nodes = (
"224 330 OFFCURVE",
"285 380 OFFCURVE",
"370 380 CURVE SMOOTH",
"372 380 OFFCURVE",
"374 380 OFFCURVE",
"382 380 CURVE",
"282 150 LINE",
"240 167 OFFCURVE",
"215 205 OFFCURVE",
"218 254 CURVE SMOOTH"
);
}
);
width = 699;
}
);
leftKerningGroup = o;
leftMetricsKey = c;
rightKerningGroup = c;
rightMetricsKey = c;
unicode = 023C;
},
{
glyphname = d;
lastChange = "2023-09-06 00:12:07 +0000";
layers = (
{
anchors = (
{
name = Bottom;
position = "{318, 0}";
},
{
name = Top;
position = "{343, 532}";
},
{
name = Top_EC;
position = "{685, 532}";
}
);
layerId = "FD4D3FDD-DE85-408F-A52A-FF600B1C6101";
paths = (
{
closed = 1;
nodes = (
"402 -13 OFFCURVE",
"491 28 OFFCURVE",
"546 97 CURVE",
"549 97 LINE",
"527 0 LINE",
"590 0 LINE",
"641 736 LINE",
"593 736 LINE",
"578 520 LINE",
"575 411 LINE",
"572 411 LINE",
"533 484 OFFCURVE",
"436 532 OFFCURVE",
"328 532 CURVE SMOOTH",
"149 532 OFFCURVE",
"29 414 OFFCURVE",
"29 238 CURVE SMOOTH",
"29 87 OFFCURVE",
"140 -13 OFFCURVE",
"307 -13 CURVE SMOOTH"
);
},
{
closed = 1;
nodes = (
"77 390 OFFCURVE",
"179 490 OFFCURVE",
"333 490 CURVE SMOOTH",
"470 490 OFFCURVE",
"561 407 OFFCURVE",
"561 282 CURVE SMOOTH",
"561 130 OFFCURVE",
"459 29 OFFCURVE",
"307 29 CURVE SMOOTH",
"169 29 OFFCURVE",
"77 113 OFFCURVE",
"77 240 CURVE SMOOTH"
);
}
);
width = 648;
},
{
anchors = (
{
name = Bottom;
position = "{364, 0}";
},
{
name = Top;
position = "{376, 532}";
},
{
name = Top_EC;
position = "{804, 500}";
}
);
layerId = m002;
paths = (
{
closed = 1;
nodes = (
"387 -13 OFFCURVE",
"458 7 OFFCURVE",
"488 37 CURVE",
"491 37 LINE",
"468 0 LINE",
"675 0 LINE",
"726 736 LINE",
"528 736 LINE",
"515 549 LINE",
"516 486 LINE",
"513 486 LINE",
"477 514 OFFCURVE",
"411 532 OFFCURVE",
"349 532 CURVE SMOOTH",
"146 532 OFFCURVE",
"10 417 OFFCURVE",
"10 245 CURVE SMOOTH",
"10 90 OFFCURVE",
"130 -13 OFFCURVE",
"309 -13 CURVE SMOOTH"
);
},
{
closed = 1;
nodes = (
"219 337 OFFCURVE",
"280 400 OFFCURVE",
"371 400 CURVE SMOOTH",
"445 400 OFFCURVE",
"495 352 OFFCURVE",
"495 279 CURVE SMOOTH",
"495 184 OFFCURVE",
"434 121 OFFCURVE",
"343 121 CURVE SMOOTH",
"269 121 OFFCURVE",
"219 170 OFFCURVE",
"219 243 CURVE SMOOTH"
);
}
);
width = 713;
}
);
leftKerningGroup = o;
leftMetricsKey = o;
rightKerningGroup = n;
rightMetricsKey = n;
unicode = 0064;
},
{
color = 10;
glyphname = eth;
lastChange = "2023-09-01 16:28:07 +0000";
layers = (
{
layerId = "FD4D3FDD-DE85-408F-A52A-FF600B1C6101";
paths = (
{
closed = 1;
nodes = (
"469 -12 OFFCURVE",
"591 120 OFFCURVE",
"591 318 CURVE SMOOTH",
"591 446 OFFCURVE",
"531 565 OFFCURVE",
"432 648 CURVE",
"503 704 LINE",
"481 731 LINE",
"404 670 LINE",
"369 695 OFFCURVE",
"330 715 OFFCURVE",
"288 731 CURVE",
"259 695 LINE",
"297 682 OFFCURVE",
"334 663 OFFCURVE",
"367 640 CURVE",
"297 585 LINE",
"317 559 LINE",
"394 619 LINE",
"450 574 OFFCURVE",
"494 516 OFFCURVE",
"515 455 CURVE",
"512 453 LINE",
"473 500 OFFCURVE",
"397 532 OFFCURVE",
"322 532 CURVE SMOOTH",
"146 532 OFFCURVE",
"29 413 OFFCURVE",
"29 234 CURVE SMOOTH",
"29 86 OFFCURVE",
"132 -12 OFFCURVE",
"286 -12 CURVE SMOOTH"
);
},
{
closed = 1;
nodes = (
"77 389 OFFCURVE",
"175 490 OFFCURVE",
"321 490 CURVE SMOOTH",
"448 490 OFFCURVE",
"533 407 OFFCURVE",
"533 283 CURVE SMOOTH",
"533 131 OFFCURVE",
"435 30 OFFCURVE",
"287 30 CURVE SMOOTH",
"161 30 OFFCURVE",
"77 113 OFFCURVE",
"77 237 CURVE SMOOTH"
);
}
);
width = 618;
},
{
layerId = m002;
paths = (
{
closed = 1;
nodes = (
"515 -12 OFFCURVE",
"652 118 OFFCURVE",
"652 314 CURVE SMOOTH",
"652 450 OFFCURVE",
"581 578 OFFCURVE",
"464 666 CURVE",
"520 710 LINE",
"464 777 LINE",
"386 715 LINE",
"360 729 OFFCURVE",
"333 741 OFFCURVE",
"304 751 CURVE",
"219 648 LINE",
"238 641 OFFCURVE",
"256 634 OFFCURVE",
"273 626 CURVE",
"242 601 LINE",
"297 535 LINE",
"355 580 LINE",
"385 560 OFFCURVE",
"412 537 OFFCURVE",
"433 514 CURVE",
"431 512 LINE",
"406 527 OFFCURVE",
"371 532 OFFCURVE",
"339 532 CURVE SMOOTH",
"142 532 OFFCURVE",
"10 416 OFFCURVE",
"10 242 CURVE SMOOTH",
"10 90 OFFCURVE",
"130 -12 OFFCURVE",
"310 -12 CURVE SMOOTH"
);
},
{
closed = 1;
nodes = (
"178 332 OFFCURVE",
"242 390 OFFCURVE",
"338 390 CURVE SMOOTH",
"419 390 OFFCURVE",
"473 344 OFFCURVE",
"473 275 CURVE SMOOTH",
"473 188 OFFCURVE",
"408 130 OFFCURVE",
"311 130 CURVE SMOOTH",
"231 130 OFFCURVE",
"178 176 OFFCURVE",
"178 245 CURVE SMOOTH"
);
}
);
width = 659;
}
);
leftKerningGroup = o;
leftMetricsKey = d;
rightKerningGroup = o;
rightMetricsKey = o;
unicode = 00F0;
},
{
color = 10;
glyphname = dcroat;
lastChange = "2023-09-01 16:40:36 +0000";
layers = (
{
layerId = "FD4D3FDD-DE85-408F-A52A-FF600B1C6101";
paths = (
{
closed = 1;
nodes = (
"401 -13 OFFCURVE",
"497 31 OFFCURVE",
"547 97 CURVE",
"549 98 LINE",
"527 0 LINE",
"590 0 LINE",
"633 619 LINE",
"726 619 LINE",
"729 664 LINE",
"636 659 LINE",
"641 736 LINE",
"593 736 LINE",
"588 661 LINE",
"454 661 LINE",
"451 619 LINE",
"585 619 LINE",
"578 520 LINE",
"575 412 LINE",
"573 411 LINE",
"534 484 OFFCURVE",
"436 532 OFFCURVE",
"328 532 CURVE SMOOTH",
"149 532 OFFCURVE",
"29 414 OFFCURVE",
"29 238 CURVE SMOOTH",
"29 87 OFFCURVE",
"140 -13 OFFCURVE",
"307 -13 CURVE SMOOTH"
);
},
{
closed = 1;
nodes = (
"77 390 OFFCURVE",
"179 490 OFFCURVE",
"333 490 CURVE SMOOTH",
"470 490 OFFCURVE",
"561 407 OFFCURVE",
"561 282 CURVE SMOOTH",
"561 130 OFFCURVE",
"459 29 OFFCURVE",
"307 29 CURVE SMOOTH",
"169 29 OFFCURVE",
"77 113 OFFCURVE",
"77 240 CURVE SMOOTH"
);
}
);
width = 741;
},
{
layerId = m002;
paths = (
{
closed = 1;
nodes = (
"387 -13 OFFCURVE",
"459 5 OFFCURVE",
"489 35 CURVE SMOOTH",
"491 37 LINE",
"468 0 LINE",
"675 0 LINE",
"716 587 LINE",
"789 587 LINE",
"796 690 LINE",
"722 685 LINE",
"726 736 LINE",
"528 736 LINE",
"525 687 LINE",
"451 687 LINE",
"444 587 LINE",
"518 587 LINE",
"515 549 LINE",
"516 487 LINE",
"514 486 LINE",
"478 514 OFFCURVE",
"411 532 OFFCURVE",
"349 532 CURVE SMOOTH",
"146 532 OFFCURVE",
"10 417 OFFCURVE",
"10 245 CURVE SMOOTH",
"10 90 OFFCURVE",
"130 -13 OFFCURVE",
"309 -13 CURVE SMOOTH"
);
},
{
closed = 1;
nodes = (
"219 337 OFFCURVE",
"280 400 OFFCURVE",
"371 400 CURVE SMOOTH",
"445 400 OFFCURVE",
"495 352 OFFCURVE",
"495 279 CURVE SMOOTH",
"495 184 OFFCURVE",
"434 121 OFFCURVE",
"343 121 CURVE SMOOTH",
"269 121 OFFCURVE",
"219 170 OFFCURVE",
"219 243 CURVE SMOOTH"
);
}
);
width = 786;
}
);
leftKerningGroup = o;
leftMetricsKey = o;
rightKerningGroup = dcroat;
rightMetricsKey = n;
unicode = 0111;
},
{
glyphname = e;
lastChange = "2023-09-01 23:39:51 +0000";
layers = (
{
anchors = (
{
name = Bottom;
position = "{305, 0}";
},
{
name = Top;
position = "{344, 532}";
}
);
layerId = "FD4D3FDD-DE85-408F-A52A-FF600B1C6101";
paths = (
{
closed = 1;
nodes = (
"541 160 LINE",
"519 81 OFFCURVE",
"425 29 OFFCURVE",
"306 29 CURVE SMOOTH",
"169 29 OFFCURVE",
"77 114 OFFCURVE",
"77 256 CURVE",
"601 256 LINE",
"603 297 LINE SMOOTH",
"613 438 OFFCURVE",
"505 532 OFFCURVE",
"333 532 CURVE SMOOTH",
"162 532 OFFCURVE",
"41 425 OFFCURVE",
"30 264 CURVE SMOOTH",
"18 98 OFFCURVE",
"127 -13 OFFCURVE",
"303 -13 CURVE SMOOTH",
"449 -13 OFFCURVE",
"563 55 OFFCURVE",
"589 158 CURVE"
);
},
{
closed = 1;
nodes = (
"105 415 OFFCURVE",
"200 490 OFFCURVE",
"333 490 CURVE SMOOTH",
"475 490 OFFCURVE",
"563 413 OFFCURVE",
"556 298 CURVE",
"82 298 LINE"
);
}
);
width = 631;
},
{
anchors = (
{
name = Bottom;
position = "{348, 0}";
},
{
name = Top;
position = "{377, 532}";
}
);
layerId = m002;
paths = (
{
closed = 1;
nodes = (
"492 177 LINE",
"482 144 OFFCURVE",
"431 124 OFFCURVE",
"355 124 CURVE SMOOTH",
"282 124 OFFCURVE",
"235 157 OFFCURVE",
"224 214 CURVE",
"689 214 LINE",
"691 263 LINE SMOOTH",
"699 432 OFFCURVE",
"581 532 OFFCURVE",
"373 532 CURVE SMOOTH",
"157 532 OFFCURVE",
"22 432 OFFCURVE",
"10 264 CURVE SMOOTH",
"-2 90 OFFCURVE",
"123 -13 OFFCURVE",
"347 -13 CURVE SMOOTH",
"531 -13 OFFCURVE",
"659 56 OFFCURVE",
"691 173 CURVE"
);
},
{
closed = 1;
nodes = (
"259 366 OFFCURVE",
"307 395 OFFCURVE",
"373 395 CURVE SMOOTH",
"436 395 OFFCURVE",
"476 366 OFFCURVE",
"485 315 CURVE",
"236 314 LINE"
);
}
);
width = 707;
}
);
leftKerningGroup = o;
leftMetricsKey = o;
rightKerningGroup = o;
rightMetricsKey = o;
unicode = 0065;
},
{
color = 10;
glyphname = eopen;
lastChange = "2023-09-01 16:52:53 +0000";
layers = (
{
layerId = "FD4D3FDD-DE85-408F-A52A-FF600B1C6101";
paths = (
{
closed = 1;
nodes = (
"74 208 OFFCURVE",
"126 250 OFFCURVE",
"209 250 CURVE SMOOTH",
"282 250 LINE",
"285 292 LINE",
"208 292 LINE SMOOTH",
"138 292 OFFCURVE",
"99 327 OFFCURVE",
"104 386 CURVE SMOOTH",
"108 451 OFFCURVE",
"168 490 OFFCURVE",
"266 490 CURVE SMOOTH",
"365 490 OFFCURVE",
"421 452 OFFCURVE",
"417 388 CURVE",
"464 384 LINE",
"471 477 OFFCURVE",
"397 532 OFFCURVE",
"265 532 CURVE SMOOTH",
"140 532 OFFCURVE",
"62 479 OFFCURVE",
"56 390 CURVE SMOOTH",
"52 332 OFFCURVE",
"75 288 OFFCURVE",
"118 273 CURVE",
"118 270 LINE",
"63 259 OFFCURVE",
"27 211 OFFCURVE",
"22 142 CURVE SMOOTH",
"15 45 OFFCURVE",
"92 -13 OFFCURVE",
"229 -13 CURVE SMOOTH",
"363 -13 OFFCURVE",
"446 42 OFFCURVE",
"453 136 CURVE",
"405 140 LINE",
"401 70 OFFCURVE",
"335 29 OFFCURVE",
"227 29 CURVE SMOOTH",
"123 29 OFFCURVE",
"64 69 OFFCURVE",
"69 138 CURVE SMOOTH"
);
}
);
width = 492;
},
{
layerId = m002;
paths = (
{
closed = 1;
nodes = (
"215 206 OFFCURVE",
"234 220 OFFCURVE",
"260 220 CURVE SMOOTH",
"323 220 LINE",
"330 316 LINE",
"262 316 LINE SMOOTH",
"249 316 OFFCURVE",
"241 326 OFFCURVE",
"242 340 CURVE SMOOTH",
"244 361 OFFCURVE",
"276 375 OFFCURVE",
"321 375 CURVE SMOOTH",
"366 375 OFFCURVE",
"395 358 OFFCURVE",
"393 333 CURVE",
"601 329 LINE",
"609 451 OFFCURVE",
"500 532 OFFCURVE",
"328 532 CURVE SMOOTH",
"160 532 OFFCURVE",
"44 466 OFFCURVE",
"36 366 CURVE SMOOTH",
"33 323 OFFCURVE",
"51 286 OFFCURVE",
"80 273 CURVE",
"80 271 LINE",
"37 257 OFFCURVE",
"7 217 OFFCURVE",
"4 171 CURVE SMOOTH",
"-4 61 OFFCURVE",
"109 -13 OFFCURVE",
"287 -13 CURVE SMOOTH",
"470 -13 OFFCURVE",
"597 70 OFFCURVE",
"606 194 CURVE",
"399 198 LINE",
"396 166 OFFCURVE",
"354 144 OFFCURVE",
"293 144 CURVE SMOOTH",
"244 144 OFFCURVE",
"212 160 OFFCURVE",
"213 184 CURVE SMOOTH"
);
}
);
width = 621;
}
);
leftKerningGroup = o;
leftMetricsKey = o;
rightKerningGroup = o;
rightMetricsKey = o;
unicode = 025B;
},
{
color = 10;
glyphname = schwa;
lastChange = "2023-09-01 16:43:52 +0000";
layers = (
{
layerId = "FD4D3FDD-DE85-408F-A52A-FF600B1C6101";
paths = (
{
closed = 1;
nodes = (
"90 359 LINE",
"111 438 OFFCURVE",
"205 490 OFFCURVE",
"324 490 CURVE SMOOTH",
"468 490 OFFCURVE",
"559 400 OFFCURVE",
"553 263 CURVE",
"30 263 LINE",
"27 222 LINE SMOOTH",
"17 81 OFFCURVE",
"125 -13 OFFCURVE",
"298 -13 CURVE SMOOTH",
"468 -13 OFFCURVE",
"589 94 OFFCURVE",
"600 255 CURVE SMOOTH",
"612 421 OFFCURVE",
"503 532 OFFCURVE",
"327 532 CURVE SMOOTH",
"182 532 OFFCURVE",
"68 464 OFFCURVE",
"42 361 CURVE"
);
},
{
closed = 1;
nodes = (
"548 221 LINE",
"522 104 OFFCURVE",
"426 29 OFFCURVE",
"297 29 CURVE SMOOTH",
"156 29 OFFCURVE",
"67 105 OFFCURVE",
"75 220 CURVE"
);
}
);
width = 630;
},
{
layerId = m002;
paths = (
{
closed = 1;
nodes = (
"215 342 LINE",
"225 375 OFFCURVE",
"280 395 OFFCURVE",
"362 395 CURVE SMOOTH",
"431 395 OFFCURVE",
"474 362 OFFCURVE",
"483 305 CURVE",
"19 305 LINE",
"16 259 LINE SMOOTH",
"4 88 OFFCURVE",
"122 -13 OFFCURVE",
"334 -13 CURVE SMOOTH",
"551 -13 OFFCURVE",
"686 87 OFFCURVE",
"697 255 CURVE SMOOTH",
"710 429 OFFCURVE",
"589 532 OFFCURVE",
"371 532 CURVE SMOOTH",
"181 532 OFFCURVE",
"49 463 OFFCURVE",
"16 346 CURVE"
);
},
{
closed = 1;
nodes = (
"471 205 LINE",
"449 153 OFFCURVE",
"401 124 OFFCURVE",
"335 124 CURVE SMOOTH",
"271 124 OFFCURVE",
"231 153 OFFCURVE",
"223 204 CURVE"
);
}
);
width = 707;
}
);
leftKerningGroup = o;
leftMetricsKey = e;
rightKerningGroup = o;
rightMetricsKey = e;
unicode = 0259;
},
{
color = 10;
glyphname = ezh;
lastChange = "2023-09-01 16:52:53 +0000";
layers = (
{
anchors = (
{
name = Top;
position = "{318, 520}";
}
);
layerId = "FD4D3FDD-DE85-408F-A52A-FF600B1C6101";
paths = (
{
closed = 1;
nodes = (
"67 478 LINE",
"494 478 LINE",
"276 275 LINE",
"273 233 LINE",
"309 233 LINE SMOOTH",
"433 233 OFFCURVE",
"511 161 OFFCURVE",
"503 53 CURVE SMOOTH",
"496 -58 OFFCURVE",
"404 -132 OFFCURVE",
"274 -132 CURVE SMOOTH",
"139 -132 OFFCURVE",
"55 -62 OFFCURVE",
"63 44 CURVE",
"15 46 LINE",
"6 -86 OFFCURVE",
"109 -174 OFFCURVE",
"272 -174 CURVE SMOOTH",
"430 -174 OFFCURVE",
"542 -84 OFFCURVE",
"551 51 CURVE SMOOTH",
"560 177 OFFCURVE",
"475 265 OFFCURVE",
"335 274 CURVE",
"554 478 LINE",
"557 520 LINE",
"70 520 LINE"
);
}
);
width = 596;
},
{
anchors = (
{
name = Top;
position = "{351, 520}";
}
);
layerId = m002;
paths = (
{
closed = 1;
nodes = (
"41 370 LINE",
"380 370 LINE",
"287 285 LINE",
"276 135 LINE",
"326 135 LINE SMOOTH",
"391 135 OFFCURVE",
"428 108 OFFCURVE",
"425 63 CURVE SMOOTH",
"422 16 OFFCURVE",
"380 -12 OFFCURVE",
"312 -12 CURVE SMOOTH",
"242 -12 OFFCURVE",
"202 16 OFFCURVE",
"205 63 CURVE",
"-3 67 LINE",
"-13 -84 OFFCURVE",
"101 -174 OFFCURVE",
"305 -174 CURVE SMOOTH",
"501 -174 OFFCURVE",
"622 -90 OFFCURVE",
"632 53 CURVE SMOOTH",
"639 151 OFFCURVE",
"591 222 OFFCURVE",
"498 258 CURVE",
"628 370 LINE",
"638 520 LINE",
"51 520 LINE"
);
}
);
width = 656;
}
);
leftKerningGroup = o;
leftMetricsKey = o;
rightKerningGroup = o;
rightMetricsKey = o;
unicode = 0292;
},
{
glyphname = f;
lastChange = "2023-09-01 16:16:53 +0000";
layers = (
{
layerId = "FD4D3FDD-DE85-408F-A52A-FF600B1C6101";
paths = (
{
closed = 1;
nodes = (
"151 518 LINE",
"58 523 LINE",
"55 478 LINE",
"148 478 LINE",
"115 0 LINE",
"163 0 LINE",
"196 478 LINE",
"340 478 LINE",
"343 520 LINE",
"199 520 LINE",
"202 564 LINE SMOOTH",
"208 646 OFFCURVE",
"262 695 OFFCURVE",
"346 695 CURVE SMOOTH",
"368 695 OFFCURVE",
"390 690 OFFCURVE",
"409 681 CURVE",
"411 723 LINE",
"393 731 OFFCURVE",
"369 736 OFFCURVE",
"344 736 CURVE SMOOTH",
"232 736 OFFCURVE",
"162 672 OFFCURVE",
"154 563 CURVE SMOOTH"
);
}
);
width = 390;
},
{
layerId = m002;
paths = (
{
closed = 1;
nodes = (
"111 518 LINE",
"38 523 LINE",
"28 370 LINE",
"101 370 LINE",
"75 0 LINE",
"273 0 LINE",
"299 370 LINE",
"433 370 LINE",
"443 520 LINE",
"309 520 LINE",
"310 533 LINE SMOOTH",
"312 558 OFFCURVE",
"343 577 OFFCURVE",
"387 577 CURVE SMOOTH",
"408 577 OFFCURVE",
"440 572 OFFCURVE",
"462 564 CURVE",
"469 722 LINE",
"453 730 OFFCURVE",
"416 736 OFFCURVE",
"374 736 CURVE SMOOTH",
"225 736 OFFCURVE",
"121 666 OFFCURVE",
"114 559 CURVE SMOOTH"
);
}
);
width = 451;
}
);
leftKerningGroup = f;
leftMetricsKey = n;
rightKerningGroup = f;
unicode = 0066;
},
{
glyphname = g;
lastChange = "2023-09-06 00:12:57 +0000";
layers = (
{
anchors = (
{
name = Top;
position = "{344, 531}";
}
);
layerId = "FD4D3FDD-DE85-408F-A52A-FF600B1C6101";
paths = (
{
closed = 1;
nodes = (
"626 520 LINE",
"563 520 LINE",
"575 411 LINE",
"573 411 LINE",
"526 487 OFFCURVE",
"441 532 OFFCURVE",
"343 532 CURVE SMOOTH",
"155 532 OFFCURVE",
"29 414 OFFCURVE",
"29 238 CURVE SMOOTH",
"29 87 OFFCURVE",
"143 -13 OFFCURVE",
"313 -13 CURVE SMOOTH",
"402 -13 OFFCURVE",
"497 32 OFFCURVE",
"551 98 CURVE",
"554 98 LINE",
"540 -21 LINE SMOOTH",
"528 -123 OFFCURVE",
"431 -191 OFFCURVE",
"296 -191 CURVE SMOOTH",
"173 -191 OFFCURVE",
"83 -139 OFFCURVE",
"72 -62 CURVE",
"25 -60 LINE",
"36 -164 OFFCURVE",
"144 -233 OFFCURVE",
"295 -233 CURVE SMOOTH",
"462 -233 OFFCURVE",
"580 -145 OFFCURVE",
"589 -12 CURVE SMOOTH"
);
},
{
closed = 1;
nodes = (
"77 390 OFFCURVE",
"183 490 OFFCURVE",
"343 490 CURVE SMOOTH",
"473 490 OFFCURVE",
"560 407 OFFCURVE",
"560 282 CURVE SMOOTH",
"560 130 OFFCURVE",
"459 29 OFFCURVE",
"308 29 CURVE SMOOTH",
"169 29 OFFCURVE",
"77 113 OFFCURVE",
"77 239 CURVE SMOOTH"
);
}
);
width = 648;
},
{
anchors = (
{
name = Top;
position = "{363, 532}";
}
);
layerId = m002;
paths = (
{
closed = 1;
nodes = (
"711 520 LINE",
"504 520 LINE",
"519 488 LINE",
"516 488 LINE",
"484 516 OFFCURVE",
"427 532 OFFCURVE",
"361 532 CURVE SMOOTH",
"140 532 OFFCURVE",
"10 424 OFFCURVE",
"10 240 CURVE SMOOTH",
"10 81 OFFCURVE",
"124 -13 OFFCURVE",
"317 -13 CURVE SMOOTH",
"401 -13 OFFCURVE",
"465 9 OFFCURVE",
"493 42 CURVE",
"495 42 LINE",
"491 -8 LINE SMOOTH",
"487 -63 OFFCURVE",
"432 -96 OFFCURVE",
"344 -96 CURVE SMOOTH",
"257 -96 OFFCURVE",
"207 -68 OFFCURVE",
"210 -21 CURVE",
"12 -17 LINE",
"3 -153 OFFCURVE",
"124 -233 OFFCURVE",
"339 -233 CURVE SMOOTH",
"540 -233 OFFCURVE",
"665 -152 OFFCURVE",
"674 -15 CURVE SMOOTH"
);
},
{
closed = 1;
nodes = (
"218 329 OFFCURVE",
"277 379 OFFCURVE",
"377 379 CURVE SMOOTH",
"451 379 OFFCURVE",
"494 341 OFFCURVE",
"494 276 CURVE SMOOTH",
"494 190 OFFCURVE",
"441 139 OFFCURVE",
"351 139 CURVE SMOOTH",
"267 139 OFFCURVE",
"218 178 OFFCURVE",
"218 245 CURVE SMOOTH"
);
}
);
width = 713;
}
);
leftKerningGroup = o;
leftMetricsKey = o;
rightKerningGroup = g;
rightMetricsKey = n;
unicode = 0067;
},
{
color = 10;
glyphname = "gamma-latin";
lastChange = "2023-09-01 16:51:26 +0000";
layers = (
{
layerId = "FD4D3FDD-DE85-408F-A52A-FF600B1C6101";
paths = (
{
closed = 1;
nodes = (
"354 -217 OFFCURVE",
"427 -151 OFFCURVE",
"427 -53 CURVE SMOOTH",
"427 -2 OFFCURVE",
"405 40 OFFCURVE",
"370 92 CURVE SMOOTH",
"297 202 LINE",
"548 520 LINE",
"497 520 LINE",
"274 238 LINE",
"89 520 LINE",
"38 520 LINE",
"245 202 LINE",
"159 99 LINE SMOOTH",
"109 39 OFFCURVE",
"75 -12 OFFCURVE",
"75 -70 CURVE SMOOTH",
"75 -158 OFFCURVE",
"143 -217 OFFCURVE",
"245 -217 CURVE SMOOTH"
);
},
{
closed = 1;
nodes = (
"123 -7 OFFCURVE",
"153 28 OFFCURVE",
"204 89 CURVE SMOOTH",
"269 168 LINE",
"325 87 LINE SMOOTH",
"385 0 OFFCURVE",
"379 -34 OFFCURVE",
"379 -53 CURVE SMOOTH",
"379 -126 OFFCURVE",
"327 -175 OFFCURVE",
"251 -175 CURVE SMOOTH",
"174 -175 OFFCURVE",
"123 -131 OFFCURVE",
"123 -64 CURVE SMOOTH"
);
}
);
width = 550;
},
{
layerId = m002;
paths = (
{
closed = 1;
nodes = (
"480 -217 OFFCURVE",
"608 -119 OFFCURVE",
"608 27 CURVE SMOOTH",
"608 69 OFFCURVE",
"586 123 OFFCURVE",
"549 171 CURVE SMOOTH",
"435 320 LINE",
"603 520 LINE",
"384 520 LINE",
"329 458 LINE",
"282 520 LINE",
"59 520 LINE",
"201 314 LINE",
"56 151 LINE SMOOTH",
"18 108 OFFCURVE",
"-8 49 OFFCURVE",
"-8 -10 CURVE SMOOTH",
"-8 -134 OFFCURVE",
"110 -217 OFFCURVE",
"288 -217 CURVE SMOOTH"
);
},
{
closed = 1;
nodes = (
"202 31 OFFCURVE",
"214 57 OFFCURVE",
"241 90 CURVE SMOOTH",
"304 165 LINE",
"359 86 LINE SMOOTH",
"379 58 OFFCURVE",
"393 37 OFFCURVE",
"393 15 CURVE SMOOTH",
"393 -25 OFFCURVE",
"355 -49 OFFCURVE",
"295 -49 CURVE SMOOTH",
"237 -49 OFFCURVE",
"202 -25 OFFCURVE",
"202 15 CURVE SMOOTH"
);
}
);
width = 635;
}
);
leftKerningGroup = v;
leftMetricsKey = v;
rightKerningGroup = v;
rightMetricsKey = v;
unicode = 0263;
},
{
color = 10;
glyphname = glottalstop;
lastChange = "2023-09-01 16:52:08 +0000";
layers = (
{
layerId = "FD4D3FDD-DE85-408F-A52A-FF600B1C6101";
paths = (
{
closed = 1;
nodes = (
"265 0 LINE",
"287 315 OFFCURVE",
"558 284 OFFCURVE",
"574 520 CURVE SMOOTH",
"583 649 OFFCURVE",
"492 726 OFFCURVE",
"329 726 CURVE SMOOTH",
"161 726 OFFCURVE",
"57 650 OFFCURVE",
"48 521 CURVE",
"96 519 LINE",
"103 623 OFFCURVE",
"190 684 OFFCURVE",
"329 684 CURVE SMOOTH",
"460 684 OFFCURVE",
"533 624 OFFCURVE",
"526 522 CURVE SMOOTH",
"512 316 OFFCURVE",
"240 340 OFFCURVE",
"217 0 CURVE"
);
}
);
width = 586;
},
{
layerId = m002;
paths = (
{
closed = 1;
nodes = (
"358 0 LINE",
"378 265 OFFCURVE",
"698 211 OFFCURVE",
"698 490 CURVE SMOOTH",
"698 638 OFFCURVE",
"578 726 OFFCURVE",
"374 726 CURVE SMOOTH",
"166 726 OFFCURVE",
"36 630 OFFCURVE",
"24 467 CURVE",
"232 463 LINE",
"237 529 OFFCURVE",
"289 568 OFFCURVE",
"372 568 CURVE SMOOTH",
"450 568 OFFCURVE",
"493 535 OFFCURVE",
"489 480 CURVE SMOOTH",
"477 305 OFFCURVE",
"183 321 OFFCURVE",
"161 0 CURVE"
);
}
);
width = 693;
}
);
leftKerningGroup = o;
leftMetricsKey = o;
rightKerningGroup = p;
rightMetricsKey = o;
unicode = 0294;
},
{
color = 10;
glyphname = glottalstopreversed;
lastChange = "2023-09-01 16:52:06 +0000";
layers = (
{
layerId = "FD4D3FDD-DE85-408F-A52A-FF600B1C6101";
paths = (
{
closed = 1;
nodes = (
"333 0 LINE",
"356 340 OFFCURVE",
"82 314 OFFCURVE",
"96 520 CURVE SMOOTH",
"103 622 OFFCURVE",
"186 684 OFFCURVE",
"319 684 CURVE SMOOTH",
"456 684 OFFCURVE",
"533 624 OFFCURVE",
"526 521 CURVE",
"574 519 LINE",
"583 648 OFFCURVE",
"488 726 OFFCURVE",
"319 726 CURVE SMOOTH",
"158 726 OFFCURVE",
"57 651 OFFCURVE",
"48 522 CURVE SMOOTH",
"32 286 OFFCURVE",
"307 315 OFFCURVE",
"285 0 CURVE"
);
}
);
width = 586;
},
{
layerId = m002;
paths = (
{
closed = 1;
nodes = (
"495 0 LINE",
"495 286 OFFCURVE",
"234 290 OFFCURVE",
"234 460 CURVE SMOOTH",
"234 528 OFFCURVE",
"286 568 OFFCURVE",
"373 568 CURVE SMOOTH",
"451 568 OFFCURVE",
"494 530 OFFCURVE",
"489 467 CURVE",
"697 463 LINE",
"708 628 OFFCURVE",
"588 726 OFFCURVE",
"375 726 CURVE SMOOTH",
"155 726 OFFCURVE",
"25 627 OFFCURVE",
"25 459 CURVE SMOOTH",
"25 223 OFFCURVE",
"298 239 OFFCURVE",
"298 0 CURVE"
);
}
);
width = 693;
}
);
leftKerningGroup = o;
leftMetricsKey = o;
rightKerningGroup = o;
rightMetricsKey = c;
unicode = 0295;
},
{
color = 10;
glyphname = gstroke;
lastChange = "2023-09-01 16:53:43 +0000";
layers = (
{
layerId = "FD4D3FDD-DE85-408F-A52A-FF600B1C6101";
paths = (
{
closed = 1;
nodes = (
"606 238 LINE",
"682 238 LINE",
"685 280 LINE",
"609 280 LINE",
"626 520 LINE",
"563 520 LINE",
"576 411 LINE",
"574 410 LINE",
"515 496 OFFCURVE",
"441 532 OFFCURVE",
"343 532 CURVE SMOOTH",
"155 532 OFFCURVE",
"29 414 OFFCURVE",
"29 238 CURVE SMOOTH",
"29 87 OFFCURVE",
"143 -13 OFFCURVE",
"313 -13 CURVE SMOOTH",
"402 -13 OFFCURVE",
"498 31 OFFCURVE",
"552 97 CURVE",
"554 98 LINE",
"540 -21 LINE SMOOTH",
"528 -123 OFFCURVE",
"430 -191 OFFCURVE",
"296 -191 CURVE SMOOTH",
"173 -191 OFFCURVE",
"83 -139 OFFCURVE",
"72 -62 CURVE",
"25 -60 LINE",
"36 -164 OFFCURVE",
"144 -233 OFFCURVE",
"295 -233 CURVE SMOOTH",
"462 -233 OFFCURVE",
"580 -145 OFFCURVE",
"589 -12 CURVE SMOOTH"
);
},
{
closed = 1;
nodes = (
"77 390 OFFCURVE",
"183 490 OFFCURVE",
"343 490 CURVE SMOOTH",
"473 490 OFFCURVE",
"560 404 OFFCURVE",
"560 279 CURVE SMOOTH",
"485 285 LINE",
"482 238 LINE",
"557 238 LINE",
"539 111 OFFCURVE",
"444 29 OFFCURVE",
"308 29 CURVE SMOOTH",
"169 29 OFFCURVE",
"77 113 OFFCURVE",
"77 239 CURVE SMOOTH"
);
}
);
width = 724;
},
{
layerId = m002;
paths = (
{
closed = 1;
nodes = (
"689 199 LINE",
"759 199 LINE",
"767 319 LINE",
"697 319 LINE",
"711 520 LINE",
"506 520 LINE",
"524 489 LINE",
"522 488 LINE",
"485 515 OFFCURVE",
"424 532 OFFCURVE",
"361 532 CURVE SMOOTH",
"140 532 OFFCURVE",
"10 424 OFFCURVE",
"10 240 CURVE SMOOTH",
"10 81 OFFCURVE",
"124 -13 OFFCURVE",
"317 -13 CURVE SMOOTH",
"400 -13 OFFCURVE",
"466 7 OFFCURVE",
"494 40 CURVE",
"495 42 LINE",
"491 -8 LINE SMOOTH",
"487 -63 OFFCURVE",
"432 -96 OFFCURVE",
"344 -96 CURVE SMOOTH",
"257 -96 OFFCURVE",
"207 -68 OFFCURVE",
"210 -21 CURVE",
"12 -17 LINE",
"3 -153 OFFCURVE",
"124 -233 OFFCURVE",
"339 -233 CURVE SMOOTH",
"541 -233 OFFCURVE",
"664 -152 OFFCURVE",
"674 -15 CURVE SMOOTH"
);
},
{
closed = 1;
nodes = (
"218 329 OFFCURVE",
"277 379 OFFCURVE",
"377 379 CURVE SMOOTH",
"434 379 OFFCURVE",
"472 357 OFFCURVE",
"487 317 CURVE",
"403 322 LINE",
"395 199 LINE",
"475 199 LINE",
"452 160 OFFCURVE",
"409 139 OFFCURVE",
"351 139 CURVE SMOOTH",
"267 139 OFFCURVE",
"218 178 OFFCURVE",
"218 245 CURVE SMOOTH"
);
}
);
width = 783;
}
);
leftKerningGroup = o;
leftMetricsKey = g;
rightKerningGroup = g;
rightMetricsKey = g;
unicode = 01E5;
},
{
glyphname = h;
lastChange = "2023-09-06 00:14:00 +0000";
layers = (
{
anchors = (
{
name = Bottom;
position = "{268, 0}";
},
{
name = Top;
position = "{97, 736}";
}
);
layerId = "FD4D3FDD-DE85-408F-A52A-FF600B1C6101";
paths = (
{
closed = 1;
nodes = (
"90 284 LINE SMOOTH",
"99 413 OFFCURVE",
"181 490 OFFCURVE",
"312 490 CURVE SMOOTH",
"428 490 OFFCURVE",
"493 430 OFFCURVE",
"486 329 CURVE SMOOTH",
"463 0 LINE",
"511 0 LINE",
"534 332 LINE SMOOTH",
"543 458 OFFCURVE",
"461 532 OFFCURVE",
"314 532 CURVE SMOOTH",
"217 532 OFFCURVE",
"136 493 OFFCURVE",
"97 427 CURVE",
"94 427 LINE",
"111 520 LINE",
"126 736 LINE",
"73 736 LINE",
"22 0 LINE",
"70 0 LINE"
);
}
);
width = 569;
},
{
anchors = (
{
name = Bottom;
position = "{329, 0}";
},
{
name = Top;
position = "{148, 736}";
}
);
layerId = m002;
paths = (
{
closed = 1;
nodes = (
"218 266 LINE SMOOTH",
"222 328 OFFCURVE",
"276 370 OFFCURVE",
"354 370 CURVE SMOOTH",
"425 370 OFFCURVE",
"470 330 OFFCURVE",
"466 270 CURVE SMOOTH",
"447 0 LINE",
"645 0 LINE",
"668 331 LINE SMOOTH",
"676 452 OFFCURVE",
"574 532 OFFCURVE",
"412 532 CURVE SMOOTH",
"329 532 OFFCURVE",
"260 511 OFFCURVE",
"225 477 CURVE",
"222 477 LINE",
"237 520 LINE",
"260 736 LINE",
"53 736 LINE",
"2 0 LINE",
"200 0 LINE"
);
}
);
width = 683;
}
);
leftKerningGroup = h;
leftMetricsKey = n;
rightKerningGroup = n;
rightMetricsKey = n;
unicode = 0068;
},
{
color = 10;
glyphname = hbar;
lastChange = "2023-09-05 19:36:32 +0000";
layers = (
{
layerId = "FD4D3FDD-DE85-408F-A52A-FF600B1C6101";
paths = (
{
closed = 1;
nodes = (
"183 284 LINE SMOOTH",
"192 413 OFFCURVE",
"274 490 OFFCURVE",
"405 490 CURVE SMOOTH",
"521 490 OFFCURVE",
"586 430 OFFCURVE",
"579 329 CURVE SMOOTH",
"556 0 LINE",
"604 0 LINE",
"627 332 LINE SMOOTH",
"636 458 OFFCURVE",
"556 532 OFFCURVE",
"411 532 CURVE SMOOTH",
"303 532 OFFCURVE",
"237 492 OFFCURVE",
"189 427 CURVE",
"187 428 LINE",
"204 520 LINE",
"211 619 LINE",
"340 619 LINE",
"343 661 LINE",
"214 661 LINE",
"219 736 LINE",
"166 736 LINE",
"161 659 LINE",
"68 664 LINE",
"65 619 LINE",
"158 619 LINE",
"115 0 LINE",
"163 0 LINE"
);
}
);
width = 662;
},
{
layerId = m002;
paths = (
{
closed = 1;
nodes = (
"294 266 LINE SMOOTH",
"298 328 OFFCURVE",
"352 370 OFFCURVE",
"430 370 CURVE SMOOTH",
"501 370 OFFCURVE",
"546 330 OFFCURVE",
"542 270 CURVE SMOOTH",
"523 0 LINE",
"721 0 LINE",
"744 331 LINE SMOOTH",
"752 452 OFFCURVE",
"650 532 OFFCURVE",
"488 532 CURVE SMOOTH",
"409 532 OFFCURVE",
"330 510 OFFCURVE",
"291 476 CURVE",
"289 477 LINE",
"313 520 LINE",
"317 587 LINE",
"388 587 LINE",
"395 687 LINE",
"324 687 LINE",
"327 736 LINE",
"129 736 LINE",
"125 685 LINE",
"50 690 LINE",
"43 587 LINE",
"119 587 LINE",
"78 0 LINE",
"276 0 LINE"
);
}
);
width = 759;
}
);
leftKerningGroup = hbar;
leftMetricsKey = n;
rightKerningGroup = n;
rightMetricsKey = n;
unicode = 0127;
},
{
color = 10;
glyphname = idotless;
lastChange = "2023-09-01 16:44:20 +0000";
layers = (
{
anchors = (
{
name = Bottom;
position = "{46, 0}";
},
{
name = Top;
position = "{82, 520}";
}
);
layerId = "FD4D3FDD-DE85-408F-A52A-FF600B1C6101";
paths = (
{
closed = 1;
nodes = (
"58 520 LINE",
"22 0 LINE",
"70 0 LINE",
"106 520 LINE"
);
}
);
width = 128;
},
{
anchors = (
{
name = Bottom;
position = "{101, 0}";
},
{
name = Top;
position = "{137, 520}";
}
);
layerId = m002;
paths = (
{
closed = 1;
nodes = (
"38 520 LINE",
"2 0 LINE",
"200 0 LINE",
"236 520 LINE"
);
}
);
width = 238;
}
);
leftKerningGroup = i;
leftMetricsKey = n;
rightKerningGroup = i;
rightMetricsKey = n;
unicode = 0131;
},
{
color = 10;
glyphname = ij;
lastChange = "2023-09-06 16:09:19 +0000";
layers = (
{
layerId = "FD4D3FDD-DE85-408F-A52A-FF600B1C6101";
paths = (
{
closed = 1;
nodes = (
"30 -171 OFFCURVE",
"135 -233 OFFCURVE",
"279 -233 CURVE SMOOTH",
"443 -233 OFFCURVE",
"559 -145 OFFCURVE",
"568 -12 CURVE SMOOTH",
"605 520 LINE",
"557 520 LINE",
"534 186 LINE SMOOTH",
"528 92 OFFCURVE",
"431 29 OFFCURVE",
"295 29 CURVE SMOOTH",
"173 29 OFFCURVE",
"96 89 OFFCURVE",
"102 178 CURVE SMOOTH",
"126 520 LINE",
"78 520 LINE",
"53 168 LINE SMOOTH",
"45 59 OFFCURVE",
"143 -13 OFFCURVE",
"295 -13 CURVE SMOOTH",
"403 -13 OFFCURVE",
"495 23 OFFCURVE",
"524 77 CURVE",
"526 78 LINE",
"519 -21 LINE SMOOTH",
"512 -123 OFFCURVE",
"418 -191 OFFCURVE",
"283 -191 CURVE SMOOTH",
"162 -191 OFFCURVE",
"74 -147 OFFCURVE",
"64 -80 CURVE",
"16 -78 LINE"
);
},
{
closed = 1;
nodes = (
"130 567 LINE",
"136 649 LINE",
"88 649 LINE",
"82 567 LINE"
);
},
{
closed = 1;
nodes = (
"609 567 LINE",
"615 649 LINE",
"567 649 LINE",
"561 567 LINE"
);
}
);
width = 627;
},
{
layerId = m002;
paths = (
{
closed = 1;
nodes = (
"-9 -153 OFFCURVE",
"119 -233 OFFCURVE",
"317 -233 CURVE SMOOTH",
"521 -233 OFFCURVE",
"662 -143 OFFCURVE",
"672 -5 CURVE SMOOTH",
"709 520 LINE",
"511 520 LINE",
"492 250 LINE SMOOTH",
"488 191 OFFCURVE",
"432 150 OFFCURVE",
"353 150 CURVE SMOOTH",
"279 150 OFFCURVE",
"234 187 OFFCURVE",
"238 246 CURVE SMOOTH",
"257 520 LINE",
"59 520 LINE",
"35 182 LINE SMOOTH",
"27 67 OFFCURVE",
"132 -12 OFFCURVE",
"295 -12 CURVE SMOOTH",
"379 -12 OFFCURVE",
"454 4 OFFCURVE",
"481 31 CURVE",
"484 33 LINE",
"477 -8 LINE SMOOTH",
"468 -60 OFFCURVE",
"407 -96 OFFCURVE",
"322 -96 CURVE SMOOTH",
"245 -96 OFFCURVE",
"194 -75 OFFCURVE",
"197 -41 CURVE",
"-1 -37 LINE"
);
},
{
closed = 1;
nodes = (
"261 567 LINE",
"271 717 LINE",
"73 717 LINE",
"63 567 LINE"
);
},
{
closed = 1;
nodes = (
"713 567 LINE",
"723 717 LINE",
"525 717 LINE",
"515 567 LINE"
);
}
);
width = 711;
}
);
leftKerningGroup = ij;
leftMetricsKey = u;
rightKerningGroup = ij;
unicode = 0133;
},
{
color = 10;
glyphname = "iota-latin";
lastChange = "2023-09-01 16:51:39 +0000";
layers = (
{
layerId = "FD4D3FDD-DE85-408F-A52A-FF600B1C6101";
paths = (
{
closed = 1;
nodes = (
"24 28 OFFCURVE",
"60 -11 OFFCURVE",
"126 -11 CURVE SMOOTH",
"141 -11 OFFCURVE",
"158 -7 OFFCURVE",
"171 -1 CURVE",
"173 41 LINE",
"163 34 OFFCURVE",
"145 30 OFFCURVE",
"126 30 CURVE SMOOTH",
"91 30 OFFCURVE",
"73 52 OFFCURVE",
"76 90 CURVE SMOOTH",
"106 520 LINE",
"58 520 LINE",
"28 92 LINE SMOOTH"
);
}
);
width = 229;
},
{
layerId = m002;
paths = (
{
closed = 1;
nodes = (
"6 57 OFFCURVE",
"88 -13 OFFCURVE",
"235 -13 CURVE SMOOTH",
"259 -13 OFFCURVE",
"286 -9 OFFCURVE",
"305 -1 CURVE",
"312 161 LINE",
"293 152 OFFCURVE",
"275 146 OFFCURVE",
"251 146 CURVE SMOOTH",
"228 146 OFFCURVE",
"211 161 OFFCURVE",
"213 189 CURVE SMOOTH",
"236 520 LINE",
"38 520 LINE",
"14 173 LINE SMOOTH"
);
}
);
width = 343;
}
);
leftKerningGroup = iota;
leftMetricsKey = i;
rightKerningGroup = iota;
rightMetricsKey = i;
unicode = 0269;
},
{
color = 10;
glyphname = istroke;
lastChange = "2023-09-06 16:07:33 +0000";
layers = (
{
components = (
{
name = idotless;
transform = "{1, 0, 0, 1, 77, 0}";
},
{
name = dotaccentcomb;
transform = "{1, 0, 0, 1, 87, 0}";
}
);
layerId = "FD4D3FDD-DE85-408F-A52A-FF600B1C6101";
paths = (
{
closed = 1;
nodes = (
"240 251 LINE",
"243 293 LINE",
"164 293 LINE",
"122 291 LINE",
"43 296 LINE",
"40 251 LINE"
);
}
);
width = 281;
},
{
components = (
{
name = idotless;
transform = "{1, 0, 0, 1, 86, 0}";
},
{
name = dotaccentcomb;
transform = "{1, 0, 0, 1, 76, 0}";
}
);
layerId = m002;
paths = (
{
closed = 1;
nodes = (
"381 209 LINE",
"389 329 LINE",
"301 329 LINE",
"113 327 LINE",
"25 332 LINE",
"17 209 LINE"
);
}
);
width = 405;
}
);
leftKerningGroup = istroke;
leftMetricsKey = i;
rightKerningGroup = istroke;
rightMetricsKey = i;
unicode = 0268;
},
{
color = 10;
glyphname = jdotless;
lastChange = "2023-09-01 16:28:43 +0000";
layers = (
{
anchors = (
{
name = Top;
position = "{251, 520}";
}
);
hints = (
{
horizontal = 1;
place = "{520, 0}";
type = Stem;
}
);
layerId = "FD4D3FDD-DE85-408F-A52A-FF600B1C6101";
paths = (
{
closed = 1;
nodes = (
"275 520 LINE",
"227 520 LINE",
"186 -69 LINE SMOOTH",
"180 -146 OFFCURVE",
"133 -192 OFFCURVE",
"57 -192 CURVE SMOOTH",
"39 -192 OFFCURVE",
"21 -191 OFFCURVE",
"9 -188 CURVE",
"7 -230 LINE",
"22 -232 OFFCURVE",
"40 -233 OFFCURVE",
"56 -233 CURVE SMOOTH",
"161 -233 OFFCURVE",
"227 -173 OFFCURVE",
"234 -71 CURVE SMOOTH"
);
}
);
width = 297;
},
{
anchors = (
{
name = Top;
position = "{212, 520}";
}
);
hints = (
{
horizontal = 1;
place = "{520, 0}";
type = Stem;
}
);
layerId = m002;
paths = (
{
closed = 1;
nodes = (
"311 520 LINE",
"113 520 LINE",
"76 -10 LINE SMOOTH",
"73 -49 OFFCURVE",
"53 -74 OFFCURVE",
"23 -74 CURVE SMOOTH",
"7 -74 OFFCURVE",
"-11 -74 OFFCURVE",
"-23 -71 CURVE",
"-30 -230 LINE",
"-19 -232 OFFCURVE",
"-1 -233 OFFCURVE",
"20 -233 CURVE SMOOTH",
"171 -233 OFFCURVE",
"264 -152 OFFCURVE",
"274 -12 CURVE SMOOTH"
);
}
);
width = 313;
}
);
leftKerningGroup = j;
rightKerningGroup = n;
rightMetricsKey = n;
unicode = 0237;
},
{
glyphname = k;
lastChange = "2023-09-01 16:15:17 +0000";
layers = (
{
anchors = (
{
name = Bottom;
position = "{248, 0}";
},
{
name = Top;
position = "{250, 520}";
}
);
layerId = "FD4D3FDD-DE85-408F-A52A-FF600B1C6101";
paths = (
{
closed = 1;
nodes = (
"22 0 LINE",
"70 0 LINE",
"83 185 LINE",
"206 277 LINE",
"436 0 LINE",
"503 0 LINE",
"246 308 LINE",
"528 520 LINE",
"455 520 LINE",
"89 250 LINE",
"87 251 LINE",
"121 736 LINE",
"73 736 LINE"
);
}
);
width = 541;
},
{
anchors = (
{
name = Bottom;
position = "{292, 0}";
},
{
name = Top;
position = "{338, 520}";
}
);
layerId = m002;
paths = (
{
closed = 1;
nodes = (
"2 0 LINE",
"200 0 LINE",
"210 146 LINE",
"285 207 LINE",
"428 0 LINE",
"640 0 LINE",
"429 322 LINE",
"675 520 LINE",
"417 520 LINE",
"228 379 LINE",
"226 380 LINE",
"251 736 LINE",
"53 736 LINE"
);
}
);
width = 668;
}
);
leftKerningGroup = n;
leftMetricsKey = n;
rightKerningGroup = k;
unicode = 006B;
},
{
color = 10;
glyphname = kgreenlandic;
lastChange = "2023-09-01 17:01:15 +0000";
layers = (
{
layerId = "FD4D3FDD-DE85-408F-A52A-FF600B1C6101";
paths = (
{
closed = 1;
nodes = (
"22 0 LINE",
"70 0 LINE",
"89 272 LINE",
"90 272 LINE",
"402 0 LINE",
"469 0 LINE",
"147 280 LINE",
"510 520 LINE",
"443 520 LINE",
"92 289 LINE",
"90.008 289 LINE",
"106 520 LINE",
"58 520 LINE"
);
}
);
width = 512;
},
{
layerId = m002;
paths = (
{
closed = 1;
nodes = (
"2 0 LINE",
"200 0 LINE",
"215 218 LINE",
"218 218 LINE",
"441 0 LINE",
"675 0 LINE",
"392 277 LINE",
"718 520 LINE",
"476 520 LINE",
"225 334 LINE",
"223 334 LINE",
"236 520 LINE",
"38 520 LINE"
);
}
);
width = 710;
}
);
leftKerningGroup = n;
leftMetricsKey = k;
rightKerningGroup = k;
rightMetricsKey = k;
unicode = 0138;
},
{
glyphname = l;
lastChange = "2023-09-21 15:10:56 +0000";
layers = (
{
anchors = (
{
name = Bottom;
position = "{46, 0}";
},
{
name = Caron;
position = "{187, 560}";
},
{
name = Top;
position = "{97, 736}";
},
{
name = Top_EC;
position = "{176, 570}";
}
);
layerId = "FD4D3FDD-DE85-408F-A52A-FF600B1C6101";
paths = (
{
closed = 1;
nodes = (
"22 0 LINE",
"70 0 LINE",
"121 736 LINE",
"73 736 LINE"
);
}
);
width = 128;
},
{
anchors = (
{
name = Bottom;
position = "{101, 0}";
},
{
name = Caron;
position = "{357, 560}";
},
{
name = Top;
position = "{152, 736}";
},
{
name = Top_EC;
position = "{357, 570}";
}
);
layerId = m002;
paths = (
{
closed = 1;
nodes = (
"2 0 LINE",
"200 0 LINE",
"251 736 LINE",
"53 736 LINE"
);
}
);
width = 238;
}
);
leftKerningGroup = l;
leftMetricsKey = n;
rightKerningGroup = l;
rightMetricsKey = n;
unicode = 006C;
},
{
color = 10;
glyphname = lambdastroke;
lastChange = "2023-09-01 17:01:19 +0000";
layers = (
{
layerId = "FD4D3FDD-DE85-408F-A52A-FF600B1C6101";
paths = (
{
closed = 1;
nodes = (
"312 446 LINE",
"314 446 LINE",
"438 127 LINE SMOOTH",
"473 36 OFFCURVE",
"518 -13 OFFCURVE",
"595 -13 CURVE SMOOTH",
"609 -13 OFFCURVE",
"627 -11 OFFCURVE",
"641 -6 CURVE",
"641 44 LINE",
"629 38 OFFCURVE",
"607 34 OFFCURVE",
"585 34 CURVE SMOOTH",
"540 34 OFFCURVE",
"507 64 OFFCURVE",
"485 123 CURVE SMOOTH",
"338 511 LINE",
"470 536 LINE",
"478 576 LINE",
"324 546 LINE",
"271 686 OFFCURVE",
"226 728 OFFCURVE",
"149 728 CURVE SMOOTH",
"135 728 OFFCURVE",
"117 726 OFFCURVE",
"103 721 CURVE",
"104 671 LINE",
"115 677 OFFCURVE",
"138 681 OFFCURVE",
"159 681 CURVE SMOOTH",
"205 681 OFFCURVE",
"238 651 OFFCURVE",
"278 539 CURVE",
"159 515 LINE",
"151 476 LINE",
"292 503 LINE",
"291 501 LINE",
"2 0 LINE",
"53 0 LINE"
);
}
);
width = 680;
},
{
layerId = m002;
paths = (
{
closed = 1;
nodes = (
"348 261 LINE",
"351 261 LINE",
"404 148 LINE SMOOTH",
"450 49 OFFCURVE",
"541 -13 OFFCURVE",
"652 -13 CURVE SMOOTH",
"675 -13 OFFCURVE",
"699 -11 OFFCURVE",
"715 -6 CURVE",
"722 156 LINE",
"710 150 OFFCURVE",
"682 146 OFFCURVE",
"643 146 CURVE SMOOTH",
"619 146 OFFCURVE",
"598 157 OFFCURVE",
"588 180 CURVE SMOOTH",
"428 537 LINE",
"526 555 LINE",
"534 595 LINE",
"412 569 LINE",
"367 667 OFFCURVE",
"275 727 OFFCURVE",
"165 727 CURVE SMOOTH",
"142 727 OFFCURVE",
"118 725 OFFCURVE",
"102 720 CURVE",
"125 558 LINE",
"137 564 OFFCURVE",
"156 568 OFFCURVE",
"174 568 CURVE SMOOTH",
"195 568 OFFCURVE",
"216 555 OFFCURVE",
"227 537 CURVE",
"121 519 LINE",
"112 476 LINE",
"242 501 LINE",
"260 459 LINE",
"2 0 LINE",
"201 0 LINE"
);
}
);
width = 754;
}
);
leftKerningGroup = A;
leftMetricsKey = A;
rightKerningGroup = A;
rightMetricsKey = A;
unicode = 019B;
},
{
color = 10;
glyphname = lbar;
lastChange = "2023-09-01 17:01:23 +0000";
layers = (
{
layerId = "FD4D3FDD-DE85-408F-A52A-FF600B1C6101";
paths = (
{
closed = 1;
nodes = (
"125 381 LINE",
"50 386 LINE",
"46 341 LINE",
"123 341 LINE",
"99 0 LINE",
"147 0 LINE",
"171 341 LINE",
"246 341 LINE",
"249 383 LINE",
"174 383 LINE",
"198 736 LINE",
"150 736 LINE"
);
}
);
width = 280;
},
{
layerId = m002;
paths = (
{
closed = 1;
nodes = (
"114 417 LINE",
"31 422 LINE",
"23 299 LINE",
"106 299 LINE",
"85 0 LINE",
"283 0 LINE",
"304 299 LINE",
"387 299 LINE",
"395 419 LINE",
"312 419 LINE",
"334 736 LINE",
"136 736 LINE"
);
}
);
width = 404;
}
);
leftKerningGroup = l;
leftMetricsKey = l;
rightKerningGroup = l;
rightMetricsKey = l;
unicode = 019A;
},
{
color = 10;
glyphname = lbelt;
lastChange = "2023-09-01 16:55:28 +0000";
layers = (
{
layerId = "FD4D3FDD-DE85-408F-A52A-FF600B1C6101";
paths = (
{
closed = 1;
nodes = (
"157 487 LINE",
"149 490 OFFCURVE",
"140 491 OFFCURVE",
"130 491 CURVE SMOOTH",
"86 491 OFFCURVE",
"54 463 OFFCURVE",
"51 422 CURVE SMOOTH",
"48 373 OFFCURVE",
"79 341 OFFCURVE",
"129 341 CURVE SMOOTH",
"147 341 LINE",
"123 0 LINE",
"171 0 LINE",
"195 341 LINE",
"274 341 LINE",
"277 383 LINE",
"198 383 LINE",
"222 736 LINE",
"174 736 LINE"
);
},
{
closed = 1;
nodes = (
"100 437 OFFCURVE",
"112 449 OFFCURVE",
"129 449 CURVE SMOOTH",
"144 449 OFFCURVE",
"153 438 OFFCURVE",
"152 422 CURVE SMOOTH",
"150 383 LINE",
"139 383 LINE SMOOTH",
"113 383 OFFCURVE",
"97 398 OFFCURVE",
"99 420 CURVE SMOOTH"
);
}
);
width = 308;
},
{
layerId = m002;
paths = (
{
closed = 1;
nodes = (
"141 488 LINE",
"133 490 OFFCURVE",
"125 491 OFFCURVE",
"116 491 CURVE SMOOTH",
"68 491 OFFCURVE",
"34 461 OFFCURVE",
"31 415 CURVE SMOOTH",
"27 360 OFFCURVE",
"63 323 OFFCURVE",
"120 323 CURVE SMOOTH",
"129 323 LINE",
"107 0 LINE",
"305 0 LINE",
"327 323 LINE",
"427 323 LINE",
"431 383 LINE",
"332 383 LINE",
"356 736 LINE",
"158 736 LINE"
);
},
{
closed = 1;
nodes = (
"92 430 OFFCURVE",
"104 441 OFFCURVE",
"120 441 CURVE SMOOTH",
"129 441 OFFCURVE",
"135 436 OFFCURVE",
"137 429 CURVE",
"134 383 LINE",
"121 383 LINE SMOOTH",
"101 383 OFFCURVE",
"89 395 OFFCURVE",
"91 413 CURVE SMOOTH"
);
}
);
width = 443;
}
);
leftKerningGroup = l;
leftMetricsKey = l;
rightKerningGroup = l;
rightMetricsKey = l;
unicode = 026C;
},
{
color = 10;
glyphname = lmiddletilde;
lastChange = "2023-09-01 16:55:28 +0000";
layers = (
{
layerId = "FD4D3FDD-DE85-408F-A52A-FF600B1C6101";
paths = (
{
closed = 1;
nodes = (
"195 0 LINE",
"218 325 LINE",
"230 321 OFFCURVE",
"244 318 OFFCURVE",
"260 318 CURVE SMOOTH",
"307 318 OFFCURVE",
"340 350 OFFCURVE",
"343 399 CURVE",
"296 399 LINE",
"294 376 OFFCURVE",
"277 361 OFFCURVE",
"254 361 CURVE SMOOTH",
"242 361 OFFCURVE",
"231 364 OFFCURVE",
"220 368 CURVE",
"246 736 LINE",
"198 736 LINE",
"174 388 LINE",
"160 394 OFFCURVE",
"145 398 OFFCURVE",
"127 398 CURVE SMOOTH",
"80 398 OFFCURVE",
"47 366 OFFCURVE",
"44 317 CURVE",
"92 317 LINE",
"93 340 OFFCURVE",
"111 355 OFFCURVE",
"133 355 CURVE SMOOTH",
"146 355 OFFCURVE",
"158 351 OFFCURVE",
"171 346 CURVE",
"147 0 LINE"
);
}
);
width = 373;
},
{
layerId = m002;
paths = (
{
closed = 1;
nodes = (
"343 0 LINE",
"367 345 LINE",
"381 344 OFFCURVE",
"392 343 OFFCURVE",
"399 343 CURVE SMOOTH",
"468 343 OFFCURVE",
"512 383 OFFCURVE",
"517 451 CURVE",
"412 451 LINE",
"411 438 OFFCURVE",
"402 431 OFFCURVE",
"388 431 CURVE SMOOTH",
"383 431 OFFCURVE",
"377 431 OFFCURVE",
"373 432 CURVE",
"394 736 LINE",
"196 736 LINE",
"176 453 LINE",
"163 454 OFFCURVE",
"152 455 OFFCURVE",
"146 455 CURVE SMOOTH",
"75 455 OFFCURVE",
"31 415 OFFCURVE",
"26 347 CURVE",
"131 347 LINE",
"132 360 OFFCURVE",
"141 368 OFFCURVE",
"156 368 CURVE SMOOTH",
"161 368 OFFCURVE",
"166 368 OFFCURVE",
"170 367 CURVE",
"145 0 LINE"
);
}
);
width = 524;
}
);
leftKerningGroup = l;
leftMetricsKey = l;
rightKerningGroup = l;
rightMetricsKey = l;
unicode = 026B;
},
{
color = 10;
glyphname = lslash;
lastChange = "2023-09-01 16:41:11 +0000";
layers = (
{
layerId = "FD4D3FDD-DE85-408F-A52A-FF600B1C6101";
paths = (
{
closed = 1;
nodes = (
"152 415 LINE",
"47 356 LINE",
"44 298 LINE",
"148 357 LINE",
"123 0 LINE",
"171 0 LINE",
"198 386 LINE",
"302 445 LINE",
"306 503 LINE",
"202 444 LINE",
"222 736 LINE",
"174 736 LINE"
);
}
);
width = 329;
},
{
layerId = m002;
paths = (
{
closed = 1;
nodes = (
"132 413 LINE",
"26 345 LINE",
"18 207 LINE",
"122 274 LINE",
"103 0 LINE",
"271 0 LINE",
"298 388 LINE",
"403 456 LINE",
"411 592 LINE",
"307 526 LINE",
"322 736 LINE",
"154 736 LINE"
);
}
);
width = 409;
}
);
leftKerningGroup = l;
leftMetricsKey = n;
rightKerningGroup = l;
rightMetricsKey = n;
unicode = 0142;
},
{
glyphname = m;
lastChange = "2023-09-06 00:27:43 +0000";
layers = (
{
anchors = (
{
name = Bottom;
position = "{477, 0}";
}
);
hints = (
{
horizontal = 1;
origin = "{0, 37}";
target = up;
type = BottomGhost;
}
);
layerId = "FD4D3FDD-DE85-408F-A52A-FF600B1C6101";
paths = (
{
closed = 1;
nodes = (
"90 292 LINE SMOOTH",
"98 410 OFFCURVE",
"184 490 OFFCURVE",
"306 490 CURVE SMOOTH",
"413 490 OFFCURVE",
"481 422 OFFCURVE",
"474 319 CURVE SMOOTH",
"452 0 LINE",
"500 0 LINE",
"522 322 LINE SMOOTH",
"529 422 OFFCURVE",
"614 490 OFFCURVE",
"734 490 CURVE SMOOTH",
"843 490 OFFCURVE",
"911 422 OFFCURVE",
"904 319 CURVE SMOOTH",
"882 0 LINE",
"930 0 LINE",
"952 322 LINE SMOOTH",
"961 447 OFFCURVE",
"876 532 OFFCURVE",
"740 532 CURVE SMOOTH",
"628 532 OFFCURVE",
"540 488 OFFCURVE",
"505 413 CURVE",
"504 413 OFFCURVE",
"503 413 OFFCURVE",
"503 413 CURVE",
"474 488 OFFCURVE",
"403 532 OFFCURVE",
"312 532 CURVE SMOOTH",
"218 532 OFFCURVE",
"138 493 OFFCURVE",
"97 428 CURVE",
"94 428 LINE",
"121 520 LINE",
"58 520 LINE",
"22 0 LINE",
"70 0 LINE"
);
}
);
width = 988;
},
{
anchors = (
{
name = Bottom;
position = "{521, 0}";
}
);
layerId = m002;
paths = (
{
closed = 1;
nodes = (
"219 274 LINE SMOOTH",
"223 330 OFFCURVE",
"272 370 OFFCURVE",
"339 370 CURVE SMOOTH",
"402 370 OFFCURVE",
"442 337 OFFCURVE",
"438 285 CURVE SMOOTH",
"418 0 LINE",
"616 0 LINE",
"635 274 LINE SMOOTH",
"639 330 OFFCURVE",
"688 370 OFFCURVE",
"755 370 CURVE SMOOTH",
"818 370 OFFCURVE",
"858 337 OFFCURVE",
"854 285 CURVE SMOOTH",
"834 0 LINE",
"1032 0 LINE",
"1053 311 LINE SMOOTH",
"1062 442 OFFCURVE",
"966 532 OFFCURVE",
"811 532 CURVE SMOOTH",
"724 532 OFFCURVE",
"636 503 OFFCURVE",
"600 465 CURVE",
"598 465 OFFCURVE",
"599 465 OFFCURVE",
"598 465 CURVE",
"569 504 OFFCURVE",
"489 532 OFFCURVE",
"399 532 CURVE SMOOTH",
"333 532 OFFCURVE",
"267 508 OFFCURVE",
"223 468 CURVE",
"220 468 LINE",
"245 520 LINE",
"38 520 LINE",
"2 0 LINE",
"200 0 LINE"
);
}
);
width = 1070;
}
);
leftKerningGroup = n;
leftMetricsKey = n;
rightKerningGroup = n;
rightMetricsKey = n;
unicode = 006D;
},
{
glyphname = n;
lastChange = "2023-09-06 00:29:07 +0000";
layers = (
{
anchors = (
{
name = Bottom;
position = "{278, 0}";
},
{
name = Top;
position = "{319, 532}";
}
);
layerId = "FD4D3FDD-DE85-408F-A52A-FF600B1C6101";
paths = (
{
closed = 1;
nodes = (
"90 284 LINE SMOOTH",
"99 413 OFFCURVE",
"185 490 OFFCURVE",
"322 490 CURVE SMOOTH",
"444 490 OFFCURVE",
"513 431 OFFCURVE",
"506 329 CURVE SMOOTH",
"483 0 LINE",
"531 0 LINE",
"554 332 LINE SMOOTH",
"563 457 OFFCURVE",
"478 532 OFFCURVE",
"328 532 CURVE SMOOTH",
"219 532 OFFCURVE",
"141 492 OFFCURVE",
"97 423 CURVE",
"94 423 LINE",
"121 520 LINE",
"58 520 LINE",
"22 0 LINE",
"70 0 LINE"
);
}
);
width = 589;
},
{
anchors = (
{
name = Bottom;
position = "{333, 0}";
},
{
name = Top;
position = "{355, 532}";
}
);
layerId = m002;
paths = (
{
closed = 1;
nodes = (
"218 256 LINE SMOOTH",
"223 324 OFFCURVE",
"277 370 OFFCURVE",
"354 370 CURVE SMOOTH",
"426 370 OFFCURVE",
"470 326 OFFCURVE",
"465 260 CURVE SMOOTH",
"447 0 LINE",
"645 0 LINE",
"668 331 LINE SMOOTH",
"676 452 OFFCURVE",
"574 532 OFFCURVE",
"412 532 CURVE SMOOTH",
"339 532 OFFCURVE",
"264 506 OFFCURVE",
"225 468 CURVE",
"222 468 LINE",
"245 520 LINE",
"38 520 LINE",
"2 0 LINE",
"200 0 LINE"
);
}
);
width = 683;
}
);
leftKerningGroup = n;
rightKerningGroup = n;
unicode = 006E;
},
{
color = 10;
glyphname = eng;
lastChange = "2023-09-01 16:50:26 +0000";
layers = (
{
layerId = "FD4D3FDD-DE85-408F-A52A-FF600B1C6101";
paths = (
{
closed = 1;
nodes = (
"90 284 LINE SMOOTH",
"99 413 OFFCURVE",
"185 490 OFFCURVE",
"322 490 CURVE SMOOTH",
"444 490 OFFCURVE",
"513 431 OFFCURVE",
"506 329 CURVE SMOOTH",
"478 -69 LINE SMOOTH",
"472 -146 OFFCURVE",
"425 -192 OFFCURVE",
"349 -192 CURVE SMOOTH",
"331 -192 OFFCURVE",
"313 -191 OFFCURVE",
"301 -188 CURVE",
"299 -230 LINE",
"314 -232 OFFCURVE",
"332 -233 OFFCURVE",
"348 -233 CURVE SMOOTH",
"453 -233 OFFCURVE",
"519 -173 OFFCURVE",
"526 -71 CURVE SMOOTH",
"554 332 LINE SMOOTH",
"563 457 OFFCURVE",
"478 532 OFFCURVE",
"328 532 CURVE SMOOTH",
"219 532 OFFCURVE",
"133 492 OFFCURVE",
"96 423 CURVE",
"94 422 LINE",
"111 520 LINE",
"58 520 LINE",
"22 0 LINE",
"70 0 LINE"
);
}
);
width = 589;
},
{
layerId = m002;
paths = (
{
closed = 1;
nodes = (
"218 256 LINE SMOOTH",
"222 323 OFFCURVE",
"278 370 OFFCURVE",
"354 370 CURVE SMOOTH",
"426 370 OFFCURVE",
"470 327 OFFCURVE",
"465 260 CURVE SMOOTH",
"446 -10 LINE SMOOTH",
"443 -49 OFFCURVE",
"423 -74 OFFCURVE",
"393 -74 CURVE SMOOTH",
"377 -74 OFFCURVE",
"359 -74 OFFCURVE",
"347 -71 CURVE",
"340 -230 LINE",
"351 -232 OFFCURVE",
"369 -233 OFFCURVE",
"390 -233 CURVE SMOOTH",
"541 -233 OFFCURVE",
"634 -152 OFFCURVE",
"644 -12 CURVE SMOOTH",
"668 331 LINE SMOOTH",
"676 450 OFFCURVE",
"574 532 OFFCURVE",
"412 532 CURVE SMOOTH",
"322 532 OFFCURVE",
"243 512 OFFCURVE",
"216 479 CURVE",
"213 477 LINE",
"237 520 LINE",
"38 520 LINE",
"2 0 LINE",
"200 0 LINE"
);
}
);
width = 683;
}
);
leftKerningGroup = n;
leftMetricsKey = n;
rightKerningGroup = n;
rightMetricsKey = n;
unicode = 014B;
},
{
glyphname = o;
lastChange = "2023-09-05 19:32:35 +0000";
layers = (
{
anchors = (
{
name = Bottom;
position = "{304, 0}";
},
{
name = Top;
position = "{340, 532}";
}
);
layerId = "FD4D3FDD-DE85-408F-A52A-FF600B1C6101";
paths = (
{
closed = 1;
nodes = (
"165 532 OFFCURVE",
"41 423 OFFCURVE",
"30 260 CURVE SMOOTH",
"18 96 OFFCURVE",
"128 -13 OFFCURVE",
"304 -13 CURVE SMOOTH",
"479 -13 OFFCURVE",
"603 95 OFFCURVE",
"615 258 CURVE SMOOTH",
"626 422 OFFCURVE",
"516 532 OFFCURVE",
"340 532 CURVE SMOOTH"
);
},
{
closed = 1;
nodes = (
"77 389 OFFCURVE",
"182 490 OFFCURVE",
"339 490 CURVE SMOOTH",
"476 490 OFFCURVE",
"568 406 OFFCURVE",
"568 280 CURVE SMOOTH",
"568 129 OFFCURVE",
"462 29 OFFCURVE",
"304 29 CURVE SMOOTH",
"168 29 OFFCURVE",
"77 113 OFFCURVE",
"77 238 CURVE SMOOTH"
);
}
);
width = 645;
},
{
anchors = (
{
name = Bottom;
position = "{342, 0}";
},
{
name = Top;
position = "{369, 532}";
}
);
layerId = m002;
paths = (
{
closed = 1;
nodes = (
"155 532 OFFCURVE",
"22 432 OFFCURVE",
"10 264 CURVE SMOOTH",
"-2 90 OFFCURVE",
"121 -13 OFFCURVE",
"340 -13 CURVE SMOOTH",
"555 -13 OFFCURVE",
"689 86 OFFCURVE",
"700 254 CURVE SMOOTH",
"713 429 OFFCURVE",
"590 532 OFFCURVE",
"369 532 CURVE SMOOTH"
);
},
{
closed = 1;
nodes = (
"223 333 OFFCURVE",
"279 380 OFFCURVE",
"368 380 CURVE SMOOTH",
"452 380 OFFCURVE",
"498 337 OFFCURVE",
"493 264 CURVE SMOOTH",
"488 185 OFFCURVE",
"432 139 OFFCURVE",
"342 139 CURVE SMOOTH",
"258 139 OFFCURVE",
"212 182 OFFCURVE",
"217 254 CURVE SMOOTH"
);
}
);
width = 710;
}
);
leftKerningGroup = o;
rightKerningGroup = o;
unicode = 006F;
},
{
color = 10;
glyphname = oopen;
lastChange = "2023-09-01 16:50:43 +0000";
layers = (
{
layerId = "FD4D3FDD-DE85-408F-A52A-FF600B1C6101";
paths = (
{
closed = 1;
nodes = (
"44 437 LINE",
"80 469 OFFCURVE",
"157 490 OFFCURVE",
"236 490 CURVE SMOOTH",
"354 490 OFFCURVE",
"433 408 OFFCURVE",
"433 284 CURVE SMOOTH",
"433 131 OFFCURVE",
"339 29 OFFCURVE",
"197 29 CURVE SMOOTH",
"121 29 OFFCURVE",
"49 50 OFFCURVE",
"18 81 CURVE",
"15 33 LINE",
"44 5 OFFCURVE",
"116 -13 OFFCURVE",
"197 -13 CURVE SMOOTH",
"367 -13 OFFCURVE",
"481 106 OFFCURVE",
"481 284 CURVE SMOOTH",
"481 433 OFFCURVE",
"383 532 OFFCURVE",
"237 532 CURVE SMOOTH",
"160 532 OFFCURVE",
"84 514 OFFCURVE",
"46 488 CURVE"
);
}
);
width = 510;
},
{
layerId = m002;
paths = (
{
closed = 1;
nodes = (
"19 340 LINE",
"41 359 OFFCURVE",
"90 370 OFFCURVE",
"150 370 CURVE SMOOTH",
"246 370 OFFCURVE",
"302 334 OFFCURVE",
"302 273 CURVE SMOOTH",
"302 195 OFFCURVE",
"241 149 OFFCURVE",
"138 149 CURVE SMOOTH",
"77 149 OFFCURVE",
"27 155 OFFCURVE",
"3 166 CURVE",
"-4 2 LINE",
"39 -7 OFFCURVE",
"98 -13 OFFCURVE",
"155 -13 CURVE SMOOTH",
"378 -13 OFFCURVE",
"510 95 OFFCURVE",
"510 278 CURVE SMOOTH",
"510 438 OFFCURVE",
"386 532 OFFCURVE",
"177 532 CURVE SMOOTH",
"119 532 OFFCURVE",
"64 526 OFFCURVE",
"28 516 CURVE"
);
}
);
width = 520;
}
);
leftKerningGroup = o;
leftMetricsKey = o;
rightKerningGroup = o;
rightMetricsKey = o;
unicode = 0254;
},
{
color = 10;
glyphname = oslash;
lastChange = "2023-09-01 16:28:52 +0000";
layers = (
{
anchors = (
{
name = Top;
position = "{341, 532}";
}
);
layerId = "FD4D3FDD-DE85-408F-A52A-FF600B1C6101";
paths = (
{
closed = 1;
nodes = (
"165 532 OFFCURVE",
"41 423 OFFCURVE",
"30 260 CURVE SMOOTH",
"21 136 OFFCURVE",
"81 44 OFFCURVE",
"187 6 CURVE",
"163 -50 LINE",
"216 -50 LINE",
"235 -7 LINE",
"257 -11 OFFCURVE",
"280 -13 OFFCURVE",
"304 -13 CURVE SMOOTH",
"479 -13 OFFCURVE",
"603 95 OFFCURVE",
"615 258 CURVE SMOOTH",
"623 380 OFFCURVE",
"564 472 OFFCURVE",
"461 512 CURVE",
"481 558 LINE",
"427 558 LINE",
"413 525 LINE",
"390 530 OFFCURVE",
"366 532 OFFCURVE",
"340 532 CURVE SMOOTH"
);
},
{
closed = 1;
nodes = (
"77 389 OFFCURVE",
"182 490 OFFCURVE",
"339 490 CURVE SMOOTH",
"359 490 OFFCURVE",
"378 488 OFFCURVE",
"395 485 CURVE",
"205 46 LINE",
"126 77 OFFCURVE",
"77 147 OFFCURVE",
"77 238 CURVE SMOOTH"
);
},
{
closed = 1;
nodes = (
"443 471 LINE",
"521 439 OFFCURVE",
"568 370 OFFCURVE",
"568 280 CURVE SMOOTH",
"568 129 OFFCURVE",
"462 29 OFFCURVE",
"304 29 CURVE SMOOTH",
"286 29 OFFCURVE",
"269 30 OFFCURVE",
"252 33 CURVE"
);
}
);
width = 645;
},
{
anchors = (
{
name = Top;
position = "{368, 532}";
}
);
layerId = m002;
paths = (
{
closed = 1;
nodes = (
"155 532 OFFCURVE",
"22 432 OFFCURVE",
"10 264 CURVE SMOOTH",
"1 131 OFFCURVE",
"70 40 OFFCURVE",
"201 4 CURVE",
"178 -50 LINE",
"267 -50 LINE",
"284 -11 LINE",
"302 -12 OFFCURVE",
"321 -13 OFFCURVE",
"340 -13 CURVE SMOOTH",
"555 -13 OFFCURVE",
"689 86 OFFCURVE",
"700 254 CURVE SMOOTH",
"710 387 OFFCURVE",
"642 478 OFFCURVE",
"512 514 CURVE",
"531 558 LINE",
"443 558 LINE",
"430 529 LINE",
"411 531 OFFCURVE",
"390 532 OFFCURVE",
"369 532 CURVE SMOOTH"
);
},
{
closed = 1;
nodes = (
"223 331 OFFCURVE",
"275 378 OFFCURVE",
"360 380 CURVE SMOOTH",
"361 380 OFFCURVE",
"364 380 OFFCURVE",
"365 380 CURVE",
"267 155 LINE",
"232 173 OFFCURVE",
"214 208 OFFCURVE",
"217 254 CURVE SMOOTH"
);
},
{
closed = 1;
nodes = (
"446 362 LINE",
"479 343 OFFCURVE",
"496 309 OFFCURVE",
"493 264 CURVE SMOOTH",
"488 188 OFFCURVE",
"439 142 OFFCURVE",
"355 139 CURVE SMOOTH",
"354 139 OFFCURVE",
"350 139 OFFCURVE",
"349 139 CURVE"
);
}
);
width = 710;
}
);
leftKerningGroup = o;
leftMetricsKey = o;
rightKerningGroup = o;
rightMetricsKey = o;
unicode = 00F8;
},
{
color = 10;
glyphname = oe;
lastChange = "2023-09-01 16:28:52 +0000";
layers = (
{
layerId = "FD4D3FDD-DE85-408F-A52A-FF600B1C6101";
paths = (
{
closed = 1;
nodes = (
"165 532 OFFCURVE",
"41 423 OFFCURVE",
"30 260 CURVE SMOOTH",
"18 96 OFFCURVE",
"128 -13 OFFCURVE",
"304 -13 CURVE SMOOTH",
"438 -13 OFFCURVE",
"542 50 OFFCURVE",
"589 153 CURVE",
"622 51 OFFCURVE",
"717 -13 OFFCURVE",
"850 -13 CURVE SMOOTH",
"996 -13 OFFCURVE",
"1110 55 OFFCURVE",
"1136 158 CURVE",
"1088 160 LINE",
"1066 81 OFFCURVE",
"972 29 OFFCURVE",
"853 29 CURVE SMOOTH",
"716 29 OFFCURVE",
"624 114 OFFCURVE",
"624 241 CURVE SMOOTH",
"624 256 LINE",
"1148 256 LINE",
"1150 297 LINE SMOOTH",
"1160 438 OFFCURVE",
"1052 532 OFFCURVE",
"880 532 CURVE SMOOTH",
"749 532 OFFCURVE",
"648 469 OFFCURVE",
"602 368 CURVE",
"568 469 OFFCURVE",
"473 532 OFFCURVE",
"340 532 CURVE SMOOTH"
);
},
{
closed = 1;
nodes = (
"77 389 OFFCURVE",
"182 490 OFFCURVE",
"339 490 CURVE SMOOTH",
"476 490 OFFCURVE",
"568 406 OFFCURVE",
"568 280 CURVE SMOOTH",
"568 129 OFFCURVE",
"462 29 OFFCURVE",
"304 29 CURVE SMOOTH",
"168 29 OFFCURVE",
"77 113 OFFCURVE",
"77 238 CURVE SMOOTH"
);
},
{
closed = 1;
nodes = (
"652 415 OFFCURVE",
"747 490 OFFCURVE",
"880 490 CURVE SMOOTH",
"1022 490 OFFCURVE",
"1110 413 OFFCURVE",
"1103 298 CURVE",
"629 298 LINE"
);
}
);
width = 1178;
},
{
layerId = m002;
paths = (
{
closed = 1;
nodes = (
"155 532 OFFCURVE",
"22 432 OFFCURVE",
"10 264 CURVE SMOOTH",
"-2 90 OFFCURVE",
"121 -13 OFFCURVE",
"340 -13 CURVE SMOOTH",
"477 -13 OFFCURVE",
"582 27 OFFCURVE",
"642 100 CURVE",
"695 27 OFFCURVE",
"797 -13 OFFCURVE",
"937 -13 CURVE SMOOTH",
"1122 -13 OFFCURVE",
"1249 56 OFFCURVE",
"1281 173 CURVE",
"1082 177 LINE",
"1072 144 OFFCURVE",
"1021 124 OFFCURVE",
"945 124 CURVE SMOOTH",
"872 124 OFFCURVE",
"825 157 OFFCURVE",
"814 214 CURVE",
"1279 214 LINE",
"1281 260 LINE",
"1282 260 LINE",
"1294 431 OFFCURVE",
"1176 532 OFFCURVE",
"963 532 CURVE SMOOTH",
"825 532 OFFCURVE",
"721 491 OFFCURVE",
"660 418 CURVE",
"607 492 OFFCURVE",
"507 532 OFFCURVE",
"369 532 CURVE SMOOTH"
);
},
{
closed = 1;
nodes = (
"223 333 OFFCURVE",
"279 380 OFFCURVE",
"368 380 CURVE SMOOTH",
"452 380 OFFCURVE",
"498 337 OFFCURVE",
"493 264 CURVE SMOOTH",
"488 185 OFFCURVE",
"432 139 OFFCURVE",
"342 139 CURVE SMOOTH",
"258 139 OFFCURVE",
"212 182 OFFCURVE",
"217 254 CURVE SMOOTH"
);
},
{
closed = 1;
nodes = (
"849 366 OFFCURVE",
"897 395 OFFCURVE",
"963 395 CURVE SMOOTH",
"1026 395 OFFCURVE",
"1066 366 OFFCURVE",
"1075 315 CURVE",
"826 314 LINE"
);
}
);
width = 1297;
}
);
leftKerningGroup = o;
leftMetricsKey = o;
rightKerningGroup = o;
rightMetricsKey = e;
unicode = 0153;
},
{
glyphname = p;
lastChange = "2023-09-06 00:32:28 +0000";
layers = (
{
anchors = (
{
name = Top;
position = "{342, 532}";
}
);
layerId = "FD4D3FDD-DE85-408F-A52A-FF600B1C6101";
paths = (
{
closed = 1;
nodes = (
"247 532 OFFCURVE",
"152 488 OFFCURVE",
"102 423 CURVE",
"99 423 LINE",
"121 520 LINE",
"58 520 LINE",
"7 -216 LINE",
"55 -216 LINE",
"70 0 LINE",
"72 108 LINE",
"76 108 LINE",
"116 35 OFFCURVE",
"213 -13 OFFCURVE",
"320 -13 CURVE SMOOTH",
"487 -13 OFFCURVE",
"606 95 OFFCURVE",
"618 257 CURVE SMOOTH",
"629 422 OFFCURVE",
"518 532 OFFCURVE",
"341 532 CURVE SMOOTH"
);
},
{
closed = 1;
nodes = (
"87 389 OFFCURVE",
"188 490 OFFCURVE",
"340 490 CURVE SMOOTH",
"487 490 OFFCURVE",
"579 398 OFFCURVE",
"570 259 CURVE SMOOTH",
"560 121 OFFCURVE",
"458 29 OFFCURVE",
"314 29 CURVE SMOOTH",
"178 29 OFFCURVE",
"87 113 OFFCURVE",
"87 238 CURVE SMOOTH"
);
}
);
width = 648;
},
{
anchors = (
{
name = Top;
position = "{382, 532}";
}
);
layerId = m002;
paths = (
{
closed = 1;
nodes = (
"321 532 OFFCURVE",
"255 514 OFFCURVE",
"225 484 CURVE",
"222 484 LINE",
"245 520 LINE",
"38 520 LINE",
"-13 -216 LINE",
"185 -216 LINE",
"197 -29 LINE",
"196 23 LINE",
"199 23 LINE",
"238 0 OFFCURVE",
"302 -13 OFFCURVE",
"370 -13 CURVE SMOOTH",
"579 -13 OFFCURVE",
"702 96 OFFCURVE",
"702 280 CURVE SMOOTH",
"702 438 OFFCURVE",
"591 532 OFFCURVE",
"403 532 CURVE SMOOTH"
);
},
{
closed = 1;
nodes = (
"224 345 OFFCURVE",
"281 398 OFFCURVE",
"370 398 CURVE SMOOTH",
"449 398 OFFCURVE",
"495 353 OFFCURVE",
"495 278 CURVE SMOOTH",
"495 178 OFFCURVE",
"438 119 OFFCURVE",
"341 119 CURVE SMOOTH",
"258 119 OFFCURVE",
"212 169 OFFCURVE",
"217 254 CURVE SMOOTH"
);
}
);
width = 712;
}
);
leftKerningGroup = n;
leftMetricsKey = n;
rightKerningGroup = o;
rightMetricsKey = o;
unicode = 0070;
},
{
color = 10;
glyphname = thorn;
lastChange = "2023-09-01 16:29:42 +0000";
layers = (
{
layerId = "FD4D3FDD-DE85-408F-A52A-FF600B1C6101";
paths = (
{
closed = 1;
nodes = (
"248 532 OFFCURVE",
"150 486 OFFCURVE",
"98 417 CURVE",
"96 418 LINE",
"106 520 LINE",
"121 736 LINE",
"73 736 LINE",
"7 -216 LINE",
"55 -216 LINE",
"70 0 LINE",
"72 108 LINE",
"75 109 LINE",
"115 36 OFFCURVE",
"213 -13 OFFCURVE",
"320 -13 CURVE SMOOTH",
"487 -13 OFFCURVE",
"606 95 OFFCURVE",
"618 257 CURVE SMOOTH",
"629 422 OFFCURVE",
"518 532 OFFCURVE",
"341 532 CURVE SMOOTH"
);
},
{
closed = 1;
nodes = (
"87 389 OFFCURVE",
"188 490 OFFCURVE",
"340 490 CURVE SMOOTH",
"487 490 OFFCURVE",
"579 398 OFFCURVE",
"570 259 CURVE SMOOTH",
"560 121 OFFCURVE",
"458 29 OFFCURVE",
"314 29 CURVE SMOOTH",
"178 29 OFFCURVE",
"87 113 OFFCURVE",
"87 238 CURVE SMOOTH"
);
}
);
width = 648;
},
{
layerId = m002;
paths = (
{
closed = 1;
nodes = (
"321 532 OFFCURVE",
"253 513 OFFCURVE",
"223 483 CURVE",
"221 484 LINE",
"245 520 LINE",
"259 736 LINE",
"53 736 LINE",
"-13 -216 LINE",
"185 -216 LINE",
"197 -29 LINE",
"196 23 LINE",
"200 24 LINE",
"239 1 OFFCURVE",
"302 -13 OFFCURVE",
"370 -13 CURVE SMOOTH",
"579 -13 OFFCURVE",
"702 96 OFFCURVE",
"702 280 CURVE SMOOTH",
"702 438 OFFCURVE",
"591 532 OFFCURVE",
"403 532 CURVE SMOOTH"
);
},
{
closed = 1;
nodes = (
"224 345 OFFCURVE",
"281 398 OFFCURVE",
"370 398 CURVE SMOOTH",
"449 398 OFFCURVE",
"495 353 OFFCURVE",
"495 278 CURVE SMOOTH",
"495 178 OFFCURVE",
"438 119 OFFCURVE",
"341 119 CURVE SMOOTH",
"258 119 OFFCURVE",
"212 169 OFFCURVE",
"217 254 CURVE SMOOTH"
);
}
);
width = 712;
}
);
leftKerningGroup = n;
leftMetricsKey = p;
rightKerningGroup = o;
rightMetricsKey = p;
unicode = 00FE;
},
{
glyphname = q;
lastChange = "2023-09-06 00:32:38 +0000";
layers = (
{
anchors = (
{
name = Top;
position = "{356, 532}";
}
);
layerId = "FD4D3FDD-DE85-408F-A52A-FF600B1C6101";
paths = (
{
closed = 1;
nodes = (
"155 532 OFFCURVE",
"29 413 OFFCURVE",
"29 234 CURVE SMOOTH",
"29 86 OFFCURVE",
"134 -13 OFFCURVE",
"292 -13 CURVE SMOOTH",
"399 -13 OFFCURVE",
"502 36 OFFCURVE",
"551 108 CURVE",
"554 108 LINE",
"542 0 LINE",
"527 -216 LINE",
"575 -216 LINE",
"626 520 LINE",
"563 520 LINE",
"571 422 LINE",
"568 422 LINE",
"526 489 OFFCURVE",
"437 532 OFFCURVE",
"343 532 CURVE SMOOTH"
);
},
{
closed = 1;
nodes = (
"77 388 OFFCURVE",
"183 490 OFFCURVE",
"342 490 CURVE SMOOTH",
"473 490 OFFCURVE",
"561 406 OFFCURVE",
"561 281 CURVE SMOOTH",
"561 130 OFFCURVE",
"456 29 OFFCURVE",
"298 29 CURVE SMOOTH",
"165 29 OFFCURVE",
"77 112 OFFCURVE",
"77 236 CURVE SMOOTH"
);
}
);
width = 648;
},
{
anchors = (
{
name = Top;
position = "{378, 532}";
}
);
layerId = m002;
paths = (
{
closed = 1;
nodes = (
"131 532 OFFCURVE",
"9 423 OFFCURVE",
"9 238 CURVE SMOOTH",
"9 80 OFFCURVE",
"122 -13 OFFCURVE",
"312 -13 CURVE SMOOTH",
"379 -13 OFFCURVE",
"440 1 OFFCURVE",
"479 22 CURVE",
"482 22 LINE",
"473 -29 LINE",
"461 -216 LINE",
"659 -216 LINE",
"710 520 LINE",
"503 520 LINE",
"519 482 LINE",
"515 482 LINE",
"477 513 OFFCURVE",
"411 532 OFFCURVE",
"337 532 CURVE SMOOTH"
);
},
{
closed = 1;
nodes = (
"216 339 OFFCURVE",
"273 398 OFFCURVE",
"370 398 CURVE SMOOTH",
"449 398 OFFCURVE",
"495 354 OFFCURVE",
"495 279 CURVE SMOOTH",
"495 178 OFFCURVE",
"438 119 OFFCURVE",
"341 119 CURVE SMOOTH",
"262 119 OFFCURVE",
"216 164 OFFCURVE",
"216 239 CURVE SMOOTH"
);
}
);
width = 712;
}
);
leftKerningGroup = o;
leftMetricsKey = o;
rightKerningGroup = n;
rightMetricsKey = n;
unicode = 0071;
},
{
glyphname = r;
lastChange = "2023-09-06 00:33:08 +0000";
layers = (
{
anchors = (
{
name = Bottom;
position = "{46, 0}";
},
{
name = Top;
position = "{212, 532}";
}
);
layerId = "FD4D3FDD-DE85-408F-A52A-FF600B1C6101";
paths = (
{
closed = 1;
nodes = (
"89 279 LINE SMOOTH",
"98 405 OFFCURVE",
"179 490 OFFCURVE",
"292 490 CURVE SMOOTH",
"321 490 OFFCURVE",
"352 485 OFFCURVE",
"368 478 CURVE",
"377 521 LINE",
"360 528 OFFCURVE",
"327 532 OFFCURVE",
"295 532 CURVE SMOOTH",
"211 532 OFFCURVE",
"139 495 OFFCURVE",
"106 438 CURVE",
"103 438 LINE",
"121 520 LINE",
"58 520 LINE",
"22 0 LINE",
"70 0 LINE"
);
}
);
width = 379;
},
{
anchors = (
{
name = Bottom;
position = "{116, 0}";
},
{
name = Top;
position = "{257, 532}";
}
);
layerId = m002;
paths = (
{
closed = 1;
nodes = (
"216 235 LINE SMOOTH",
"221 315 OFFCURVE",
"287 371 OFFCURVE",
"378 371 CURVE SMOOTH",
"403 371 OFFCURVE",
"432 367 OFFCURVE",
"452 359 CURVE",
"485 520 LINE",
"463 527 OFFCURVE",
"423 533 OFFCURVE",
"380 533 CURVE SMOOTH",
"316 533 OFFCURVE",
"262 515 OFFCURVE",
"229 481 CURVE",
"226 481 LINE",
"245 520 LINE",
"38 520 LINE",
"2 0 LINE",
"200 0 LINE"
);
}
);
width = 477;
}
);
leftKerningGroup = n;
leftMetricsKey = n;
rightKerningGroup = r;
rightMetricsKey = k;
unicode = 0072;
},
{
glyphname = s;
lastChange = "2023-09-01 16:16:30 +0000";
layers = (
{
anchors = (
{
name = Bottom;
position = "{262, 0}";
},
{
name = Top;
position = "{289, 532}";
}
);
layerId = "FD4D3FDD-DE85-408F-A52A-FF600B1C6101";
paths = (
{
closed = 1;
nodes = (
"143 532 OFFCURVE",
"58 474 OFFCURVE",
"58 377 CURVE SMOOTH",
"58 191 OFFCURVE",
"456 285 OFFCURVE",
"456 143 CURVE SMOOTH",
"456 71 OFFCURVE",
"386 29 OFFCURVE",
"268 29 CURVE SMOOTH",
"139 29 OFFCURVE",
"66 80 OFFCURVE",
"72 166 CURVE",
"24 168 LINE",
"16 54 OFFCURVE",
"106 -13 OFFCURVE",
"265 -13 CURVE SMOOTH",
"415 -13 OFFCURVE",
"504 47 OFFCURVE",
"504 148 CURVE SMOOTH",
"504 328 OFFCURVE",
"106 239 OFFCURVE",
"106 382 CURVE SMOOTH",
"106 450 OFFCURVE",
"172 490 OFFCURVE",
"285 490 CURVE SMOOTH",
"400 490 OFFCURVE",
"465 445 OFFCURVE",
"459 370 CURVE",
"507 368 LINE",
"515 471 OFFCURVE",
"419 532 OFFCURVE",
"288 532 CURVE SMOOTH"
);
}
);
width = 542;
},
{
anchors = (
{
name = Bottom;
position = "{308, 0}";
},
{
name = Top;
position = "{339, 532}";
}
);
layerId = m002;
paths = (
{
closed = 1;
nodes = (
"152 532 OFFCURVE",
"44 466 OFFCURVE",
"44 353 CURVE SMOOTH",
"44 148 OFFCURVE",
"417 227 OFFCURVE",
"417 171 CURVE SMOOTH",
"417 145 OFFCURVE",
"378 129 OFFCURVE",
"313 129 CURVE SMOOTH",
"247 129 OFFCURVE",
"210 148 OFFCURVE",
"212 180 CURVE",
"15 184 LINE",
"6 60 OFFCURVE",
"116 -13 OFFCURVE",
"311 -13 CURVE SMOOTH",
"501 -13 OFFCURVE",
"613 52 OFFCURVE",
"613 163 CURVE SMOOTH",
"613 356 OFFCURVE",
"241 280 OFFCURVE",
"241 346 CURVE SMOOTH",
"241 374 OFFCURVE",
"277 390 OFFCURVE",
"339 390 CURVE SMOOTH",
"395 390 OFFCURVE",
"427 374 OFFCURVE",
"425 346 CURVE",
"623 342 LINE",
"631 461 OFFCURVE",
"524 532 OFFCURVE",
"334 532 CURVE SMOOTH"
);
}
);
width = 640;
}
);
leftKerningGroup = s;
rightKerningGroup = s;
unicode = 0073;
},
{
color = 10;
glyphname = saltillo;
lastChange = "2023-09-01 16:45:41 +0000";
layers = (
{
layerId = "FD4D3FDD-DE85-408F-A52A-FF600B1C6101";
paths = (
{
closed = 1;
nodes = (
"58 520 LINE",
"55 409 LINE",
"85 409 LINE",
"98 520 LINE",
"113 730 LINE",
"73 730 LINE"
);
}
);
width = 120;
},
{
layerId = m002;
paths = (
{
closed = 1;
nodes = (
"38 520 LINE",
"35 409 LINE",
"175 409 LINE",
"188 520 LINE",
"203 730 LINE",
"53 730 LINE"
);
}
);
width = 190;
}
);
leftKerningGroup = n;
leftMetricsKey = n;
rightKerningGroup = n;
rightMetricsKey = n;
unicode = A78C;
},
{
color = 10;
glyphname = germandbls;
lastChange = "2023-09-01 16:29:39 +0000";
layers = (
{
layerId = "FD4D3FDD-DE85-408F-A52A-FF600B1C6101";
paths = (
{
closed = 1;
nodes = (
"22 0 LINE",
"70 0 LINE",
"110 582 LINE SMOOTH",
"115 649 OFFCURVE",
"177 695 OFFCURVE",
"264 695 CURVE SMOOTH",
"331 695 OFFCURVE",
"377 668 OFFCURVE",
"409 625 CURVE SMOOTH",
"490 518 LINE",
"390 508 OFFCURVE",
"324 459 OFFCURVE",
"324 386 CURVE SMOOTH",
"324 246 OFFCURVE",
"561 256 OFFCURVE",
"561 122 CURVE SMOOTH",
"561 68 OFFCURVE",
"512 29 OFFCURVE",
"437 29 CURVE SMOOTH",
"408 29 OFFCURVE",
"358 38 OFFCURVE",
"326 52 CURVE",
"324 10 LINE",
"348 -4 OFFCURVE",
"398 -13 OFFCURVE",
"436 -13 CURVE SMOOTH",
"539 -13 OFFCURVE",
"609 43 OFFCURVE",
"609 128 CURVE SMOOTH",
"609 296 OFFCURVE",
"372 290 OFFCURVE",
"372 392 CURVE SMOOTH",
"372 440 OFFCURVE",
"432 478 OFFCURVE",
"520 478 CURVE",
"553 520 LINE",
"445 656 LINE SMOOTH",
"407 703 OFFCURVE",
"349 736 OFFCURVE",
"267 736 CURVE SMOOTH",
"151 736 OFFCURVE",
"69 671 OFFCURVE",
"62 572 CURVE SMOOTH"
);
}
);
width = 649;
},
{
layerId = m002;
paths = (
{
closed = 1;
nodes = (
"2 0 LINE",
"200 0 LINE",
"235 501 LINE SMOOTH",
"238 544 OFFCURVE",
"278 575 OFFCURVE",
"335 575 CURVE SMOOTH",
"391 575 OFFCURVE",
"417 553 OFFCURVE",
"445 515 CURVE SMOOTH",
"454 503 LINE",
"372 477 OFFCURVE",
"322 423 OFFCURVE",
"322 360 CURVE SMOOTH",
"322 243 OFFCURVE",
"487 210 OFFCURVE",
"485 174 CURVE SMOOTH",
"484 159 OFFCURVE",
"463 149 OFFCURVE",
"433 149 CURVE SMOOTH",
"412 149 OFFCURVE",
"376 157 OFFCURVE",
"343 171 CURVE",
"335 11 LINE",
"360 -3 OFFCURVE",
"409 -13 OFFCURVE",
"459 -13 CURVE SMOOTH",
"591 -13 OFFCURVE",
"680 52 OFFCURVE",
"680 150 CURVE SMOOTH",
"680 282 OFFCURVE",
"518 294 OFFCURVE",
"518 336 CURVE SMOOTH",
"518 359 OFFCURVE",
"541 370 OFFCURVE",
"562 358 CURVE",
"705 503 LINE",
"603 623 LINE SMOOTH",
"547 693 OFFCURVE",
"447 736 OFFCURVE",
"335 736 CURVE SMOOTH",
"170 736 OFFCURVE",
"47 648 OFFCURVE",
"38 513 CURVE SMOOTH"
);
}
);
width = 698;
}
);
leftKerningGroup = n;
leftMetricsKey = n;
rightKerningGroup = germandbls;
rightMetricsKey = o;
unicode = 00DF;
},
{
glyphname = t;
lastChange = "2023-09-01 16:16:30 +0000";
layers = (
{
anchors = (
{
name = Bottom;
position = "{235, 0}";
},
{
name = Top;
position = "{302, 532}";
},
{
name = Top_EC;
position = "{253, 532}";
}
);
hints = (
{
place = "{149, 0}";
type = Stem;
}
);
layerId = "FD4D3FDD-DE85-408F-A52A-FF600B1C6101";
paths = (
{
closed = 1;
nodes = (
"126 160 LINE SMOOTH",
"119 56 OFFCURVE",
"188 -13 OFFCURVE",
"299 -13 CURVE SMOOTH",
"317 -13 OFFCURVE",
"339 -9 OFFCURVE",
"354 -3 CURVE",
"356 39 LINE",
"346 32 OFFCURVE",
"322 28 OFFCURVE",
"298 28 CURVE SMOOTH",
"218 28 OFFCURVE",
"168 80 OFFCURVE",
"174 158 CURVE SMOOTH",
"196 478 LINE",
"330 478 LINE",
"333 520 LINE",
"199 520 LINE",
"207 629 LINE",
"159 629 LINE",
"151 518 LINE",
"58 523 LINE",
"55 478 LINE",
"148 478 LINE"
);
}
);
width = 412;
},
{
anchors = (
{
name = Bottom;
position = "{277, 0}";
},
{
name = Top;
position = "{393, 520}";
},
{
name = Top_EC;
position = "{384, 520}";
}
);
hints = (
{
place = "{149, 0}";
type = Stem;
}
);
layerId = m002;
paths = (
{
closed = 1;
nodes = (
"78 193 LINE SMOOTH",
"70 71 OFFCURVE",
"171 -13 OFFCURVE",
"331 -13 CURVE SMOOTH",
"370 -13 OFFCURVE",
"409 -9 OFFCURVE",
"428 -1 CURVE",
"435 161 LINE",
"412 153 OFFCURVE",
"376 146 OFFCURVE",
"342 146 CURVE SMOOTH",
"301 146 OFFCURVE",
"275 170 OFFCURVE",
"277 209 CURVE SMOOTH",
"289 370 LINE",
"393 370 LINE",
"403 520 LINE",
"299 520 LINE",
"307 629 LINE",
"109 629 LINE",
"101 518 LINE",
"28 523 LINE",
"18 370 LINE",
"91 370 LINE"
);
}
);
width = 466;
}
);
leftKerningGroup = t;
rightKerningGroup = t;
unicode = 0074;
},
{
color = 10;
glyphname = tbar;
lastChange = "2023-09-01 16:53:51 +0000";
layers = (
{
layerId = "FD4D3FDD-DE85-408F-A52A-FF600B1C6101";
paths = (
{
closed = 1;
nodes = (
"140 368 LINE",
"48 373 LINE",
"45 328 LINE",
"138 328 LINE",
"126 160 LINE SMOOTH",
"119 56 OFFCURVE",
"188 -13 OFFCURVE",
"299 -13 CURVE SMOOTH",
"317 -13 OFFCURVE",
"339 -9 OFFCURVE",
"354 -3 CURVE",
"356 39 LINE",
"346 32 OFFCURVE",
"322 28 OFFCURVE",
"298 28 CURVE SMOOTH",
"218 28 OFFCURVE",
"168 80 OFFCURVE",
"174 158 CURVE SMOOTH",
"186 328 LINE",
"320 328 LINE",
"323 370 LINE",
"189 370 LINE",
"196 478 LINE",
"330 478 LINE",
"333 520 LINE",
"199 520 LINE",
"207 629 LINE",
"159 629 LINE",
"151 518 LINE",
"58 523 LINE",
"55 478 LINE",
"148 478 LINE"
);
}
);
width = 412;
},
{
layerId = m002;
paths = (
{
closed = 1;
nodes = (
"88 328 LINE",
"15 333 LINE",
"8 230 LINE",
"81 230 LINE",
"78 193 LINE SMOOTH",
"70 69 OFFCURVE",
"171 -13 OFFCURVE",
"331 -13 CURVE SMOOTH",
"372 -13 OFFCURVE",
"411 -8 OFFCURVE",
"428 -1 CURVE",
"435 161 LINE",
"409 152 OFFCURVE",
"372 146 OFFCURVE",
"342 146 CURVE SMOOTH",
"301 146 OFFCURVE",
"275 171 OFFCURVE",
"277 209 CURVE SMOOTH",
"279 230 LINE",
"383 230 LINE",
"390 330 LINE",
"286 330 LINE",
"289 370 LINE",
"393 370 LINE",
"403 520 LINE",
"299 520 LINE",
"307 629 LINE",
"109 629 LINE",
"101 518 LINE",
"28 523 LINE",
"18 370 LINE",
"91 370 LINE"
);
}
);
width = 466;
}
);
leftKerningGroup = t;
leftMetricsKey = t;
rightKerningGroup = t;
rightMetricsKey = t;
unicode = 0167;
},
{
color = 10;
glyphname = tdiagonalstroke;
lastChange = "2023-09-01 17:01:49 +0000";
layers = (
{
layerId = "FD4D3FDD-DE85-408F-A52A-FF600B1C6101";
paths = (
{
closed = 1;
nodes = (
"126 160 LINE SMOOTH",
"125 151 OFFCURVE",
"125 142 OFFCURVE",
"126 134 CURVE",
"46 -50 LINE",
"87 -50 LINE",
"141 74 LINE",
"167 20 OFFCURVE",
"223 -13 OFFCURVE",
"299 -13 CURVE SMOOTH",
"316 -13 OFFCURVE",
"339 -9 OFFCURVE",
"354 -3 CURVE",
"356 39 LINE",
"345 32 OFFCURVE",
"323 28 OFFCURVE",
"298 28 CURVE SMOOTH",
"221 28 OFFCURVE",
"173 75 OFFCURVE",
"174 149 CURVE",
"317 478 LINE",
"330 478 LINE",
"333 513 LINE",
"352 558 LINE",
"310 558 LINE",
"294 520 LINE",
"199 520 LINE",
"207 629 LINE",
"159 629 LINE",
"151 518 LINE",
"58 523 LINE",
"55 478 LINE",
"148 478 LINE"
);
},
{
closed = 1;
nodes = (
"196 478 LINE",
"275 478 LINE",
"181 261 LINE"
);
}
);
width = 412;
},
{
layerId = m002;
paths = (
{
closed = 1;
nodes = (
"78 193 LINE SMOOTH",
"73 120 OFFCURVE",
"108 60 OFFCURVE",
"170 24 CURVE",
"138 -50 LINE",
"191 -50 LINE",
"215 5 LINE",
"248 -7 OFFCURVE",
"288 -13 OFFCURVE",
"331 -13 CURVE SMOOTH",
"370 -13 OFFCURVE",
"409 -9 OFFCURVE",
"428 -1 CURVE",
"435 161 LINE",
"412 153 OFFCURVE",
"376 146 OFFCURVE",
"342 146 CURVE SMOOTH",
"317 146 OFFCURVE",
"298 155 OFFCURVE",
"287 171 CURVE",
"373 370 LINE",
"393 370 LINE",
"397 423 LINE",
"455 558 LINE",
"403 558 LINE",
"386 520 LINE",
"299 520 LINE",
"307 629 LINE",
"109 629 LINE",
"101 518 LINE",
"28 523 LINE",
"18 370 LINE",
"91 370 LINE"
);
},
{
closed = 1;
nodes = (
"289 370 LINE",
"321 370 LINE",
"282 281 LINE"
);
}
);
width = 466;
}
);
leftKerningGroup = t;
leftMetricsKey = t;
rightKerningGroup = t;
rightMetricsKey = t;
unicode = 2C66;
},
{
glyphname = u;
lastChange = "2023-09-06 00:33:49 +0000";
layers = (
{
anchors = (
{
name = Bottom;
position = "{274, 0}";
},
{
name = Top;
position = "{303, 520}";
}
);
layerId = "FD4D3FDD-DE85-408F-A52A-FF600B1C6101";
paths = (
{
closed = 1;
nodes = (
"349 -13 OFFCURVE",
"434 25 OFFCURVE",
"476 83 CURVE",
"479 83 LINE",
"459 0 LINE",
"522 0 LINE",
"558 520 LINE",
"510 520 LINE",
"488 208 LINE SMOOTH",
"480 101 OFFCURVE",
"390 29 OFFCURVE",
"262 29 CURVE SMOOTH",
"148 29 OFFCURVE",
"77 88 OFFCURVE",
"83 178 CURVE SMOOTH",
"107 520 LINE",
"59 520 LINE",
"34 168 LINE SMOOTH",
"26 60 OFFCURVE",
"118 -13 OFFCURVE",
"262 -13 CURVE SMOOTH"
);
}
);
width = 580;
},
{
anchors = (
{
name = Bottom;
position = "{297, 0}";
},
{
name = Top;
position = "{355, 520}";
}
);
layerId = m002;
paths = (
{
closed = 1;
nodes = (
"346 -13 OFFCURVE",
"415 8 OFFCURVE",
"450 43 CURVE",
"453 43 LINE",
"428 0 LINE",
"635 0 LINE",
"671 520 LINE",
"473 520 LINE",
"454 244 LINE SMOOTH",
"450 184 OFFCURVE",
"401 149 OFFCURVE",
"324 149 CURVE SMOOTH",
"252 149 OFFCURVE",
"212 183 OFFCURVE",
"216 240 CURVE SMOOTH",
"236 520 LINE",
"38 520 LINE",
"15 192 LINE SMOOTH",
"6 63 OFFCURVE",
"100 -13 OFFCURVE",
"266 -13 CURVE SMOOTH"
);
}
);
width = 673;
}
);
leftKerningGroup = u;
leftMetricsKey = n;
rightKerningGroup = u;
unicode = 0075;
},
{
color = 10;
glyphname = "upsilon-latin";
lastChange = "2023-09-01 16:51:20 +0000";
layers = (
{
layerId = "FD4D3FDD-DE85-408F-A52A-FF600B1C6101";
paths = (
{
closed = 1;
nodes = (
"475 -13 OFFCURVE",
"583 86 OFFCURVE",
"583 254 CURVE SMOOTH",
"583 363 OFFCURVE",
"530 443 OFFCURVE",
"439 477 CURVE",
"599 477 LINE",
"602 520 LINE",
"380 520 LINE",
"377 477 LINE",
"476 450 OFFCURVE",
"535 368 OFFCURVE",
"535 255 CURVE SMOOTH",
"535 113 OFFCURVE",
"446 29 OFFCURVE",
"295 29 CURVE SMOOTH",
"156 29 OFFCURVE",
"78 103 OFFCURVE",
"86 228 CURVE SMOOTH",
"95 355 OFFCURVE",
"165 448 OFFCURVE",
"277 477 CURVE",
"280 520 LINE",
"58 520 LINE",
"55 477 LINE",
"211 477 LINE",
"109 440 OFFCURVE",
"47 351 OFFCURVE",
"38 230 CURVE SMOOTH",
"27 77 OFFCURVE",
"122 -13 OFFCURVE",
"293 -13 CURVE SMOOTH"
);
}
);
width = 624;
},
{
layerId = m002;
paths = (
{
closed = 1;
nodes = (
"555 -13 OFFCURVE",
"682 68 OFFCURVE",
"682 206 CURVE SMOOTH",
"682 281 OFFCURVE",
"638 338 OFFCURVE",
"560 370 CURVE",
"702 370 LINE",
"712 520 LINE",
"425 520 LINE",
"415 370 LINE",
"455 354 OFFCURVE",
"479 316 OFFCURVE",
"479 268 CURVE SMOOTH",
"479 187 OFFCURVE",
"430 139 OFFCURVE",
"346 139 CURVE SMOOTH",
"276 139 OFFCURVE",
"234 176 OFFCURVE",
"234 238 CURVE SMOOTH",
"234 301 OFFCURVE",
"264 350 OFFCURVE",
"315 370 CURVE",
"325 520 LINE",
"38 520 LINE",
"28 370 LINE",
"156 370 LINE",
"70 335 OFFCURVE",
"22 271 OFFCURVE",
"22 187 CURVE SMOOTH",
"22 61 OFFCURVE",
"140 -13 OFFCURVE",
"340 -13 CURVE SMOOTH"
);
}
);
width = 714;
}
);
leftKerningGroup = o;
leftMetricsKey = u;
rightKerningGroup = o;
rightMetricsKey = u;
unicode = 028A;
},
{
glyphname = v;
lastChange = "2023-09-02 20:52:49 +0000";
layers = (
{
anchors = (
{
name = Top;
position = "{327, 520}";
}
);
layerId = "FD4D3FDD-DE85-408F-A52A-FF600B1C6101";
paths = (
{
closed = 1;
nodes = (
"269 0 LINE",
"313 0 LINE",
"616 520 LINE",
"566 520 LINE",
"296 68 LINE",
"294 68 LINE",
"88 520 LINE",
"38 520 LINE"
);
}
);
width = 618;
},
{
anchors = (
{
name = Top;
position = "{381, 520}";
}
);
layerId = m002;
paths = (
{
closed = 1;
nodes = (
"253 0 LINE",
"437 0 LINE",
"737 520 LINE",
"530 520 LINE",
"361 237 LINE",
"359 237 LINE",
"231 520 LINE",
"28 520 LINE"
);
}
);
width = 729;
}
);
leftKerningGroup = v;
leftMetricsKey = "=|k";
rightKerningGroup = v;
rightMetricsKey = k;
unicode = 0076;
},
{
glyphname = w;
lastChange = "2023-09-01 16:16:35 +0000";
layers = (
{
anchors = (
{
name = Top;
position = "{469, 520}";
}
);
layerId = "FD4D3FDD-DE85-408F-A52A-FF600B1C6101";
paths = (
{
closed = 1;
nodes = (
"229 0 LINE",
"278 0 LINE",
"462 447 LINE",
"464 447 LINE",
"585 0 LINE",
"635 0 LINE",
"898 520 LINE",
"848 520 LINE",
"618 64 LINE",
"616 64 LINE",
"493 520 LINE",
"443 520 LINE",
"255 65 LINE",
"253 65 LINE",
"88 520 LINE",
"38 520 LINE"
);
}
);
width = 900;
},
{
anchors = (
{
name = Top;
position = "{520, 520}";
}
);
layerId = m002;
paths = (
{
closed = 1;
nodes = (
"211 0 LINE",
"399 0 LINE",
"504 280 LINE",
"506 280 LINE",
"571 0 LINE",
"759 0 LINE",
"1016 520 LINE",
"816 520 LINE",
"684 238 LINE",
"682 238 LINE",
"596 520 LINE",
"446 520 LINE",
"319 238 LINE",
"317 238 LINE",
"224 520 LINE",
"28 520 LINE"
);
}
);
width = 1008;
}
);
leftKerningGroup = v;
leftMetricsKey = "=|k";
rightKerningGroup = v;
rightMetricsKey = k;
unicode = 0077;
},
{
glyphname = x;
lastChange = "2023-09-01 16:16:39 +0000";
layers = (
{
anchors = (
{
name = Top;
position = "{303, 520}";
}
);
layerId = "FD4D3FDD-DE85-408F-A52A-FF600B1C6101";
paths = (
{
closed = 1;
nodes = (
"252 260 LINE",
"2 0 LINE",
"68 0 LINE",
"283 224 LINE",
"467 0 LINE",
"531 0 LINE",
"317 260 LINE",
"567 520 LINE",
"502 520 LINE",
"287 296 LINE",
"103 520 LINE",
"38 520 LINE"
);
}
);
width = 569;
},
{
anchors = (
{
name = Top;
position = "{393, 520}";
}
);
layerId = m002;
paths = (
{
closed = 1;
nodes = (
"242 261 LINE",
"-8 0 LINE",
"259 0 LINE",
"366 111 LINE",
"457 0 LINE",
"722 0 LINE",
"508 259 LINE",
"759 520 LINE",
"491 520 LINE",
"385 409 LINE",
"293 520 LINE",
"29 520 LINE"
);
}
);
width = 751;
}
);
leftKerningGroup = x;
leftMetricsKey = "=|k";
rightKerningGroup = x;
rightMetricsKey = k;
unicode = 0078;
},
{
glyphname = y;
lastChange = "2023-09-05 19:30:57 +0000";
layers = (
{
anchors = (
{
name = Bottom;
position = "{387, 0}";
},
{
name = Top;
position = "{332, 520}";
}
);
layerId = "FD4D3FDD-DE85-408F-A52A-FF600B1C6101";
paths = (
{
closed = 1;
nodes = (
"625 520 LINE",
"575 520 LINE",
"320 58 LINE",
"318 58 LINE",
"88 520 LINE",
"38 520 LINE",
"292 9 LINE",
"249 -69 LINE SMOOTH",
"216 -129 OFFCURVE",
"181 -161 OFFCURVE",
"132 -161 CURVE SMOOTH",
"114 -161 OFFCURVE",
"92 -158 OFFCURVE",
"81 -152 CURVE",
"79 -200 LINE",
"93 -205 OFFCURVE",
"111 -208 OFFCURVE",
"127 -208 CURVE SMOOTH",
"202 -208 OFFCURVE",
"250 -163 OFFCURVE",
"300 -71 CURVE SMOOTH"
);
}
);
width = 627;
},
{
anchors = (
{
name = Bottom;
position = "{524, 0}";
},
{
name = Top;
position = "{373, 520}";
}
);
layerId = m002;
paths = (
{
closed = 1;
nodes = (
"716 520 LINE",
"516 520 LINE",
"362 239 LINE",
"360 239 LINE",
"224 520 LINE",
"28 520 LINE",
"255 45 LINE",
"225 -10 LINE SMOOTH",
"213 -33 OFFCURVE",
"190 -48 OFFCURVE",
"160 -48 CURVE SMOOTH",
"127 -48 OFFCURVE",
"99 -46 OFFCURVE",
"87 -40 CURVE",
"80 -198 LINE",
"96 -203 OFFCURVE",
"119 -207 OFFCURVE",
"147 -207 CURVE SMOOTH",
"264 -207 OFFCURVE",
"332 -197 OFFCURVE",
"411 -50 CURVE SMOOTH"
);
}
);
width = 708;
}
);
leftKerningGroup = y;
leftMetricsKey = "=|k";
rightKerningGroup = y;
rightMetricsKey = k;
unicode = 0079;
},
{
glyphname = z;
lastChange = "2023-09-01 16:16:47 +0000";
layers = (
{
anchors = (
{
name = Bottom;
position = "{293, 0}";
},
{
name = Top;
position = "{320, 520}";
}
);
layerId = "FD4D3FDD-DE85-408F-A52A-FF600B1C6101";
paths = (
{
closed = 1;
nodes = (
"569 520 LINE",
"82 520 LINE",
"79 480 LINE",
"508 480 LINE",
"25 40 LINE",
"23 0 LINE",
"534 0 LINE",
"536 40 LINE",
"84 40 LINE",
"566 480 LINE"
);
}
);
width = 592;
},
{
anchors = (
{
name = Bottom;
position = "{323, 0}";
},
{
name = Top;
position = "{359, 520}";
}
);
layerId = m002;
paths = (
{
closed = 1;
nodes = (
"678 520 LINE",
"48 520 LINE",
"38 370 LINE",
"394 370 LINE",
"12 150 LINE",
"2 0 LINE",
"643 0 LINE",
"653 150 LINE",
"294 150 LINE",
"668 370 LINE"
);
}
);
width = 681;
}
);
leftKerningGroup = z;
leftMetricsKey = n;
rightKerningGroup = z;
unicode = 007A;
},
{
color = 10;
glyphname = a.ss01;
lastChange = "2023-09-21 16:56:58 +0000";
layers = (
{
anchors = (
{
name = Bottom;
position = "{307, 0}";
},
{
name = Ogonek;
position = "{555, 0}";
},
{
name = Top;
position = "{341, 532}";
}
);
layerId = "FD4D3FDD-DE85-408F-A52A-FF600B1C6101";
paths = (
{
closed = 1;
nodes = (
"401 -13 OFFCURVE",
"497 31 OFFCURVE",
"547 97 CURVE",
"549 98 LINE",
"527 0 LINE",
"590 0 LINE",
"626 520 LINE",
"578 520 LINE",
"575 412 LINE",
"573 411 LINE",
"534 484 OFFCURVE",
"436 532 OFFCURVE",
"328 532 CURVE SMOOTH",
"149 532 OFFCURVE",
"29 414 OFFCURVE",
"29 238 CURVE SMOOTH",
"29 87 OFFCURVE",
"140 -13 OFFCURVE",
"307 -13 CURVE SMOOTH"
);
},
{
closed = 1;
nodes = (
"77 390 OFFCURVE",
"179 490 OFFCURVE",
"333 490 CURVE SMOOTH",
"470 490 OFFCURVE",
"561 407 OFFCURVE",
"561 282 CURVE SMOOTH",
"561 130 OFFCURVE",
"459 29 OFFCURVE",
"307 29 CURVE SMOOTH",
"169 29 OFFCURVE",
"77 113 OFFCURVE",
"77 240 CURVE SMOOTH"
);
}
);
width = 648;
},
{
anchors = (
{
name = Bottom;
position = "{308, 0}";
},
{
name = Ogonek;
position = "{603, 0}";
},
{
name = Top;
position = "{371, 532}";
}
);
layerId = m002;
paths = (
{
closed = 1;
nodes = (
"387 -13 OFFCURVE",
"459 6 OFFCURVE",
"489 35 CURVE SMOOTH",
"491 37 LINE",
"468 0 LINE",
"675 0 LINE",
"711 520 LINE",
"513 520 LINE",
"516 487 LINE",
"512 486 LINE",
"476 514 OFFCURVE",
"411 532 OFFCURVE",
"349 532 CURVE SMOOTH",
"146 532 OFFCURVE",
"10 417 OFFCURVE",
"10 245 CURVE SMOOTH",
"10 90 OFFCURVE",
"130 -13 OFFCURVE",
"309 -13 CURVE SMOOTH"
);
},
{
closed = 1;
nodes = (
"219 337 OFFCURVE",
"280 400 OFFCURVE",
"371 400 CURVE SMOOTH",
"445 400 OFFCURVE",
"495 352 OFFCURVE",
"495 279 CURVE SMOOTH",
"495 184 OFFCURVE",
"434 121 OFFCURVE",
"343 121 CURVE SMOOTH",
"269 121 OFFCURVE",
"219 170 OFFCURVE",
"219 243 CURVE SMOOTH"
);
}
);
width = 713;
}
);
leftKerningGroup = o;
leftMetricsKey = a;
rightKerningGroup = n;
rightMetricsKey = n;
subCategory = "";
},
{
color = 10;
glyphname = astroke.ss01;
lastChange = "2023-09-21 16:56:58 +0000";
layers = (
{
anchors = (
{
name = Bottom;
position = "{307, 0}";
},
{
name = Ogonek;
position = "{555, 0}";
},
{
name = Top;
position = "{341, 532}";
}
);
layerId = "FD4D3FDD-DE85-408F-A52A-FF600B1C6101";
paths = (
{
closed = 1;
nodes = (
"401 -13 OFFCURVE",
"497 31 OFFCURVE",
"547 97 CURVE",
"549 98 LINE",
"527 0 LINE",
"590 0 LINE",
"626 520 LINE",
"578 520 LINE",
"575 412 LINE",
"573 411 LINE",
"549 455 OFFCURVE",
"504 490 OFFCURVE",
"449 511 CURVE",
"469 558 LINE",
"427 558 LINE",
"411 522 LINE",
"385 529 OFFCURVE",
"357 532 OFFCURVE",
"328 532 CURVE SMOOTH",
"149 532 OFFCURVE",
"29 414 OFFCURVE",
"29 238 CURVE SMOOTH",
"29 127 OFFCURVE",
"89 44 OFFCURVE",
"187 7 CURVE",
"162 -50 LINE",
"205 -50 LINE",
"225 -4 LINE",
"250 -10 OFFCURVE",
"278 -13 OFFCURVE",
"307 -13 CURVE SMOOTH"
);
},
{
closed = 1;
nodes = (
"77 390 OFFCURVE",
"179 490 OFFCURVE",
"333 490 CURVE SMOOTH",
"355 490 OFFCURVE",
"375 488 OFFCURVE",
"395 484 CURVE",
"204 47 LINE",
"125 79 OFFCURVE",
"77 148 OFFCURVE",
"77 240 CURVE SMOOTH"
);
},
{
closed = 1;
nodes = (
"432 473 LINE",
"512 443 OFFCURVE",
"561 374 OFFCURVE",
"561 282 CURVE SMOOTH",
"561 130 OFFCURVE",
"459 29 OFFCURVE",
"307 29 CURVE SMOOTH",
"284 29 OFFCURVE",
"262 31 OFFCURVE",
"242 36 CURVE"
);
}
);
width = 648;
},
{
anchors = (
{
name = Bottom;
position = "{308, 0}";
},
{
name = Ogonek;
position = "{603, 0}";
},
{
name = Top;
position = "{371, 532}";
}
);
layerId = m002;
paths = (
{
closed = 1;
nodes = (
"387 -13 OFFCURVE",
"459 5 OFFCURVE",
"489 35 CURVE SMOOTH",
"491 37 LINE",
"468 0 LINE",
"675 0 LINE",
"711 520 LINE",
"513 520 LINE",
"516 487 LINE",
"514 486 LINE",
"505 493 OFFCURVE",
"491 500 OFFCURVE",
"478 506 CURVE",
"501 558 LINE",
"449 558 LINE",
"433 521 LINE",
"406 528 OFFCURVE",
"377 532 OFFCURVE",
"349 532 CURVE SMOOTH",
"146 532 OFFCURVE",
"10 417 OFFCURVE",
"10 245 CURVE SMOOTH",
"10 122 OFFCURVE",
"85 32 OFFCURVE",
"206 0 CURVE",
"184 -50 LINE",
"237 -50 LINE",
"255 -10 LINE",
"272 -12 OFFCURVE",
"290 -13 OFFCURVE",
"309 -13 CURVE SMOOTH"
);
},
{
closed = 1;
nodes = (
"219 337 OFFCURVE",
"280 400 OFFCURVE",
"371 400 CURVE",
"374 400 OFFCURVE",
"377 400 OFFCURVE",
"380 400 CURVE",
"268 143 LINE",
"237 164 OFFCURVE",
"219 199 OFFCURVE",
"219 243 CURVE SMOOTH"
);
},
{
closed = 1;
nodes = (
"428 389 LINE",
"469 371 OFFCURVE",
"495 331 OFFCURVE",
"495 279 CURVE SMOOTH",
"495 184 OFFCURVE",
"434 121 OFFCURVE",
"343 121 CURVE SMOOTH",
"332 121 OFFCURVE",
"322 122 OFFCURVE",
"313 124 CURVE"
);
}
);
width = 713;
}
);
leftKerningGroup = o;
leftMetricsKey = a;
rightKerningGroup = n;
rightMetricsKey = a;
subCategory = "";
},
{
color = 10;
glyphname = germandbls.ss01;
lastChange = "2023-09-21 16:56:58 +0000";
layers = (
{
layerId = "FD4D3FDD-DE85-408F-A52A-FF600B1C6101";
paths = (
{
closed = 1;
nodes = (
"70 0 LINE",
"110 582 LINE SMOOTH",
"115 649 OFFCURVE",
"161 694 OFFCURVE",
"224 694 CURVE SMOOTH",
"279 694 LINE",
"232 661 OFFCURVE",
"205 610 OFFCURVE",
"205 547 CURVE SMOOTH",
"205 372 OFFCURVE",
"481 336 OFFCURVE",
"470 171 CURVE SMOOTH",
"464 86 OFFCURVE",
"396 29 OFFCURVE",
"300 29 CURVE SMOOTH",
"260 29 OFFCURVE",
"209 38 OFFCURVE",
"173 52 CURVE",
"169 10 LINE",
"193 -4 OFFCURVE",
"242 -13 OFFCURVE",
"294 -13 CURVE SMOOTH",
"420 -13 OFFCURVE",
"510 63 OFFCURVE",
"518 177 CURVE SMOOTH",
"531 364 OFFCURVE",
"253 407 OFFCURVE",
"253 553 CURVE SMOOTH",
"253 636 OFFCURVE",
"323 694 OFFCURVE",
"423 694 CURVE",
"425 736 LINE",
"227 736 LINE SMOOTH",
"135 736 OFFCURVE",
"69 671 OFFCURVE",
"62 572 CURVE SMOOTH",
"22 0 LINE"
);
}
);
width = 554;
},
{
layerId = m002;
paths = (
{
closed = 1;
nodes = (
"200 0 LINE",
"236 521 LINE SMOOTH",
"238 552 OFFCURVE",
"260 574 OFFCURVE",
"287 574 CURVE SMOOTH",
"361 574 LINE",
"354 553 OFFCURVE",
"351 530 OFFCURVE",
"351 505 CURVE SMOOTH",
"351 371 OFFCURVE",
"452 293 OFFCURVE",
"452 201 CURVE SMOOTH",
"452 168 OFFCURVE",
"428 149 OFFCURVE",
"398 149 CURVE SMOOTH",
"367 149 OFFCURVE",
"327 159 OFFCURVE",
"293 173 CURVE",
"277 9 LINE",
"301 -5 OFFCURVE",
"350 -13 OFFCURVE",
"400 -13 CURVE SMOOTH",
"546 -13 OFFCURVE",
"660 70 OFFCURVE",
"660 197 CURVE SMOOTH",
"660 303 OFFCURVE",
"560 403 OFFCURVE",
"560 511 CURVE SMOOTH",
"560 548 OFFCURVE",
"581 574 OFFCURVE",
"606 574 CURVE",
"613 736 LINE",
"274 736 LINE SMOOTH",
"139 736 OFFCURVE",
"49 672 OFFCURVE",
"42 573 CURVE SMOOTH",
"2 0 LINE"
);
}
);
width = 675;
}
);
leftKerningGroup = n;
leftMetricsKey = n;
rightKerningGroup = germandbls;
rightMetricsKey = o;
subCategory = "";
},
{
color = 10;
glyphname = f_f;
lastChange = "2023-09-01 17:02:07 +0000";
layers = (
{
layerId = "FD4D3FDD-DE85-408F-A52A-FF600B1C6101";
paths = (
{
closed = 1;
nodes = (
"151 518 LINE",
"58 523 LINE",
"55 478 LINE",
"148 478 LINE",
"115 0 LINE",
"163 0 LINE",
"196 478 LINE",
"433 478 LINE",
"400 0 LINE",
"448 0 LINE",
"481 478 LINE",
"625 478 LINE",
"628 520 LINE",
"484 520 LINE",
"487 564 LINE SMOOTH",
"493 646 OFFCURVE",
"547 695 OFFCURVE",
"631 695 CURVE SMOOTH",
"652 695 OFFCURVE",
"675 690 OFFCURVE",
"694 681 CURVE",
"696 723 LINE",
"678 731 OFFCURVE",
"653 736 OFFCURVE",
"629 736 CURVE SMOOTH",
"518 736 OFFCURVE",
"447 672 OFFCURVE",
"439 563 CURVE SMOOTH",
"436 518 LINE",
"343 520 LINE",
"199 520 LINE",
"202 564 LINE SMOOTH",
"208 646 OFFCURVE",
"262 695 OFFCURVE",
"346 695 CURVE SMOOTH",
"367 695 OFFCURVE",
"390 690 OFFCURVE",
"409 681 CURVE",
"411 723 LINE",
"393 731 OFFCURVE",
"368 736 OFFCURVE",
"344 736 CURVE SMOOTH",
"233 736 OFFCURVE",
"162 672 OFFCURVE",
"154 563 CURVE SMOOTH"
);
}
);
width = 675;
},
{
layerId = m002;
paths = (
{
closed = 1;
nodes = (
"111 518 LINE",
"38 523 LINE",
"28 370 LINE",
"101 370 LINE",
"75 0 LINE",
"273 0 LINE",
"299 370 LINE",
"506 370 LINE",
"480 0 LINE",
"678 0 LINE",
"704 370 LINE",
"838 370 LINE",
"848 520 LINE",
"714 520 LINE",
"715 533 LINE SMOOTH",
"717 561 OFFCURVE",
"746 577 OFFCURVE",
"792 577 CURVE SMOOTH",
"817 577 OFFCURVE",
"845 572 OFFCURVE",
"867 564 CURVE",
"874 722 LINE",
"856 731 OFFCURVE",
"821 736 OFFCURVE",
"779 736 CURVE SMOOTH",
"623 736 OFFCURVE",
"526 670 OFFCURVE",
"519 559 CURVE SMOOTH",
"516 518 LINE",
"443 520 LINE",
"309 520 LINE",
"310 533 LINE SMOOTH",
"312 561 OFFCURVE",
"341 577 OFFCURVE",
"387 577 CURVE SMOOTH",
"412 577 OFFCURVE",
"440 572 OFFCURVE",
"462 564 CURVE",
"469 722 LINE",
"451 731 OFFCURVE",
"416 736 OFFCURVE",
"374 736 CURVE SMOOTH",
"218 736 OFFCURVE",
"121 670 OFFCURVE",
"114 559 CURVE SMOOTH"
);
}
);
width = 856;
}
);
leftKerningGroup = f;
leftMetricsKey = f;
rightKerningGroup = f;
rightMetricsKey = f;
unicode = FB00;
},
{
color = 10;
glyphname = f_f_i;
lastChange = "2023-09-01 17:02:07 +0000";
layers = (
{
layerId = "FD4D3FDD-DE85-408F-A52A-FF600B1C6101";
paths = (
{
closed = 1;
nodes = (
"151 518 LINE",
"58 523 LINE",
"55 478 LINE",
"148 478 LINE",
"115 0 LINE",
"163 0 LINE",
"196 478 LINE",
"433 478 LINE",
"400 0 LINE",
"448 0 LINE",
"481 478 LINE",
"719 478 LINE",
"686 0 LINE",
"734 0 LINE",
"770 520 LINE",
"484 520 LINE",
"487 564 LINE SMOOTH",
"493 646 OFFCURVE",
"547 695 OFFCURVE",
"631 695 CURVE SMOOTH",
"652 695 OFFCURVE",
"675 690 OFFCURVE",
"694 681 CURVE",
"696 723 LINE",
"678 731 OFFCURVE",
"653 736 OFFCURVE",
"629 736 CURVE SMOOTH",
"518 736 OFFCURVE",
"446 672 OFFCURVE",
"439 563 CURVE SMOOTH",
"436 518 LINE",
"343 520 LINE",
"199 520 LINE",
"202 564 LINE SMOOTH",
"208 646 OFFCURVE",
"262 695 OFFCURVE",
"346 695 CURVE SMOOTH",
"367 695 OFFCURVE",
"390 690 OFFCURVE",
"409 681 CURVE",
"411 723 LINE",
"393 731 OFFCURVE",
"368 736 OFFCURVE",
"344 736 CURVE SMOOTH",
"233 736 OFFCURVE",
"161 672 OFFCURVE",
"154 563 CURVE SMOOTH"
);
},
{
closed = 1;
nodes = (
"779 654 LINE",
"784 723 LINE",
"736 723 LINE",
"731 654 LINE"
);
}
);
width = 792;
},
{
layerId = m002;
paths = (
{
closed = 1;
nodes = (
"111 518 LINE",
"38 523 LINE",
"28 370 LINE",
"101 370 LINE",
"75 0 LINE",
"273 0 LINE",
"299 370 LINE",
"506 370 LINE",
"480 0 LINE",
"678 0 LINE",
"704 370 LINE",
"878 370 LINE",
"852 0 LINE",
"1020 0 LINE",
"1056 520 LINE",
"714 520 LINE",
"715 533 LINE SMOOTH",
"717 561 OFFCURVE",
"746 577 OFFCURVE",
"792 577 CURVE SMOOTH",
"817 577 OFFCURVE",
"845 572 OFFCURVE",
"867 564 CURVE",
"874 722 LINE",
"856 731 OFFCURVE",
"821 736 OFFCURVE",
"779 736 CURVE SMOOTH",
"623 736 OFFCURVE",
"526 670 OFFCURVE",
"519 559 CURVE SMOOTH",
"516 518 LINE",
"443 520 LINE",
"309 520 LINE",
"310 533 LINE SMOOTH",
"312 561 OFFCURVE",
"341 577 OFFCURVE",
"387 577 CURVE SMOOTH",
"412 577 OFFCURVE",
"440 572 OFFCURVE",
"462 564 CURVE",
"469 722 LINE",
"451 731 OFFCURVE",
"416 736 OFFCURVE",
"374 736 CURVE SMOOTH",
"218 736 OFFCURVE",
"121 670 OFFCURVE",
"114 559 CURVE SMOOTH"
);
},
{
closed = 1;
nodes = (
"1058 553 LINE",
"1070 723 LINE",
"902 723 LINE",
"890 553 LINE"
);
}
);
width = 1058;
}
);
leftKerningGroup = f;
leftMetricsKey = f;
rightKerningGroup = i;
rightMetricsKey = i;
unicode = FB03;
},
{
color = 10;
glyphname = f_t;
lastChange = "2023-09-01 17:02:07 +0000";
layers = (
{
layerId = "FD4D3FDD-DE85-408F-A52A-FF600B1C6101";
paths = (
{
closed = 1;
nodes = (
"151 518 LINE",
"58 520 LINE",
"55 478 LINE",
"148 478 LINE",
"115 0 LINE",
"163 0 LINE",
"196 478 LINE",
"433 478 LINE",
"409 140 LINE SMOOTH",
"401 31 OFFCURVE",
"441 -13 OFFCURVE",
"544 -13 CURVE SMOOTH",
"564 -13 OFFCURVE",
"580 -10 OFFCURVE",
"599 -3 CURVE",
"601 39 LINE",
"589 31 OFFCURVE",
"572 28 OFFCURVE",
"543 28 CURVE SMOOTH",
"477 28 OFFCURVE",
"451 59 OFFCURVE",
"457 138 CURVE SMOOTH",
"481 478 LINE",
"615 478 LINE",
"618 520 LINE",
"484 520 LINE",
"492 629 LINE",
"444 629 LINE",
"436 518 LINE",
"321 520 LINE",
"199 520 LINE",
"202 564 LINE SMOOTH",
"208 646 OFFCURVE",
"262 695 OFFCURVE",
"346 695 CURVE SMOOTH",
"367 695 OFFCURVE",
"390 690 OFFCURVE",
"409 681 CURVE",
"411 723 LINE",
"393 731 OFFCURVE",
"368 736 OFFCURVE",
"344 736 CURVE SMOOTH",
"233 736 OFFCURVE",
"161 672 OFFCURVE",
"154 563 CURVE SMOOTH"
);
}
);
width = 657;
},
{
layerId = m002;
paths = (
{
closed = 1;
nodes = (
"111 518 LINE",
"38 520 LINE",
"28 370 LINE",
"101 370 LINE",
"75 0 LINE",
"273 0 LINE",
"299 370 LINE",
"473 370 LINE",
"459 173 LINE SMOOTH",
"451 56 OFFCURVE",
"534 -13 OFFCURVE",
"683 -13 CURVE SMOOTH",
"719 -13 OFFCURVE",
"752 -9 OFFCURVE",
"770 -1 CURVE",
"777 161 LINE",
"752 152 OFFCURVE",
"721 146 OFFCURVE",
"694 146 CURVE SMOOTH",
"669 146 OFFCURVE",
"656 162 OFFCURVE",
"658 189 CURVE SMOOTH",
"671 370 LINE",
"775 370 LINE",
"785 520 LINE",
"681 520 LINE",
"689 629 LINE",
"491 629 LINE",
"483 518 LINE",
"410 520 LINE",
"309 520 LINE",
"310 533 LINE SMOOTH",
"312 561 OFFCURVE",
"341 577 OFFCURVE",
"387 577 CURVE SMOOTH",
"413 577 OFFCURVE",
"441 572 OFFCURVE",
"462 564 CURVE",
"469 722 LINE",
"450 731 OFFCURVE",
"415 736 OFFCURVE",
"374 736 CURVE SMOOTH",
"218 736 OFFCURVE",
"121 670 OFFCURVE",
"114 559 CURVE SMOOTH"
);
}
);
width = 808;
}
);
leftKerningGroup = f;
leftMetricsKey = f;
rightKerningGroup = t;
rightMetricsKey = t;
unicode = FB05;
},
{
color = 10;
glyphname = fi;
lastChange = "2023-09-01 17:02:07 +0000";
layers = (
{
layerId = "FD4D3FDD-DE85-408F-A52A-FF600B1C6101";
paths = (
{
closed = 1;
nodes = (
"151 518 LINE",
"58 520 LINE",
"55 478 LINE",
"148 478 LINE",
"115 0 LINE",
"163 0 LINE",
"196 478 LINE",
"424 478 LINE",
"391 0 LINE",
"439 0 LINE",
"475 520 LINE",
"199 520 LINE",
"202 564 LINE SMOOTH",
"208 646 OFFCURVE",
"262 695 OFFCURVE",
"346 695 CURVE SMOOTH",
"368 695 OFFCURVE",
"390 690 OFFCURVE",
"409 681 CURVE",
"411 723 LINE",
"393 731 OFFCURVE",
"369 736 OFFCURVE",
"344 736 CURVE SMOOTH",
"232 736 OFFCURVE",
"161 672 OFFCURVE",
"154 563 CURVE SMOOTH"
);
},
{
closed = 1;
nodes = (
"484 654 LINE",
"489 723 LINE",
"441 723 LINE",
"436 654 LINE"
);
}
);
width = 497;
},
{
layerId = m002;
paths = (
{
closed = 1;
nodes = (
"111 518 LINE",
"38 520 LINE",
"28 370 LINE",
"101 370 LINE",
"75 0 LINE",
"273 0 LINE",
"299 370 LINE",
"477 370 LINE",
"451 0 LINE",
"649 0 LINE",
"685 520 LINE",
"309 520 LINE",
"310 533 LINE SMOOTH",
"312 558 OFFCURVE",
"343 577 OFFCURVE",
"387 577 CURVE SMOOTH",
"408 577 OFFCURVE",
"440 572 OFFCURVE",
"462 564 CURVE",
"469 722 LINE",
"453 730 OFFCURVE",
"416 736 OFFCURVE",
"374 736 CURVE SMOOTH",
"225 736 OFFCURVE",
"121 666 OFFCURVE",
"114 559 CURVE SMOOTH"
);
},
{
closed = 1;
nodes = (
"687 553 LINE",
"699 723 LINE",
"501 723 LINE",
"489 553 LINE"
);
}
);
width = 687;
}
);
leftKerningGroup = f;
leftMetricsKey = f;
rightKerningGroup = i;
rightMetricsKey = i;
unicode = FB01;
},
{
color = 10;
glyphname = fl;
lastChange = "2023-09-01 17:02:07 +0000";
layers = (
{
layerId = "FD4D3FDD-DE85-408F-A52A-FF600B1C6101";
paths = (
{
closed = 1;
nodes = (
"417 520 LINE",
"199 520 LINE",
"202 564 LINE SMOOTH",
"208 646 OFFCURVE",
"262 695 OFFCURVE",
"346 695 CURVE SMOOTH",
"367 695 OFFCURVE",
"390 690 OFFCURVE",
"409 681 CURVE",
"411 723 LINE",
"393 731 OFFCURVE",
"368 736 OFFCURVE",
"344 736 CURVE SMOOTH",
"233 736 OFFCURVE",
"162 672 OFFCURVE",
"154 563 CURVE SMOOTH",
"151 518 LINE",
"58 520 LINE",
"55 478 LINE",
"148 478 LINE",
"115 0 LINE",
"163 0 LINE",
"196 478 LINE",
"414 478 LINE",
"381 0 LINE",
"429 0 LINE",
"478 704 LINE",
"431 723 LINE"
);
}
);
width = 487;
},
{
layerId = m002;
paths = (
{
closed = 1;
nodes = (
"487 520 LINE",
"309 520 LINE",
"310 533 LINE SMOOTH",
"312 561 OFFCURVE",
"341 577 OFFCURVE",
"387 577 CURVE SMOOTH",
"412 577 OFFCURVE",
"440 572 OFFCURVE",
"462 564 CURVE",
"469 722 LINE",
"451 731 OFFCURVE",
"416 736 OFFCURVE",
"374 736 CURVE SMOOTH",
"218 736 OFFCURVE",
"121 670 OFFCURVE",
"114 559 CURVE SMOOTH",
"111 518 LINE",
"38 520 LINE",
"28 370 LINE",
"101 370 LINE",
"75 0 LINE",
"273 0 LINE",
"299 370 LINE",
"477 370 LINE",
"451 0 LINE",
"619 0 LINE",
"665 669 LINE",
"501 723 LINE"
);
}
);
width = 657;
}
);
leftKerningGroup = f;
leftMetricsKey = f;
rightKerningGroup = l;
rightMetricsKey = l;
unicode = FB02;
},
{
color = 10;
glyphname = t_t;
lastChange = "2023-09-21 16:57:11 +0000";
layers = (
{
hints = (
{
place = "{149, 0}";
type = Stem;
},
{
place = "{461, 0}";
type = Stem;
}
);
layerId = "FD4D3FDD-DE85-408F-A52A-FF600B1C6101";
paths = (
{
closed = 1;
nodes = (
"117 31 OFFCURVE",
"156 -13 OFFCURVE",
"259 -13 CURVE SMOOTH",
"280 -13 OFFCURVE",
"296 -10 OFFCURVE",
"314 -3 CURVE",
"316 39 LINE",
"303 31 OFFCURVE",
"287 28 OFFCURVE",
"258 28 CURVE SMOOTH",
"192 28 OFFCURVE",
"167 59 OFFCURVE",
"172 138 CURVE SMOOTH",
"196 478 LINE",
"423 478 LINE",
"399 140 LINE SMOOTH",
"392 31 OFFCURVE",
"431 -13 OFFCURVE",
"534 -13 CURVE SMOOTH",
"555 -13 OFFCURVE",
"571 -10 OFFCURVE",
"589 -3 CURVE",
"591 39 LINE",
"578 31 OFFCURVE",
"562 28 OFFCURVE",
"533 28 CURVE SMOOTH",
"467 28 OFFCURVE",
"442 59 OFFCURVE",
"447 138 CURVE SMOOTH",
"471 478 LINE",
"605 478 LINE",
"608 520 LINE",
"474 520 LINE",
"482 629 LINE",
"434 629 LINE",
"426 518 LINE",
"333 520 LINE",
"199 520 LINE",
"207 629 LINE",
"159 629 LINE",
"151 518 LINE",
"58 523 LINE",
"55 478 LINE",
"148 478 LINE",
"124 140 LINE SMOOTH"
);
}
);
width = 647;
},
{
hints = (
{
place = "{149, 0}";
type = Stem;
},
{
place = "{504, 0}";
type = Stem;
}
);
layerId = m002;
paths = (
{
closed = 1;
nodes = (
"69 56 OFFCURVE",
"152 -13 OFFCURVE",
"301 -13 CURVE SMOOTH",
"339 -13 OFFCURVE",
"371 -9 OFFCURVE",
"388 -1 CURVE",
"395 161 LINE",
"369 152 OFFCURVE",
"340 146 OFFCURVE",
"317 146 CURVE SMOOTH",
"289 146 OFFCURVE",
"274 162 OFFCURVE",
"276 189 CURVE SMOOTH",
"289 370 LINE",
"466 370 LINE",
"452 173 LINE SMOOTH",
"444 56 OFFCURVE",
"527 -13 OFFCURVE",
"676 -13 CURVE SMOOTH",
"714 -13 OFFCURVE",
"746 -9 OFFCURVE",
"763 -1 CURVE",
"770 161 LINE",
"744 152 OFFCURVE",
"715 146 OFFCURVE",
"692 146 CURVE SMOOTH",
"664 146 OFFCURVE",
"649 162 OFFCURVE",
"651 189 CURVE SMOOTH",
"664 370 LINE",
"768 370 LINE",
"778 520 LINE",
"674 520 LINE",
"682 629 LINE",
"484 629 LINE",
"476 518 LINE",
"403 520 LINE",
"299 520 LINE",
"307 629 LINE",
"109 629 LINE",
"101 518 LINE",
"28 523 LINE",
"18 370 LINE",
"91 370 LINE",
"77 173 LINE SMOOTH"
);
}
);
width = 801;
}
);
leftKerningGroup = t;
leftMetricsKey = t;
rightKerningGroup = t;
rightMetricsKey = t;
category = Letter;
subCategory = Ligature;
},
{
color = 10;
glyphname = clickalveolar;
lastChange = "2023-09-01 16:55:40 +0000";
layers = (
{
layerId = "FD4D3FDD-DE85-408F-A52A-FF600B1C6101";
paths = (
{
closed = 1;
nodes = (
"198 518 LINE",
"58 523 LINE",
"55 478 LINE",
"195 478 LINE",
"188 369 LINE",
"48 374 LINE",
"45 329 LINE",
"185 329 LINE",
"149 -182 LINE",
"199 -182 LINE",
"235 329 LINE",
"370 329 LINE",
"373 371 LINE",
"238 371 LINE",
"245 478 LINE",
"380 478 LINE",
"383 520 LINE",
"248 520 LINE",
"262 714 LINE",
"212 714 LINE"
);
}
);
width = 405;
},
{
layerId = m002;
paths = (
{
closed = 1;
nodes = (
"167 523 LINE",
"29 528 LINE",
"18 375 LINE",
"156 375 LINE",
"150 283 LINE",
"12 288 LINE",
"1 135 LINE",
"139 135 LINE",
"117 -182 LINE",
"267 -182 LINE",
"289 135 LINE",
"426 135 LINE",
"437 285 LINE",
"300 285 LINE",
"306 375 LINE",
"443 375 LINE",
"453 525 LINE",
"317 525 LINE",
"330 714 LINE",
"180 714 LINE"
);
}
);
width = 455;
}
);
leftKerningGroup = t;
leftMetricsKey = t;
rightKerningGroup = t;
rightMetricsKey = t;
unicode = 01C2;
},
{
color = 10;
glyphname = ordfeminine;
lastChange = "2023-09-01 17:02:28 +0000";
layers = (
{
layerId = "FD4D3FDD-DE85-408F-A52A-FF600B1C6101";
paths = (
{
closed = 1;
nodes = (
"242 433 OFFCURVE",
"290 454 OFFCURVE",
"307 485 CURVE",
"308 486 LINE",
"302 439 LINE",
"341 439 LINE",
"360 707 LINE",
"322 707 LINE",
"320 660 LINE",
"318 659 LINE",
"300 692 OFFCURVE",
"255 714 OFFCURVE",
"204 714 CURVE SMOOTH",
"113 714 OFFCURVE",
"52 653 OFFCURVE",
"52 562 CURVE SMOOTH",
"52 485 OFFCURVE",
"105 433 OFFCURVE",
"185 433 CURVE SMOOTH"
);
},
{
closed = 1;
nodes = (
"90 634 OFFCURVE",
"138 682 OFFCURVE",
"211 682 CURVE SMOOTH",
"272 682 OFFCURVE",
"313 643 OFFCURVE",
"313 584 CURVE SMOOTH",
"313 512 OFFCURVE",
"264 464 OFFCURVE",
"191 464 CURVE SMOOTH",
"130 464 OFFCURVE",
"90 503 OFFCURVE",
"90 562 CURVE SMOOTH"
);
}
);
width = 369;
},
{
layerId = m002;
paths = (
{
closed = 1;
nodes = (
"204 433 OFFCURVE",
"240 443 OFFCURVE",
"260 458 CURVE SMOOTH",
"261 459 LINE",
"257 439 LINE",
"358 439 LINE",
"377 707 LINE",
"276 707 LINE",
"277 690 LINE",
"273 689 LINE",
"256 703 OFFCURVE",
"222 713 OFFCURVE",
"189 713 CURVE SMOOTH",
"95 713 OFFCURVE",
"32 654 OFFCURVE",
"32 565 CURVE SMOOTH",
"32 486 OFFCURVE",
"88 433 OFFCURVE",
"171 433 CURVE SMOOTH"
);
},
{
closed = 1;
nodes = (
"142 601 OFFCURVE",
"170 624 OFFCURVE",
"211 624 CURVE SMOOTH",
"245 624 OFFCURVE",
"267 606 OFFCURVE",
"267 580 CURVE SMOOTH",
"267 545 OFFCURVE",
"240 522 OFFCURVE",
"199 522 CURVE SMOOTH",
"165 522 OFFCURVE",
"142 540 OFFCURVE",
"142 567 CURVE SMOOTH"
);
}
);
width = 366;
}
);
leftKerningGroup = o;
leftMetricsKey = a;
rightKerningGroup = n;
rightMetricsKey = a;
unicode = 00AA;
},
{
color = 10;
glyphname = ordmasculine;
lastChange = "2023-09-01 17:02:33 +0000";
layers = (
{
layerId = "FD4D3FDD-DE85-408F-A52A-FF600B1C6101";
paths = (
{
closed = 1;
nodes = (
"121 714 OFFCURVE",
"58 658 OFFCURVE",
"52 574 CURVE SMOOTH",
"46 489 OFFCURVE",
"102 433 OFFCURVE",
"192 433 CURVE SMOOTH",
"281 433 OFFCURVE",
"345 489 OFFCURVE",
"351 572 CURVE SMOOTH",
"357 657 OFFCURVE",
"300 714 OFFCURVE",
"209 714 CURVE SMOOTH"
);
},
{
closed = 1;
nodes = (
"94 638 OFFCURVE",
"142 682 OFFCURVE",
"210 682 CURVE SMOOTH",
"276 682 OFFCURVE",
"317 639 OFFCURVE",
"313 574 CURVE SMOOTH",
"308 509 OFFCURVE",
"260 465 OFFCURVE",
"192 465 CURVE SMOOTH",
"126 465 OFFCURVE",
"85 508 OFFCURVE",
"90 572 CURVE SMOOTH"
);
}
);
width = 359;
},
{
layerId = m002;
paths = (
{
closed = 1;
nodes = (
"106 713 OFFCURVE",
"38 662 OFFCURVE",
"32 577 CURVE SMOOTH",
"26 486 OFFCURVE",
"90 432 OFFCURVE",
"204 432 CURVE SMOOTH",
"314 432 OFFCURVE",
"382 482 OFFCURVE",
"388 567 CURVE SMOOTH",
"395 659 OFFCURVE",
"331 713 OFFCURVE",
"215 713 CURVE SMOOTH"
);
},
{
closed = 1;
nodes = (
"145 603 OFFCURVE",
"173 624 OFFCURVE",
"218 624 CURVE SMOOTH",
"258 624 OFFCURVE",
"280 607 OFFCURVE",
"278 577 CURVE SMOOTH",
"276 542 OFFCURVE",
"248 521 OFFCURVE",
"202 521 CURVE SMOOTH",
"162 521 OFFCURVE",
"140 538 OFFCURVE",
"142 567 CURVE SMOOTH"
);
}
);
width = 377;
}
);
leftKerningGroup = o;
leftMetricsKey = o;
rightKerningGroup = o;
rightMetricsKey = o;
unicode = 00BA;
},
{
color = 10;
glyphname = "Be-cy";
lastChange = "2023-09-01 17:10:32 +0000";
layers = (
{
layerId = "FD4D3FDD-DE85-408F-A52A-FF600B1C6101";
paths = (
{
closed = 1;
nodes = (
"434 0 LINE SMOOTH",
"576 0 OFFCURVE",
"660 80 OFFCURVE",
"660 216 CURVE SMOOTH",
"660 330 OFFCURVE",
"582 398 OFFCURVE",
"449 398 CURVE SMOOTH",
"100 398 LINE",
"119 666 LINE",
"672 666 LINE",
"676 714 LINE",
"72 714 LINE",
"22 0 LINE"
);
},
{
closed = 1;
nodes = (
"97 351 LINE",
"447 351 LINE SMOOTH",
"549 351 OFFCURVE",
"610 299 OFFCURVE",
"610 212 CURVE SMOOTH",
"610 109 OFFCURVE",
"545 48 OFFCURVE",
"434 48 CURVE SMOOTH",
"75 48 LINE"
);
}
);
width = 704;
},
{
layerId = m002;
paths = (
{
closed = 1;
nodes = (
"504 0 LINE SMOOTH",
"677 0 OFFCURVE",
"780 89 OFFCURVE",
"780 240 CURVE SMOOTH",
"780 371 OFFCURVE",
"683 449 OFFCURVE",
"519 449 CURVE SMOOTH",
"243 449 LINE",
"250 546 LINE",
"772 546 LINE",
"784 714 LINE",
"52 714 LINE",
"2 0 LINE"
);
},
{
closed = 1;
nodes = (
"232 281 LINE",
"512 281 LINE SMOOTH",
"542 281 OFFCURVE",
"560 264 OFFCURVE",
"560 235 CURVE SMOOTH",
"560 193 OFFCURVE",
"541 168 OFFCURVE",
"509 168 CURVE SMOOTH",
"224 168 LINE"
);
}
);
width = 802;
}
);
leftKerningGroup = H;
leftMetricsKey = H;
rightKerningGroup = E;
rightMetricsKey = E;
unicode = 0411;
},
{
color = 10;
glyphname = "Ge-cy";
lastChange = "2023-09-01 17:10:37 +0000";
layers = (
{
anchors = (
{
name = Bottom;
position = "{266, 0}";
},
{
name = Top;
position = "{321, 714}";
}
);
layerId = "FD4D3FDD-DE85-408F-A52A-FF600B1C6101";
paths = (
{
closed = 1;
nodes = (
"119 666 LINE",
"630 666 LINE",
"634 714 LINE",
"72 714 LINE",
"22 0 LINE",
"72 0 LINE"
);
}
);
width = 622;
},
{
anchors = (
{
name = Bottom;
position = "{296, 0}";
},
{
name = Top;
position = "{401, 714}";
}
);
layerId = m002;
paths = (
{
closed = 1;
nodes = (
"250 546 LINE",
"762 546 LINE",
"774 714 LINE",
"52 714 LINE",
"2 0 LINE",
"212 0 LINE"
);
}
);
width = 762;
}
);
leftKerningGroup = H;
leftMetricsKey = H;
rightKerningGroup = "Ge-cy";
rightMetricsKey = T;
unicode = 0413;
},
{
color = 10;
glyphname = "Geupturn-cy";
lastChange = "2023-09-01 17:10:44 +0000";
layers = (
{
layerId = "FD4D3FDD-DE85-408F-A52A-FF600B1C6101";
paths = (
{
closed = 1;
nodes = (
"119 666 LINE",
"654 666 LINE",
"660 752 LINE",
"610 752 LINE",
"607 714 LINE",
"72 714 LINE",
"22 0 LINE",
"72 0 LINE"
);
}
);
width = 646;
},
{
layerId = m002;
paths = (
{
closed = 1;
nodes = (
"250 546 LINE",
"868 546 LINE",
"884 772 LINE",
"674 772 LINE",
"670 714 LINE",
"52 714 LINE",
"2 0 LINE",
"212 0 LINE"
);
}
);
width = 868;
}
);
leftKerningGroup = H;
leftMetricsKey = "Ge-cy";
rightKerningGroup = "Ge-cy";
rightMetricsKey = "Ge-cy";
unicode = 0490;
},
{
color = 10;
glyphname = "Gedescender-cy";
lastChange = "2023-09-01 17:10:44 +0000";
layers = (
{
layerId = "FD4D3FDD-DE85-408F-A52A-FF600B1C6101";
paths = (
{
closed = 1;
nodes = (
"65 -100 LINE",
"115 -100 LINE",
"125 48 LINE",
"75 48 LINE",
"119 666 LINE",
"630 666 LINE",
"634 714 LINE",
"72 714 LINE",
"22 0 LINE",
"72 0 LINE"
);
}
);
width = 622;
},
{
layerId = m002;
paths = (
{
closed = 1;
nodes = (
"205 -100 LINE",
"415 -100 LINE",
"433 168 LINE",
"224 168 LINE",
"250 546 LINE",
"762 546 LINE",
"774 714 LINE",
"52 714 LINE",
"2 0 LINE",
"212 0 LINE"
);
}
);
width = 762;
}
);
leftKerningGroup = H;
leftMetricsKey = "Ge-cy";
rightKerningGroup = "Ge-cy";
rightMetricsKey = "Ge-cy";
unicode = 04F6;
},
{
color = 10;
glyphname = "Gestroke-cy";
lastChange = "2023-09-01 17:10:57 +0000";
layers = (
{
layerId = "FD4D3FDD-DE85-408F-A52A-FF600B1C6101";
paths = (
{
closed = 1;
nodes = (
"157 344 LINE",
"577 344 LINE",
"579 384 LINE",
"160 384 LINE",
"180 666 LINE",
"691 666 LINE",
"695 714 LINE",
"133 714 LINE",
"110 384 LINE",
"49 384 LINE",
"47 344 LINE",
"107 344 LINE",
"83 0 LINE",
"133 0 LINE"
);
}
);
width = 683;
},
{
layerId = m002;
paths = (
{
closed = 1;
nodes = (
"289 233 LINE",
"754 233 LINE",
"764 383 LINE",
"300 383 LINE",
"311 546 LINE",
"823 546 LINE",
"835 714 LINE",
"113 714 LINE",
"90 383 LINE",
"29 383 LINE",
"19 233 LINE",
"79 233 LINE",
"63 0 LINE",
"273 0 LINE"
);
}
);
width = 823;
}
);
leftKerningGroup = "Ge-cy";
leftMetricsKey = "Ge-cy";
rightKerningGroup = "Ge-cy";
rightMetricsKey = "Ge-cy";
unicode = 0492;
},
{
color = 10;
glyphname = "Gemiddlehook-cy";
lastChange = "2023-09-01 17:11:06 +0000";
layers = (
{
layerId = "FD4D3FDD-DE85-408F-A52A-FF600B1C6101";
paths = (
{
closed = 1;
nodes = (
"596 342 OFFCURVE",
"492 432 OFFCURVE",
"336 432 CURVE SMOOTH",
"238 432 OFFCURVE",
"141 399 OFFCURVE",
"94 352 CURVE",
"92 353 LINE",
"106 420 LINE",
"124 666 LINE",
"630 666 LINE",
"634 714 LINE",
"72 714 LINE",
"22 0 LINE",
"72 0 LINE",
"92 289 LINE",
"144 345 OFFCURVE",
"240 382 OFFCURVE",
"333 382 CURVE SMOOTH",
"470 382 OFFCURVE",
"556 305 OFFCURVE",
"548 189 CURVE SMOOTH",
"541 87 OFFCURVE",
"485 -16 OFFCURVE",
"408 -69 CURVE",
"438 -105 LINE",
"533 -40 OFFCURVE",
"596 84 OFFCURVE",
"596 206 CURVE SMOOTH"
);
}
);
width = 632;
},
{
layerId = m002;
paths = (
{
closed = 1;
nodes = (
"761 325 OFFCURVE",
"629 432 OFFCURVE",
"432 432 CURVE SMOOTH",
"352 432 OFFCURVE",
"272 410 OFFCURVE",
"232 382 CURVE",
"230 383 LINE",
"243 439 LINE",
"250 546 LINE",
"762 546 LINE",
"774 714 LINE",
"52 714 LINE",
"2 0 LINE",
"212 0 LINE",
"226 187 LINE",
"268 233 OFFCURVE",
"346 264 OFFCURVE",
"420 264 CURVE SMOOTH",
"492 264 OFFCURVE",
"540 223 OFFCURVE",
"540 162 CURVE SMOOTH",
"540 65 OFFCURVE",
"473 -14 OFFCURVE",
"372 -35 CURVE",
"563 -167 LINE",
"682 -94 OFFCURVE",
"761 39 OFFCURVE",
"761 165 CURVE SMOOTH"
);
}
);
width = 778;
}
);
leftKerningGroup = H;
leftMetricsKey = H;
rightKerningGroup = "Dje-cy";
rightMetricsKey = b;
unicode = 0494;
},
{
color = 10;
glyphname = "De-cy";
lastChange = "2023-09-01 17:20:45 +0000";
layers = (
{
layerId = "FD4D3FDD-DE85-408F-A52A-FF600B1C6101";
paths = (
{
closed = 1;
nodes = (
"250 714 LINE",
"171 164 LINE SMOOTH",
"160 88 OFFCURVE",
"113 48 OFFCURVE",
"36 48 CURVE SMOOTH",
"15 48 LINE",
"5 -100 LINE",
"55 -100 LINE",
"62 0 LINE",
"712 0 LINE",
"705 -100 LINE",
"755 -100 LINE",
"765 48 LINE",
"715 48 LINE",
"762 714 LINE"
);
},
{
closed = 1;
nodes = (
"197 75 OFFCURVE",
"214 113 OFFCURVE",
"221 162 CURVE SMOOTH",
"293 666 LINE",
"709 666 LINE",
"665 48 LINE",
"169 48 LINE"
);
}
);
width = 800;
},
{
layerId = m002;
paths = (
{
closed = 1;
nodes = (
"314 714 LINE",
"245 293 LINE SMOOTH",
"231 212 OFFCURVE",
"186 168 OFFCURVE",
"116 168 CURVE SMOOTH",
"14 168 LINE",
"-4 -100 LINE",
"206 -100 LINE",
"213 0 LINE",
"800 0 LINE",
"793 -100 LINE",
"1003 -100 LINE",
"1021 168 LINE",
"917 168 LINE",
"955 714 LINE"
);
},
{
closed = 1;
nodes = (
"436 203 OFFCURVE",
"448 244 OFFCURVE",
"455 291 CURVE SMOOTH",
"497 546 LINE",
"733 546 LINE",
"707 168 LINE",
"420 168 LINE"
);
}
);
width = 1048;
}
);
leftKerningGroup = "De-cy";
leftMetricsKey = J;
rightKerningGroup = "De-cy";
rightMetricsKey = L;
unicode = 0414;
},
{
color = 10;
glyphname = "Zhe-cy";
lastChange = "2023-09-01 17:20:31 +0000";
layers = (
{
anchors = (
{
name = Bottom;
position = "{398, 0}";
},
{
name = Top;
position = "{448, 714}";
}
);
layerId = "FD4D3FDD-DE85-408F-A52A-FF600B1C6101";
paths = (
{
closed = 1;
nodes = (
"446 334 LINE",
"448 334 LINE",
"734 0 LINE",
"792 0 LINE",
"495 357 LINE",
"843 714 LINE",
"783 714 LINE",
"452 382 LINE",
"450 382 LINE",
"473 714 LINE",
"423 714 LINE",
"400 382 LINE",
"398 382 LINE",
"111 714 LINE",
"53 714 LINE",
"351 358 LINE",
"2 0 LINE",
"62 0 LINE",
"393 334 LINE",
"395 334 LINE",
"373 0 LINE",
"423 0 LINE"
);
}
);
width = 831;
},
{
anchors = (
{
name = Bottom;
position = "{600, 0}";
},
{
name = Top;
position = "{650, 714}";
}
);
layerId = m002;
paths = (
{
closed = 1;
nodes = (
"726 299 LINE",
"728 299 LINE",
"968 0 LINE",
"1196 0 LINE",
"924 355 LINE",
"1247 714 LINE",
"1017 714 LINE",
"736 414 LINE",
"734 414 LINE",
"755 714 LINE",
"545 714 LINE",
"523.992 414 LINE",
"522 414 LINE",
"281 714 LINE",
"53 714 LINE",
"325 358 LINE",
"2 0 LINE",
"232 0 LINE",
"513 299 LINE",
"515 299 LINE",
"495 0 LINE",
"705 0 LINE"
);
}
);
width = 1235;
}
);
leftKerningGroup = "Zhe-cy";
leftMetricsKey = A;
rightKerningGroup = "Zhe-cy";
rightMetricsKey = A;
unicode = 0416;
},
{
color = 10;
glyphname = "Ze-cy";
lastChange = "2023-09-01 17:20:35 +0000";
layers = (
{
anchors = (
{
name = Bottom;
position = "{307, 0}";
},
{
name = Top;
position = "{357, 714}";
}
);
layerId = "FD4D3FDD-DE85-408F-A52A-FF600B1C6101";
paths = (
{
closed = 1;
nodes = (
"565 101 OFFCURVE",
"460 35 OFFCURVE",
"311 35 CURVE SMOOTH",
"162 35 OFFCURVE",
"68 97 OFFCURVE",
"75 192 CURVE",
"25 194 LINE",
"17 70 OFFCURVE",
"130 -13 OFFCURVE",
"309 -13 CURVE SMOOTH",
"488 -13 OFFCURVE",
"613 70 OFFCURVE",
"621 196 CURVE SMOOTH",
"628 284 OFFCURVE",
"574 355 OFFCURVE",
"488 371 CURVE",
"489 373 LINE",
"564 399 OFFCURVE",
"617 461 OFFCURVE",
"622 529 CURVE SMOOTH",
"630 646 OFFCURVE",
"524 725 OFFCURVE",
"357 725 CURVE SMOOTH",
"184 725 OFFCURVE",
"64 648 OFFCURVE",
"56 530 CURVE",
"106 528 LINE",
"112 617 OFFCURVE",
"212 677 OFFCURVE",
"355 677 CURVE SMOOTH",
"492 677 OFFCURVE",
"578 619 OFFCURVE",
"572 531 CURVE SMOOTH",
"566 451 OFFCURVE",
"471 396 OFFCURVE",
"334 396 CURVE SMOOTH",
"287 396 LINE",
"284 348 LINE",
"332 348 LINE SMOOTH",
"483 348 OFFCURVE",
"578 289 OFFCURVE",
"571 198 CURVE SMOOTH"
);
}
);
width = 655;
},
{
anchors = (
{
name = Bottom;
position = "{362, 0}";
},
{
name = Top;
position = "{412, 714}";
}
);
layerId = m002;
paths = (
{
closed = 1;
nodes = (
"541 187 OFFCURVE",
"469 155 OFFCURVE",
"365 155 CURVE SMOOTH",
"269 155 OFFCURVE",
"208 185 OFFCURVE",
"212 231 CURVE",
"12 235 LINE",
"2 86 OFFCURVE",
"140 -13 OFFCURVE",
"358 -13 CURVE SMOOTH",
"579 -13 OFFCURVE",
"733 78 OFFCURVE",
"743 215 CURVE SMOOTH",
"747 284 OFFCURVE",
"706 346 OFFCURVE",
"640 370 CURVE",
"646 372 LINE",
"698 397 OFFCURVE",
"736 452 OFFCURVE",
"740 509 CURVE SMOOTH",
"749 639 OFFCURVE",
"614 726 OFFCURVE",
"403 726 CURVE SMOOTH",
"188 726 OFFCURVE",
"37 628 OFFCURVE",
"26 482 CURVE",
"226 478 LINE",
"229 526 OFFCURVE",
"297 558 OFFCURVE",
"396 558 CURVE SMOOTH",
"484 558 OFFCURVE",
"542 534 OFFCURVE",
"540 499 CURVE SMOOTH",
"537 462 OFFCURVE",
"477 437 OFFCURVE",
"389 437 CURVE SMOOTH",
"339 437 LINE",
"330 307 LINE",
"384 307 LINE SMOOTH",
"483 307 OFFCURVE",
"547 278 OFFCURVE",
"544 234 CURVE SMOOTH"
);
}
);
width = 756;
}
);
leftKerningGroup = "Ze-cy";
leftMetricsKey = O;
rightKerningGroup = "Ze-cy";
rightMetricsKey = O;
unicode = 0417;
},
{
color = 10;
glyphname = "Ii-cy";
lastChange = "2023-09-01 17:11:42 +0000";
layers = (
{
anchors = (
{
name = Bottom;
position = "{334, 0}";
},
{
name = Top;
position = "{384, 714}";
}
);
layerId = "FD4D3FDD-DE85-408F-A52A-FF600B1C6101";
paths = (
{
closed = 1;
nodes = (
"80 83 LINE",
"78 83 LINE",
"122 714 LINE",
"72 714 LINE",
"22 0 LINE",
"72 0 LINE",
"638 631 LINE",
"640 631 LINE",
"596 0 LINE",
"646 0 LINE",
"696 714 LINE",
"646 714 LINE"
);
}
);
width = 704;
},
{
anchors = (
{
name = Bottom;
position = "{384, 0}";
},
{
name = Top;
position = "{434, 714}";
}
);
layerId = m002;
paths = (
{
closed = 1;
nodes = (
"236 310 LINE",
"234 310 LINE",
"262 714 LINE",
"52 714 LINE",
"2 0 LINE",
"212 0 LINE",
"582 404 LINE",
"584 404 LINE",
"556 0 LINE",
"766 0 LINE",
"816 714 LINE",
"606 714 LINE"
);
}
);
width = 804;
}
);
leftKerningGroup = H;
leftMetricsKey = N;
rightKerningGroup = H;
rightMetricsKey = N;
unicode = 0418;
},
{
color = 10;
glyphname = "Ka-cy";
lastChange = "2023-09-01 17:11:51 +0000";
layers = (
{
anchors = (
{
name = Bottom;
position = "{266, 0}";
},
{
name = Top;
position = "{341, 714}";
}
);
layerId = "FD4D3FDD-DE85-408F-A52A-FF600B1C6101";
paths = (
{
closed = 1;
nodes = (
"22 0 LINE",
"72 0 LINE",
"90 260 LINE",
"254 381 LINE",
"573 0 LINE",
"644 0 LINE",
"295 412 LINE",
"703 714 LINE",
"628 714 LINE",
"97 322 LINE",
"95 322 LINE",
"122 714 LINE",
"72 714 LINE"
);
}
);
width = 691;
},
{
anchors = (
{
name = Bottom;
position = "{340, 0}";
},
{
name = Top;
position = "{415, 714}";
}
);
layerId = m002;
paths = (
{
closed = 1;
nodes = (
"2 0 LINE",
"212 0 LINE",
"225 191 LINE",
"344 285 LINE",
"563 0 LINE",
"818 0 LINE",
"501 411 LINE",
"883 714 LINE",
"595 714 LINE",
"244 434 LINE",
"242 434 LINE",
"262 714 LINE",
"52 714 LINE"
);
}
);
width = 871;
}
);
leftKerningGroup = H;
leftMetricsKey = K;
rightKerningGroup = K;
rightMetricsKey = K;
unicode = 041A;
},
{
color = 10;
glyphname = "El-cy";
lastChange = "2023-09-01 17:13:53 +0000";
layers = (
{
layerId = "FD4D3FDD-DE85-408F-A52A-FF600B1C6101";
paths = (
{
closed = 1;
nodes = (
"209 714 LINE",
"170 164 LINE SMOOTH",
"165 91 OFFCURVE",
"125 47 OFFCURVE",
"63 47 CURVE SMOOTH",
"44 47 OFFCURVE",
"26 48 OFFCURVE",
"15 51 CURVE",
"12 3 LINE",
"27 1 OFFCURVE",
"45 0 OFFCURVE",
"61 0 CURVE SMOOTH",
"154 0 OFFCURVE",
"213 60 OFFCURVE",
"220 162 CURVE SMOOTH",
"256 666 LINE",
"780 666 LINE",
"733 0 LINE",
"783 0 LINE",
"833 714 LINE"
);
}
);
width = 841;
},
{
layerId = m002;
paths = (
{
closed = 1;
nodes = (
"142 714 LINE",
"107 221 LINE SMOOTH",
"105 188 OFFCURVE",
"83 167 OFFCURVE",
"51 167 CURVE SMOOTH",
"35 167 OFFCURVE",
"27 167 OFFCURVE",
"14 170 CURVE",
"7 3 LINE",
"18 1 OFFCURVE",
"44 0 OFFCURVE",
"77 0 CURVE SMOOTH",
"219 0 OFFCURVE",
"307 81 OFFCURVE",
"317 221 CURVE SMOOTH",
"340 546 LINE",
"684 546 LINE",
"646 0 LINE",
"856 0 LINE",
"906 714 LINE"
);
}
);
width = 894;
}
);
leftKerningGroup = "El-cy";
leftMetricsKey = J;
rightKerningGroup = N;
rightMetricsKey = N;
unicode = 041B;
},
{
color = 10;
glyphname = "Pe-cy";
lastChange = "2023-09-01 17:12:02 +0000";
layers = (
{
layerId = "FD4D3FDD-DE85-408F-A52A-FF600B1C6101";
paths = (
{
closed = 1;
nodes = (
"119 666 LINE",
"643 666 LINE",
"596 0 LINE",
"646 0 LINE",
"696 714 LINE",
"72 714 LINE",
"22 0 LINE",
"72 0 LINE"
);
}
);
width = 704;
},
{
layerId = m002;
paths = (
{
closed = 1;
nodes = (
"250 546 LINE",
"594 546 LINE",
"556 0 LINE",
"766 0 LINE",
"816 714 LINE",
"52 714 LINE",
"2 0 LINE",
"212 0 LINE"
);
}
);
width = 804;
}
);
leftKerningGroup = H;
leftMetricsKey = H;
rightKerningGroup = H;
rightMetricsKey = H;
unicode = 041F;
},
